<svg xmlns="http://www.w3.org/2000/svg" xmlns:xlink="http://www.w3.org/1999/xlink" width="1587" zoomAndPan="magnify" viewBox="0 0 1190.25 1683.749949" height="2245" preserveAspectRatio="xMidYMid meet" version="1.0"><defs><clipPath id="82d92eff19"><path d="M 747 568 L 1189.5 568 L 1189.5 1124 L 747 1124 Z M 747 568 " clip-rule="nonzero"/></clipPath><clipPath id="a8f776ee03"><path d="M 952 434.078125 L 1051 434.078125 L 1051 533 L 952 533 Z M 952 434.078125 " clip-rule="nonzero"/></clipPath><clipPath id="9dd111ec58"><path d="M 812 1076 L 986 1076 L 986 1127.390625 L 812 1127.390625 Z M 812 1076 " clip-rule="nonzero"/></clipPath><clipPath id="98a12a7b2e"><path d="M 543.480469 747 L 551 747 L 551 1044 L 543.480469 1044 Z M 543.480469 747 " clip-rule="nonzero"/></clipPath><clipPath id="02f01f61b7"><path d="M 1122 610 L 1189.5 610 L 1189.5 1069 L 1122 1069 Z M 1122 610 " clip-rule="nonzero"/></clipPath></defs><g clip-path="url(#82d92eff19)"><path fill="#6093af" d="M 1073.539062 568.5 L 1073.007812 571.582031 C 1065.253906 594.191406 1059.128906 635.898438 1031.730469 641.816406 C 1010.042969 646.503906 991.640625 641.871094 977.621094 634.667969 C 970.199219 631.628906 967.035156 624.320312 968.136719 612.738281 C 944.542969 615.265625 922.460938 611.800781 916.550781 584.171875 C 909.578125 585.644531 896.253906 590.714844 876.578125 599.382812 C 815.117188 630.835938 785.429688 680.074219 747.117188 734.828125 L 893.894531 736.625 L 887.394531 1015.703125 L 953.898438 986.023438 L 980.800781 1120.820312 C 1078.292969 1125.394531 1148.269531 1123.480469 1190.726562 1115.078125 C 1229.816406 1105.90625 1266.421875 1091.210938 1282.304688 1051.746094 C 1296.183594 1017.261719 1270.738281 721.269531 1247.523438 659.121094 C 1239.535156 635.320312 1223.902344 616.175781 1200.625 601.6875 C 1166.050781 580.167969 1113.441406 571.179688 1073.539062 568.5 Z M 1073.539062 568.5 " fill-opacity="1" fill-rule="nonzero"/></g><path fill="#1f1f1f" d="M 1054.621094 581.859375 C 1044.019531 560.246094 1037.753906 545.320312 1035.820312 537.082031 L 1035.804688 537.015625 C 1035.4375 535.203125 1035.972656 533.578125 1037.410156 532.140625 C 1037.542969 532.003906 1037.695312 531.890625 1037.859375 531.792969 C 1043.589844 528.429688 1047.285156 525.410156 1048.9375 522.730469 C 1048.984375 522.652344 1049.039062 522.578125 1049.09375 522.507812 C 1051.480469 519.535156 1052.988281 516.363281 1053.621094 513 L 1053.589844 513.273438 C 1054.105469 504.691406 1052.550781 500.289062 1048.921875 500.070312 C 1048.128906 500.023438 1047.210938 500.136719 1046.175781 500.414062 L 1046.113281 500.429688 C 1042.074219 501.382812 1038.699219 504.867188 1035.984375 510.882812 L 1036.175781 510.109375 C 1034.847656 531.542969 1030.3125 550.410156 1022.570312 566.71875 L 1022.574219 566.703125 C 1017.601562 577.355469 1010.660156 587.570312 1001.757812 597.351562 C 1001.703125 597.410156 1001.648438 597.464844 1001.589844 597.515625 C 978.636719 617.910156 955.238281 622.433594 931.394531 611.085938 C 931.257812 611.023438 931.125 610.945312 931.007812 610.851562 C 914.925781 598.652344 909.792969 583.636719 915.597656 565.804688 L 915.585938 565.839844 C 920.417969 550.058594 934.78125 534.078125 958.683594 517.902344 C 959.695312 517.21875 961.070312 517.484375 961.753906 518.496094 C 962.441406 519.507812 962.175781 520.882812 961.164062 521.566406 C 938.125 537.160156 924.34375 552.347656 919.816406 567.136719 L 919.804688 567.171875 C 914.648438 583.011719 919.273438 596.394531 933.679688 607.328125 L 933.292969 607.09375 C 955.375 617.597656 977.160156 613.304688 998.652344 594.207031 L 998.484375 594.371094 C 1007.085938 584.921875 1013.78125 575.074219 1018.566406 564.832031 L 1018.574219 564.820312 C 1026.074219 549.027344 1030.46875 530.699219 1031.757812 509.835938 C 1031.777344 509.570312 1031.839844 509.308594 1031.949219 509.0625 C 1035.265625 501.722656 1039.644531 497.410156 1045.097656 496.125 L 1045.035156 496.140625 C 1046.53125 495.742188 1047.917969 495.578125 1049.1875 495.65625 C 1055.757812 496.050781 1058.699219 502.011719 1058.003906 513.539062 C 1058 513.632812 1057.988281 513.722656 1057.972656 513.816406 C 1057.203125 517.90625 1055.394531 521.726562 1052.546875 525.277344 L 1052.703125 525.054688 C 1050.664062 528.359375 1046.460938 531.875 1040.09375 535.609375 L 1040.542969 535.265625 C 1040.222656 535.585938 1040.089844 535.875 1040.140625 536.136719 L 1040.125 536.070312 C 1041.984375 543.984375 1048.140625 558.597656 1058.59375 579.910156 C 1059.132812 581.007812 1058.679688 582.332031 1057.582031 582.871094 C 1056.484375 583.410156 1055.160156 582.957031 1054.621094 581.859375 Z M 1054.621094 581.859375 " fill-opacity="1" fill-rule="nonzero"/><g clip-path="url(#a8f776ee03)"><path fill="#1f1f1f" d="M 1045.675781 497.390625 C 1047.886719 474.695312 1037.730469 456.679688 1015.207031 443.351562 L 1015.382812 443.445312 C 1009.410156 440.597656 1004.671875 439.003906 1001.160156 438.664062 L 1001.207031 438.667969 C 1000.523438 438.617188 1000.035156 438.8125 999.742188 439.246094 L 999.699219 439.308594 C 999.226562 439.957031 999.054688 441.183594 999.1875 442.980469 C 999.207031 443.269531 999.171875 443.558594 999.082031 443.835938 C 998.753906 444.839844 998.007812 445.5 996.855469 445.816406 L 996.855469 445.820312 C 996.707031 445.859375 996.546875 445.894531 996.382812 445.921875 L 998.1875 443.359375 C 998.453125 444.863281 997.816406 445.75 996.285156 446.019531 C 996.042969 446.058594 995.777344 446.070312 995.484375 446.046875 C 994.09375 445.9375 989.625 444.570312 982.082031 441.945312 L 982.289062 442.007812 C 980.578125 441.59375 979.101562 441.476562 977.859375 441.65625 L 977.84375 441.65625 C 975.265625 442.011719 974.214844 444.191406 974.691406 448.195312 C 974.773438 448.886719 974.527344 449.574219 974.027344 450.054688 C 973.527344 450.535156 972.828125 450.753906 972.140625 450.644531 C 965.996094 449.648438 961.496094 450.109375 958.640625 452.023438 C 958.574219 452.070312 958.503906 452.109375 958.429688 452.148438 C 956.050781 453.386719 956.339844 456.84375 959.289062 462.519531 C 960.761719 465.351562 962.871094 468.632812 965.613281 472.367188 L 965.191406 471.929688 C 964.992188 471.773438 964.804688 471.695312 964.636719 471.699219 C 964.765625 471.695312 964.992188 471.636719 965.316406 471.515625 L 964.953125 471.691406 C 974.503906 465.988281 981.742188 462.625 986.667969 461.601562 L 986.546875 461.632812 C 992.71875 459.976562 998.480469 459.882812 1003.835938 461.347656 L 1003.738281 461.324219 C 1007.917969 462.265625 1011.632812 464.167969 1014.878906 467.035156 C 1014.9375 467.085938 1014.992188 467.140625 1015.046875 467.199219 C 1016.132812 468.386719 1016.929688 469.777344 1017.433594 471.371094 C 1017.46875 471.484375 1017.496094 471.597656 1017.515625 471.714844 C 1018.351562 477.390625 1018.984375 480.648438 1019.421875 481.492188 C 1019.066406 480.804688 1018.421875 480.527344 1017.488281 480.664062 L 1017.492188 480.664062 C 1017.164062 480.714844 1016.867188 480.832031 1016.601562 481.019531 C 1017.085938 480.675781 1017.6875 480.542969 1018.273438 480.644531 C 1018.859375 480.75 1019.378906 481.085938 1019.710938 481.578125 C 1020.097656 482.144531 1020.609375 482.636719 1021.246094 483.058594 L 1020.832031 482.84375 C 1025.390625 484.625 1028.195312 486.113281 1029.25 487.300781 C 1029.761719 487.882812 1030.042969 488.503906 1030.09375 489.171875 L 1028.347656 487.171875 C 1029.453125 487.40625 1030.167969 488.152344 1030.488281 489.40625 C 1030.894531 490.996094 1030.527344 494.480469 1029.386719 499.859375 C 1028.929688 502.015625 1028.347656 504.503906 1027.640625 507.332031 L 1027.664062 507.230469 C 1025.542969 517.8125 1023.449219 523.96875 1021.394531 525.699219 C 1021.34375 525.742188 1021.296875 525.78125 1021.246094 525.820312 L 1021.644531 525.421875 C 1017.085938 531.292969 1008.84375 533.25 996.921875 531.296875 C 995.714844 531.101562 994.898438 529.960938 995.09375 528.757812 C 995.292969 527.550781 996.429688 526.734375 997.636719 526.929688 C 1007.828125 528.601562 1014.667969 527.195312 1018.152344 522.707031 C 1018.265625 522.558594 1018.398438 522.425781 1018.546875 522.3125 C 1018.546875 522.3125 1018.546875 522.316406 1018.542969 522.316406 C 1019.8125 521.246094 1021.40625 515.929688 1023.328125 506.359375 L 1023.351562 506.261719 C 1024.042969 503.484375 1024.613281 501.042969 1025.058594 498.941406 C 1026.058594 494.238281 1026.4375 491.425781 1026.203125 490.5 C 1026.335938 491.019531 1026.742188 491.355469 1027.425781 491.5 C 1026.464844 491.292969 1025.753906 490.480469 1025.679688 489.496094 C 1025.703125 489.824219 1025.789062 490.070312 1025.9375 490.234375 C 1025.355469 489.578125 1023.117188 488.488281 1019.222656 486.964844 C 1019.078125 486.90625 1018.9375 486.835938 1018.808594 486.75 C 1017.6875 486.007812 1016.769531 485.113281 1016.054688 484.070312 L 1019.167969 484.625 C 1018.855469 484.847656 1018.507812 484.988281 1018.132812 485.042969 C 1016.980469 485.210938 1016.097656 484.703125 1015.488281 483.519531 C 1014.828125 482.242188 1014.046875 478.519531 1013.136719 472.359375 L 1013.21875 472.707031 C 1012.910156 471.734375 1012.429688 470.894531 1011.785156 470.1875 L 1011.949219 470.351562 C 1009.273438 467.984375 1006.210938 466.414062 1002.765625 465.640625 L 1002.667969 465.613281 C 998.085938 464.363281 993.09375 464.457031 987.691406 465.90625 L 987.570312 465.933594 C 983.125 466.855469 976.34375 470.039062 967.222656 475.488281 C 967.105469 475.554688 966.984375 475.613281 966.859375 475.660156 C 966.054688 475.960938 965.332031 476.113281 964.683594 476.121094 L 964.6875 476.121094 C 963.824219 476.132812 963.085938 475.898438 962.472656 475.421875 C 962.3125 475.296875 962.171875 475.148438 962.050781 474.984375 C 959.171875 471.070312 956.941406 467.59375 955.363281 464.5625 C 951.050781 456.265625 951.394531 450.820312 956.390625 448.222656 L 956.179688 448.347656 C 960 445.785156 965.554688 445.097656 972.847656 446.273438 L 970.300781 448.722656 C 969.476562 441.839844 971.792969 438.023438 977.238281 437.273438 L 977.226562 437.277344 C 979.027344 437.015625 981.0625 437.160156 983.328125 437.707031 C 983.398438 437.722656 983.46875 437.742188 983.535156 437.769531 C 990.71875 440.265625 994.816406 441.554688 995.832031 441.636719 C 995.75 441.628906 995.644531 441.636719 995.519531 441.660156 C 994.148438 441.898438 993.585938 442.722656 993.832031 444.125 C 993.730469 443.542969 993.863281 442.949219 994.203125 442.464844 C 994.539062 441.984375 995.058594 441.660156 995.636719 441.5625 C 995.660156 441.558594 995.675781 441.554688 995.683594 441.550781 C 995.3125 441.652344 995.042969 441.953125 994.878906 442.449219 L 994.777344 443.304688 C 994.566406 440.425781 995.011719 438.230469 996.117188 436.707031 L 996.078125 436.765625 C 997.332031 434.914062 999.152344 434.078125 1001.539062 434.257812 L 1001.585938 434.261719 C 1005.613281 434.648438 1010.847656 436.378906 1017.285156 439.449219 C 1017.34375 439.480469 1017.402344 439.507812 1017.460938 439.542969 C 1041.597656 453.828125 1052.472656 473.253906 1050.078125 497.820312 C 1049.960938 499.035156 1048.878906 499.925781 1047.660156 499.808594 C 1046.445312 499.6875 1045.554688 498.605469 1045.675781 497.390625 Z M 1045.675781 497.390625 " fill-opacity="1" fill-rule="nonzero"/></g><path fill="#1f1f1f" d="M 966.429688 475.640625 C 965.667969 478.507812 965.082031 481.390625 964.664062 484.292969 L 964.648438 484.398438 C 964.394531 485.707031 964.210938 488.09375 964.097656 491.554688 L 964.097656 491.542969 C 964.082031 492.042969 964.09375 493.054688 964.125 494.589844 L 964.121094 494.53125 C 964.246094 497.15625 964.332031 499.703125 964.382812 502.171875 L 964.378906 502.097656 C 964.539062 505.042969 964.675781 508.050781 964.792969 511.121094 L 964.789062 511.097656 L 964.789062 511.101562 L 964.789062 511.074219 C 965.175781 517.210938 965.453125 520.636719 965.609375 521.351562 C 965.367188 520.25 964.625 519.734375 963.394531 519.8125 L 963.378906 519.8125 C 962.503906 519.871094 961.890625 520.296875 961.535156 521.085938 C 962.035156 519.972656 963.347656 519.472656 964.460938 519.976562 C 965.574219 520.476562 966.070312 521.785156 965.570312 522.902344 C 965.199219 523.722656 964.570312 524.164062 963.679688 524.226562 L 963.664062 524.226562 C 962.382812 524.304688 961.59375 523.667969 961.292969 522.3125 C 961.082031 521.371094 960.777344 517.71875 960.371094 511.351562 L 960.371094 511.289062 C 960.253906 508.242188 960.117188 505.257812 959.960938 502.335938 L 959.957031 502.261719 C 959.910156 499.832031 959.824219 497.324219 959.703125 494.742188 L 959.703125 494.683594 C 959.667969 493.078125 959.660156 491.988281 959.675781 491.417969 L 959.675781 491.410156 C 959.796875 487.714844 960.003906 485.097656 960.304688 483.558594 L 960.285156 483.664062 C 960.726562 480.589844 961.347656 477.539062 962.15625 474.503906 C 962.46875 473.324219 963.679688 472.621094 964.859375 472.933594 C 966.042969 473.246094 966.746094 474.460938 966.429688 475.640625 Z M 966.429688 475.640625 " fill-opacity="1" fill-rule="nonzero"/><path fill="#1f1f1f" d="M 974.464844 522.929688 C 969.117188 525.34375 964.257812 528.648438 959.882812 532.84375 L 960.003906 532.71875 C 957.660156 535.34375 956.773438 536.90625 957.339844 537.414062 C 957.367188 537.4375 957.398438 537.460938 957.433594 537.488281 L 957.3125 537.410156 C 958.238281 537.976562 959.804688 537.375 962.011719 535.605469 L 961.992188 535.621094 C 962.929688 534.855469 964.363281 533.3125 966.289062 530.992188 L 966.230469 531.066406 C 969.203125 527.152344 971.257812 524.289062 972.386719 522.472656 C 972.414062 522.429688 972.445312 522.386719 972.472656 522.347656 C 972.625 522.136719 972.777344 521.953125 972.929688 521.792969 C 973.679688 521.003906 974.515625 520.675781 975.445312 520.804688 L 974.902344 520.796875 C 975.664062 520.714844 976.398438 520.949219 977.101562 521.5 C 977.375 521.714844 977.65625 521.988281 977.945312 522.320312 C 978.011719 522.398438 978.074219 522.484375 978.132812 522.570312 C 979.917969 525.347656 982.003906 527.957031 984.390625 530.402344 L 984.410156 530.421875 C 985.683594 531.757812 987.492188 533.238281 989.835938 534.859375 L 989.890625 534.898438 C 993.375 537.46875 996.507812 538.398438 999.292969 537.6875 L 999.125 537.738281 C 1000.144531 537.390625 1000.539062 536.875 1000.308594 536.199219 C 999.859375 534.882812 998.492188 533.128906 996.203125 530.929688 L 996.300781 531.015625 C 993.84375 528.921875 991.21875 527.28125 988.425781 526.09375 L 988.417969 526.09375 C 982.605469 523.601562 978.648438 522.296875 976.542969 522.175781 C 975.324219 522.105469 974.390625 521.058594 974.460938 519.839844 C 974.53125 518.617188 975.578125 517.6875 976.796875 517.757812 C 979.421875 517.910156 983.875 519.332031 990.160156 522.027344 L 990.152344 522.023438 C 993.363281 523.386719 996.371094 525.261719 999.171875 527.652344 L 999.269531 527.738281 C 1002.074219 530.433594 1003.816406 532.777344 1004.496094 534.769531 C 1005.675781 538.242188 1004.363281 540.625 1000.554688 541.925781 C 1000.5 541.945312 1000.445312 541.960938 1000.386719 541.972656 C 996.246094 543.03125 991.871094 541.859375 987.265625 538.457031 L 987.320312 538.496094 C 984.726562 536.703125 982.691406 535.027344 981.207031 533.476562 L 981.226562 533.492188 C 978.628906 530.835938 976.359375 527.992188 974.410156 524.960938 L 974.597656 525.210938 C 974.5 525.097656 974.425781 525.023438 974.375 524.984375 L 974.378906 524.984375 C 974.617188 525.171875 974.949219 525.242188 975.375 525.195312 C 975.195312 525.214844 975.011719 525.214844 974.832031 525.1875 C 975.40625 525.269531 975.839844 525.152344 976.136719 524.839844 C 976.117188 524.859375 976.09375 524.894531 976.058594 524.941406 L 976.144531 524.8125 C 974.941406 526.742188 972.808594 529.71875 969.75 533.746094 L 969.691406 533.820312 C 967.582031 536.355469 965.953125 538.097656 964.796875 539.046875 L 964.777344 539.058594 C 960.953125 542.125 957.695312 542.832031 955 541.179688 C 954.960938 541.15625 954.917969 541.128906 954.878906 541.101562 C 954.707031 540.980469 954.546875 540.851562 954.390625 540.714844 C 951.625 538.242188 952.394531 534.59375 956.703125 529.773438 C 956.742188 529.730469 956.78125 529.6875 956.820312 529.648438 C 961.5625 525.105469 966.835938 521.519531 972.644531 518.898438 C 973.757812 518.394531 975.066406 518.890625 975.570312 520.003906 C 976.074219 521.117188 975.578125 522.429688 974.464844 522.929688 Z M 974.464844 522.929688 " fill-opacity="1" fill-rule="nonzero"/><path fill="#1f1f1f" d="M 983.875 493.914062 C 982.847656 497.660156 981.890625 500.835938 981.003906 503.441406 L 981.046875 503.308594 L 979.707031 508.226562 C 979.660156 508.398438 979.59375 508.5625 979.507812 508.71875 C 979.152344 509.363281 978.609375 509.863281 977.882812 510.214844 L 977.878906 510.214844 C 977.761719 510.273438 977.636719 510.328125 977.503906 510.375 C 977.367188 510.429688 977.226562 510.46875 977.078125 510.492188 C 975.535156 510.742188 974.597656 510.9375 974.257812 511.074219 L 974.261719 511.074219 C 974.667969 510.910156 974.980469 510.566406 975.191406 510.046875 C 975.039062 510.417969 974.792969 510.742188 974.46875 510.984375 C 974.101562 511.257812 973.871094 511.617188 973.777344 512.054688 L 973.796875 511.949219 C 973.664062 512.75 973.859375 513.511719 974.382812 514.238281 L 974.355469 514.199219 C 974.902344 514.917969 975.617188 515.367188 976.507812 515.542969 C 977.707031 515.78125 978.484375 516.945312 978.246094 518.144531 C 978.007812 519.34375 976.84375 520.121094 975.648438 519.882812 C 973.65625 519.488281 972.050781 518.484375 970.828125 516.867188 L 970.800781 516.832031 C 969.554688 515.113281 969.097656 513.246094 969.433594 511.230469 L 969.453125 511.125 C 969.777344 509.609375 970.566406 508.382812 971.816406 507.445312 L 971.09375 508.378906 C 971.351562 507.742188 971.855469 507.273438 972.605469 506.972656 C 973.246094 506.714844 974.5 506.429688 976.363281 506.125 L 975.9375 506.238281 C 975.949219 506.234375 975.953125 506.234375 975.957031 506.230469 C 975.839844 506.289062 975.734375 506.402344 975.640625 506.574219 L 975.441406 507.066406 L 976.777344 502.148438 L 976.816406 502.015625 C 977.675781 499.496094 978.605469 496.40625 979.605469 492.746094 C 979.929688 491.566406 981.144531 490.875 982.324219 491.195312 C 983.503906 491.519531 984.195312 492.734375 983.875 493.914062 Z M 983.875 493.914062 " fill-opacity="1" fill-rule="nonzero"/><path fill="#1f1f1f" d="M 1003.445312 503.875 L 1002.890625 503.945312 L 1003.445312 503.875 C 1003.445312 503.875 1003.445312 503.875 1003.449219 503.875 L 1003.445312 503.875 C 1003.449219 503.875 1003.453125 503.875 1003.457031 503.871094 L 1003.453125 503.871094 C 1003.449219 503.875 1003.441406 503.882812 1003.429688 503.894531 L 1003.285156 504.019531 L 1003.496094 503.828125 C 1003.429688 503.894531 1003.386719 503.945312 1003.363281 503.976562 C 1003.457031 503.84375 1003.511719 503.652344 1003.53125 503.40625 L 1003.535156 503.3125 C 1003.554688 502.703125 1003.265625 502.277344 1002.664062 502.039062 L 1002.570312 502.007812 C 1001.953125 501.792969 1001.441406 501.949219 1001.039062 502.476562 C 1001.785156 501.507812 1003.171875 501.324219 1004.140625 502.066406 C 1005.113281 502.8125 1005.292969 504.199219 1004.550781 505.167969 C 1003.660156 506.328125 1002.519531 506.667969 1001.128906 506.191406 L 1001.039062 506.15625 C 999.703125 505.628906 999.0625 504.628906 999.113281 503.160156 L 999.117188 503.066406 C 999.160156 502.527344 999.359375 501.996094 999.714844 501.476562 C 999.875 501.242188 1000.074219 501.003906 1000.308594 500.757812 L 1000.519531 500.566406 L 1000.523438 500.5625 L 1000.378906 500.6875 C 1000.621094 500.457031 1000.882812 500.257812 1001.160156 500.089844 C 1001.507812 499.878906 1001.878906 499.71875 1002.269531 499.609375 L 1002.265625 499.613281 C 1002.289062 499.605469 1002.3125 499.597656 1002.339844 499.59375 L 1002.890625 499.523438 C 1003.523438 499.285156 1004.726562 500 1005.035156 501.179688 C 1005.339844 502.363281 1004.628906 503.570312 1003.445312 503.875 Z M 1003.445312 503.875 " fill-opacity="1" fill-rule="nonzero"/><path fill="#1f1f1f" d="M 993.785156 480.121094 C 995.5625 480.105469 998.578125 480.703125 1002.828125 481.914062 L 1002.859375 481.921875 C 1005.671875 482.769531 1008.019531 483.714844 1009.90625 484.757812 C 1010.976562 485.347656 1011.367188 486.695312 1010.773438 487.761719 C 1010.183594 488.832031 1008.835938 489.21875 1007.769531 488.628906 C 1006.15625 487.738281 1004.09375 486.914062 1001.585938 486.160156 L 1001.617188 486.167969 C 997.773438 485.074219 995.175781 484.53125 993.820312 484.542969 C 992.597656 484.554688 991.601562 483.570312 991.589844 482.351562 C 991.578125 481.128906 992.5625 480.128906 993.785156 480.121094 Z M 993.785156 480.121094 " fill-opacity="1" fill-rule="nonzero"/><path fill="#1f1f1f" d="M 969.910156 500.804688 C 970.15625 500.765625 970.335938 500.679688 970.445312 500.546875 L 970.449219 500.546875 C 970.445312 500.546875 970.445312 500.550781 970.445312 500.550781 L 970.488281 500.492188 C 970.507812 500.464844 970.523438 500.441406 970.53125 500.421875 C 970.5 500.488281 970.46875 500.605469 970.433594 500.777344 L 970.441406 500.746094 C 970.445312 500.714844 970.445312 500.691406 970.441406 500.671875 C 970.449219 500.691406 970.460938 500.722656 970.484375 500.765625 L 970.261719 500.417969 C 969.507812 499.449219 968.621094 499.355469 967.601562 500.148438 C 967.464844 500.253906 967.355469 500.367188 967.269531 500.492188 C 967.960938 499.484375 969.335938 499.230469 970.34375 499.917969 C 971.351562 500.609375 971.609375 501.988281 970.917969 502.996094 C 970.742188 503.25 970.539062 503.46875 970.3125 503.644531 C 969 504.660156 967.820312 504.488281 966.765625 503.128906 C 966.679688 503.019531 966.605469 502.902344 966.542969 502.78125 C 966.34375 502.386719 966.199219 501.988281 966.113281 501.582031 C 966 501.042969 965.988281 500.503906 966.085938 499.96875 L 966.089844 499.9375 C 966.199219 499.390625 966.347656 498.910156 966.546875 498.5 C 966.65625 498.277344 966.777344 498.066406 966.917969 497.878906 L 966.960938 497.824219 C 966.976562 497.800781 966.996094 497.777344 967.011719 497.757812 C 967.625 497.003906 968.367188 496.5625 969.246094 496.429688 C 970.457031 496.25 971.582031 497.078125 971.765625 498.289062 C 971.949219 499.496094 971.117188 500.621094 969.90625 500.804688 Z M 969.910156 500.804688 " fill-opacity="1" fill-rule="nonzero"/><path fill="#1f1f1f" d="M 973.84375 484.523438 C 971.351562 485.828125 969.515625 486.980469 968.34375 487.984375 L 968.363281 487.96875 C 966.855469 489.28125 965.546875 490.707031 964.4375 492.246094 C 963.722656 493.234375 962.339844 493.460938 961.347656 492.746094 C 960.359375 492.03125 960.132812 490.648438 960.847656 489.65625 C 962.160156 487.84375 963.695312 486.167969 965.457031 484.632812 L 965.472656 484.617188 C 966.898438 483.402344 969.003906 482.0625 971.796875 480.605469 C 972.878906 480.039062 974.214844 480.457031 974.78125 481.539062 C 975.347656 482.621094 974.929688 483.957031 973.84375 484.523438 Z M 973.84375 484.523438 " fill-opacity="1" fill-rule="nonzero"/><path fill="#1f1f1f" d="M 1048.183594 509.675781 C 1046.121094 509.828125 1044.332031 511.734375 1042.816406 515.394531 C 1042.523438 516.097656 1042.246094 516.90625 1041.984375 517.832031 L 1042.003906 517.765625 L 1041.996094 517.789062 C 1041.972656 517.886719 1041.957031 517.957031 1041.949219 518 C 1042.054688 517.246094 1041.714844 516.636719 1040.925781 516.179688 C 1041.09375 516.277344 1041.25 516.398438 1041.390625 516.539062 C 1041.011719 516.15625 1040.613281 515.972656 1040.195312 515.996094 L 1039.816406 516.046875 C 1041.066406 515.761719 1042.394531 515.636719 1043.796875 515.667969 C 1045.015625 515.691406 1045.984375 516.703125 1045.957031 517.925781 C 1045.933594 519.148438 1044.921875 520.117188 1043.699219 520.089844 C 1042.660156 520.066406 1041.691406 520.15625 1040.792969 520.363281 C 1040.667969 520.390625 1040.542969 520.40625 1040.414062 520.414062 C 1039.511719 520.457031 1038.785156 520.203125 1038.234375 519.644531 L 1038.699219 520.003906 C 1037.773438 519.464844 1037.398438 518.589844 1037.570312 517.378906 C 1037.597656 517.171875 1037.648438 516.933594 1037.714844 516.671875 L 1037.710938 516.695312 L 1037.710938 516.691406 L 1037.730469 516.625 C 1038.039062 515.535156 1038.371094 514.5625 1038.726562 513.699219 L 1038.726562 513.703125 C 1040.9375 508.363281 1043.980469 505.550781 1047.855469 505.261719 C 1049.074219 505.171875 1050.136719 506.089844 1050.226562 507.308594 C 1050.316406 508.523438 1049.402344 509.585938 1048.183594 509.675781 Z M 1048.183594 509.675781 " fill-opacity="1" fill-rule="nonzero"/><path fill="#1f1f1f" d="M 1052.84375 565.894531 C 1053.613281 565.90625 1054.390625 565.949219 1055.179688 566.019531 L 1055.183594 566.019531 C 1056.066406 566.101562 1056.765625 566.167969 1057.277344 566.222656 L 1057.292969 566.226562 C 1059.910156 566.527344 1061.648438 566.71875 1062.507812 566.792969 L 1062.5 566.792969 C 1067.9375 567.257812 1070.867188 567.496094 1071.296875 567.507812 L 1071.292969 567.507812 C 1071.289062 567.507812 1071.289062 567.507812 1071.285156 567.507812 C 1071.339844 567.507812 1071.390625 567.511719 1071.441406 567.515625 C 1071.703125 567.539062 1071.910156 567.5625 1072.070312 567.589844 L 1072.066406 567.585938 C 1072.082031 567.589844 1072.09375 567.59375 1072.105469 567.59375 C 1073.3125 567.800781 1074.121094 568.945312 1073.914062 570.148438 C 1073.707031 571.351562 1072.5625 572.164062 1071.359375 571.953125 C 1071.359375 571.953125 1071.359375 571.957031 1071.359375 571.957031 L 1071.355469 571.953125 C 1071.304688 571.945312 1071.207031 571.9375 1071.054688 571.921875 L 1071.210938 571.929688 C 1071.199219 571.929688 1071.183594 571.929688 1071.167969 571.929688 L 1071.164062 571.929688 C 1070.652344 571.914062 1067.640625 571.671875 1062.125 571.199219 L 1062.121094 571.199219 C 1061.214844 571.121094 1059.4375 570.925781 1056.785156 570.621094 L 1056.800781 570.621094 C 1056.320312 570.570312 1055.644531 570.503906 1054.78125 570.425781 L 1054.785156 570.425781 C 1054.101562 570.363281 1053.429688 570.328125 1052.769531 570.316406 C 1051.550781 570.296875 1050.574219 569.292969 1050.59375 568.070312 C 1050.613281 566.847656 1051.621094 565.875 1052.84375 565.894531 Z M 1052.84375 565.894531 " fill-opacity="1" fill-rule="nonzero"/><path fill="#1f1f1f" d="M 1034.746094 662.355469 C 1021.679688 664.058594 1011.316406 664.539062 1003.648438 663.796875 L 1003.574219 663.789062 C 991.550781 662.21875 981.3125 659.152344 972.859375 654.59375 C 971.785156 654.015625 971.382812 652.671875 971.964844 651.597656 C 972.542969 650.523438 973.886719 650.121094 974.960938 650.699219 C 982.933594 655 992.664062 657.902344 1004.148438 659.402344 L 1004.074219 659.394531 C 1011.40625 660.105469 1021.441406 659.628906 1034.171875 657.96875 C 1035.382812 657.808594 1036.496094 658.664062 1036.652344 659.875 C 1036.808594 661.085938 1035.957031 662.195312 1034.746094 662.355469 Z M 1034.746094 662.355469 " fill-opacity="1" fill-rule="nonzero"/><path fill="#1f1f1f" d="M 745.6875 733.921875 C 733.25 716.210938 725.65625 706.351562 722.90625 704.335938 C 722.835938 704.285156 722.765625 704.230469 722.703125 704.171875 C 714.039062 696.105469 705.53125 690.183594 697.179688 686.40625 L 697.132812 686.382812 C 684.015625 680.066406 666.902344 680.765625 645.785156 688.476562 L 645.84375 688.453125 C 621.054688 698.296875 605.8125 711.886719 600.117188 729.226562 L 600.140625 729.15625 C 596.109375 742.960938 595.183594 754.578125 597.355469 764 L 597.339844 763.9375 C 599.429688 771.933594 604.828125 776.375 613.535156 777.261719 C 614.75 777.386719 615.636719 778.472656 615.511719 779.6875 C 615.386719 780.902344 614.300781 781.785156 613.085938 781.664062 C 602.34375 780.570312 595.667969 775.035156 593.058594 765.054688 L 593.046875 764.992188 C 590.699219 754.820312 591.648438 742.460938 595.894531 727.914062 L 595.914062 727.84375 C 602.042969 709.195312 618.140625 694.695312 644.210938 684.34375 L 644.265625 684.320312 C 666.554688 676.183594 684.816406 675.542969 699.050781 682.398438 L 699.003906 682.375 C 707.792969 686.351562 716.699219 692.539062 725.71875 700.933594 L 725.515625 700.769531 C 728.660156 703.066406 736.589844 713.273438 749.308594 731.378906 C 750.011719 732.378906 749.769531 733.761719 748.769531 734.460938 C 747.769531 735.164062 746.390625 734.921875 745.6875 733.921875 Z M 745.6875 733.921875 " fill-opacity="1" fill-rule="nonzero"/><path fill="#1f1f1f" d="M 640.542969 720.023438 C 635.367188 726.503906 631.097656 733.960938 627.734375 742.394531 L 627.707031 742.453125 C 623.0625 753.191406 620.554688 761.902344 620.179688 768.585938 L 620.179688 768.570312 C 619.871094 774.847656 621.039062 778.878906 623.683594 780.660156 L 623.792969 780.738281 C 625.679688 782.1875 629.363281 781.179688 634.84375 777.714844 C 635.875 777.0625 637.242188 777.367188 637.894531 778.402344 C 638.550781 779.433594 638.242188 780.800781 637.207031 781.453125 C 629.988281 786.019531 624.617188 786.949219 621.097656 784.246094 L 621.210938 784.328125 C 617.1875 781.617188 615.371094 776.292969 615.761719 768.355469 L 615.761719 768.339844 C 616.164062 761.132812 618.792969 751.917969 623.648438 740.695312 L 623.625 740.753906 C 627.148438 731.914062 631.636719 724.082031 637.085938 717.261719 C 637.847656 716.304688 639.238281 716.148438 640.195312 716.914062 C 641.148438 717.675781 641.304688 719.066406 640.542969 720.023438 Z M 640.542969 720.023438 " fill-opacity="1" fill-rule="nonzero"/><path fill="#1f1f1f" d="M 666.089844 719.390625 C 658.066406 730.082031 651.632812 743.050781 646.777344 758.304688 L 646.808594 758.207031 C 643.324219 771.191406 643.453125 778.648438 647.195312 780.582031 L 647.085938 780.527344 C 649.515625 781.617188 652.417969 780.539062 655.796875 777.296875 L 655.710938 777.382812 C 661.09375 771.617188 668.855469 762.257812 678.996094 749.308594 L 679.070312 749.222656 C 688.371094 738.5 693.535156 732.703125 694.558594 731.828125 C 694.855469 731.574219 695.164062 731.394531 695.476562 731.296875 C 696.644531 730.933594 697.882812 731.585938 698.246094 732.753906 C 698.609375 733.917969 697.960938 735.160156 696.792969 735.523438 C 697.058594 735.441406 697.273438 735.328125 697.4375 735.1875 C 696.578125 735.921875 691.570312 741.566406 682.410156 752.121094 L 682.480469 752.035156 C 672.261719 765.085938 664.414062 774.542969 658.945312 780.402344 L 658.863281 780.488281 C 654.050781 785.109375 649.519531 786.46875 645.273438 784.566406 L 645.164062 784.511719 C 639.3125 781.492188 638.433594 772.339844 642.535156 757.058594 L 642.5625 756.960938 C 647.566406 741.234375 654.230469 727.828125 662.546875 716.738281 C 663.28125 715.757812 664.667969 715.5625 665.644531 716.292969 C 666.625 717.027344 666.820312 718.414062 666.089844 719.390625 Z M 666.089844 719.390625 " fill-opacity="1" fill-rule="nonzero"/><path fill="#1f1f1f" d="M 707.402344 722.230469 C 701.21875 727.605469 696.808594 733.972656 694.167969 741.335938 L 694.171875 741.324219 C 692.792969 745.222656 692.160156 749.617188 692.273438 754.503906 L 692.273438 754.515625 C 692.304688 756.308594 692.648438 757.308594 693.304688 757.515625 L 692.96875 757.4375 C 695.066406 757.753906 698.328125 755.664062 702.761719 751.175781 L 702.742188 751.195312 C 709.121094 744.585938 713.980469 739.351562 717.316406 735.492188 C 717.382812 735.417969 717.453125 735.347656 717.527344 735.28125 L 717.53125 735.277344 C 717.519531 735.289062 717.511719 735.292969 717.507812 735.300781 C 718.164062 734.65625 720.714844 731.097656 725.152344 724.625 C 725.84375 723.617188 727.222656 723.359375 728.230469 724.054688 C 729.238281 724.742188 729.492188 726.121094 728.800781 727.128906 C 724.199219 733.835938 721.46875 737.613281 720.605469 738.460938 L 720.601562 738.460938 C 720.550781 738.511719 720.5 738.558594 720.453125 738.601562 L 720.664062 738.386719 C 717.273438 742.308594 712.359375 747.601562 705.925781 754.265625 L 705.910156 754.285156 C 700.421875 759.84375 695.890625 762.351562 692.308594 761.8125 C 692.195312 761.796875 692.082031 761.769531 691.972656 761.734375 C 689.292969 760.886719 687.921875 758.507812 687.847656 754.597656 L 687.847656 754.609375 C 687.722656 749.179688 688.441406 744.257812 690 739.851562 L 690.003906 739.839844 C 692.902344 731.753906 697.738281 724.769531 704.503906 718.890625 C 705.425781 718.089844 706.820312 718.1875 707.621094 719.109375 C 708.425781 720.035156 708.328125 721.429688 707.402344 722.230469 Z M 707.402344 722.230469 " fill-opacity="1" fill-rule="nonzero"/><path fill="#1f1f1f" d="M 722.949219 729.488281 L 722.945312 729.488281 C 723.050781 729.457031 723.164062 729.433594 723.285156 729.410156 C 724.222656 729.25 726.730469 729.261719 730.800781 729.449219 L 730.53125 729.453125 C 730.601562 729.445312 730.679688 729.445312 730.761719 729.445312 L 730.765625 729.445312 C 731.707031 729.441406 738.613281 729.957031 751.484375 730.984375 L 751.453125 730.980469 L 762.601562 731.703125 L 762.550781 731.699219 C 767.03125 731.886719 776.410156 732.324219 790.691406 733.015625 L 790.722656 733.019531 C 796.433594 733.375 807.335938 733.976562 823.433594 734.824219 L 823.390625 734.820312 L 823.410156 734.820312 L 823.402344 734.820312 C 827.128906 734.9375 830.082031 735 832.261719 735.003906 L 832.273438 735.003906 C 833.546875 735.015625 834.671875 735.015625 835.65625 735.007812 L 835.621094 735.007812 C 839.304688 734.925781 842.851562 734.894531 846.253906 734.910156 L 846.277344 734.910156 L 857.40625 735.074219 L 857.480469 735.078125 L 869.875 735.671875 L 869.851562 735.671875 C 872.308594 735.761719 874.675781 735.8125 876.960938 735.828125 C 877.019531 735.828125 877.082031 735.832031 877.144531 735.835938 L 876.945312 735.828125 L 877.144531 735.835938 C 877.796875 735.898438 880.523438 735.804688 885.320312 735.558594 C 886.542969 735.496094 887.582031 736.433594 887.644531 737.65625 C 887.707031 738.875 886.765625 739.914062 885.546875 739.976562 C 880.539062 740.234375 877.605469 740.320312 876.746094 740.242188 L 876.945312 740.253906 L 876.929688 740.253906 C 874.605469 740.238281 872.195312 740.183594 869.691406 740.09375 L 869.664062 740.09375 L 857.265625 739.496094 L 857.339844 739.5 L 846.210938 739.335938 L 846.234375 739.335938 C 842.875 739.316406 839.371094 739.351562 835.722656 739.433594 L 835.6875 739.433594 C 834.683594 739.441406 833.535156 739.4375 832.242188 739.429688 L 832.25 739.429688 C 830.023438 739.425781 827.027344 739.363281 823.265625 739.246094 L 823.261719 739.242188 L 823.203125 739.242188 C 807.089844 738.394531 796.171875 737.792969 790.449219 737.433594 L 790.480469 737.4375 C 776.214844 736.746094 766.84375 736.304688 762.367188 736.121094 L 762.316406 736.117188 L 751.167969 735.398438 L 751.132812 735.394531 C 738.378906 734.375 731.59375 733.867188 730.773438 733.867188 L 730.777344 733.867188 C 730.800781 733.867188 730.832031 733.867188 730.871094 733.863281 C 730.777344 733.871094 730.6875 733.871094 730.597656 733.867188 C 726.847656 733.695312 724.664062 733.664062 724.042969 733.769531 C 724.0625 733.769531 724.085938 733.761719 724.117188 733.753906 C 722.9375 734.078125 721.71875 733.382812 721.398438 732.203125 C 721.074219 731.027344 721.769531 729.808594 722.949219 729.488281 Z M 722.949219 729.488281 " fill-opacity="1" fill-rule="nonzero"/><path fill="#1f1f1f" d="M 545.351562 734.074219 C 545.378906 734.0625 545.40625 734.050781 545.433594 734.039062 L 545.4375 734.039062 C 546.90625 733.410156 551.222656 732.925781 558.386719 732.582031 L 558.371094 732.582031 C 563.101562 732.316406 570.273438 732.003906 579.890625 731.636719 L 579.914062 731.636719 C 581.710938 731.585938 584.585938 731.542969 588.535156 731.507812 L 588.5 731.507812 C 589.71875 731.476562 590.511719 731.460938 590.886719 731.457031 L 590.890625 731.457031 C 592.671875 731.441406 593.882812 731.441406 594.511719 731.453125 C 595.734375 731.476562 596.707031 732.484375 596.683594 733.707031 C 596.660156 734.929688 595.648438 735.898438 594.429688 735.875 C 593.832031 735.863281 592.667969 735.867188 590.925781 735.878906 L 590.929688 735.878906 C 590.582031 735.882812 589.808594 735.902344 588.609375 735.929688 L 588.574219 735.929688 C 584.652344 735.96875 581.808594 736.011719 580.035156 736.058594 L 580.058594 736.058594 C 570.46875 736.421875 563.320312 736.738281 558.617188 737 L 558.601562 737 C 551.964844 737.320312 548.15625 737.6875 547.175781 738.105469 C 546.0625 738.609375 544.753906 738.113281 544.25 737 C 543.746094 735.890625 544.238281 734.578125 545.351562 734.074219 Z M 545.351562 734.074219 " fill-opacity="1" fill-rule="nonzero"/><path fill="#1f1f1f" d="M 1134.878906 942.558594 C 1098.503906 947.074219 1054.734375 956.960938 1003.570312 972.222656 L 1003.523438 972.234375 C 978.492188 979.101562 946.851562 991.363281 908.601562 1009.019531 C 856.984375 1032.90625 817.355469 1056.601562 789.710938 1080.097656 C 789.644531 1080.152344 789.578125 1080.203125 789.507812 1080.25 C 776.835938 1088.726562 772.539062 1096.019531 776.625 1102.121094 C 778.085938 1104.308594 780.5625 1106.4375 784.046875 1108.507812 C 785.097656 1109.132812 785.441406 1110.488281 784.820312 1111.539062 C 784.195312 1112.589844 782.835938 1112.933594 781.789062 1112.3125 C 777.726562 1109.898438 774.78125 1107.324219 772.945312 1104.582031 C 767.222656 1096.027344 771.921875 1086.691406 787.046875 1076.570312 L 786.84375 1076.726562 C 814.796875 1052.96875 854.761719 1029.0625 906.746094 1005.003906 C 945.21875 987.242188 977.085938 974.898438 1002.351562 967.96875 L 1002.304688 967.984375 C 1053.703125 952.652344 1097.714844 942.710938 1134.332031 938.167969 C 1135.546875 938.019531 1136.648438 938.878906 1136.800781 940.089844 C 1136.949219 941.304688 1136.089844 942.410156 1134.878906 942.558594 Z M 1134.878906 942.558594 " fill-opacity="1" fill-rule="nonzero"/><path fill="#1f1f1f" d="M 859.316406 1071.328125 C 846.03125 1075.429688 831.449219 1081.671875 815.5625 1090.050781 L 815.578125 1090.042969 C 806.714844 1094.808594 798.078125 1101.230469 789.675781 1109.304688 L 789.683594 1109.296875 C 786.40625 1112.484375 785.523438 1114.855469 787.03125 1116.402344 C 787.363281 1116.746094 787.796875 1117.078125 788.328125 1117.402344 L 788.214844 1117.339844 C 788.820312 1117.660156 790.328125 1117.808594 792.734375 1117.78125 L 792.664062 1117.78125 C 804.53125 1117.25 810.976562 1116.878906 811.996094 1116.679688 L 812 1116.679688 C 810.875 1116.902344 810.339844 1117.636719 810.394531 1118.882812 L 810.394531 1118.894531 C 810.40625 1119.121094 810.453125 1119.34375 810.53125 1119.558594 C 810.101562 1118.414062 810.683594 1117.136719 811.824219 1116.710938 C 812.96875 1116.28125 814.246094 1116.859375 814.675781 1118.003906 C 814.753906 1118.21875 814.800781 1118.441406 814.8125 1118.671875 L 814.8125 1118.6875 C 814.871094 1119.972656 814.21875 1120.75 812.855469 1121.019531 C 811.617188 1121.265625 804.953125 1121.65625 792.859375 1122.203125 L 792.785156 1122.203125 C 789.625 1122.242188 787.40625 1121.921875 786.136719 1121.246094 L 786.019531 1121.179688 C 785.171875 1120.660156 784.453125 1120.097656 783.859375 1119.488281 C 780.296875 1115.824219 781.207031 1111.371094 786.597656 1106.125 L 786.609375 1106.117188 C 795.304688 1097.757812 804.261719 1091.101562 813.484375 1086.144531 L 813.5 1086.136719 C 829.625 1077.628906 844.464844 1071.285156 858.011719 1067.101562 C 859.179688 1066.742188 860.417969 1067.394531 860.777344 1068.5625 C 861.136719 1069.730469 860.484375 1070.96875 859.316406 1071.328125 Z M 859.316406 1071.328125 " fill-opacity="1" fill-rule="nonzero"/><g clip-path="url(#9dd111ec58)"><path fill="#1f1f1f" d="M 874.746094 1080.304688 C 832.550781 1098.300781 813.464844 1112.023438 817.496094 1121.472656 C 817.757812 1122.089844 818.132812 1122.699219 818.613281 1123.300781 L 817.886719 1122.710938 C 817.886719 1122.710938 817.886719 1122.710938 817.890625 1122.710938 L 817.886719 1122.710938 C 818.546875 1123.023438 820.429688 1123.117188 823.542969 1122.996094 L 823.441406 1123 C 846.039062 1121.050781 884.976562 1119.078125 940.242188 1117.085938 L 940.308594 1117.085938 L 974.101562 1116.867188 L 974.171875 1116.867188 L 982.949219 1117.09375 C 984.171875 1117.125 985.136719 1118.140625 985.105469 1119.359375 C 985.074219 1120.582031 984.058594 1121.546875 982.835938 1121.515625 L 974.058594 1121.289062 L 974.128906 1121.292969 L 940.335938 1121.507812 L 940.402344 1121.507812 C 885.207031 1123.5 846.34375 1125.464844 823.820312 1127.410156 L 823.714844 1127.417969 C 819.878906 1127.566406 817.308594 1127.332031 815.996094 1126.710938 C 815.960938 1126.691406 815.921875 1126.675781 815.882812 1126.65625 C 815.597656 1126.511719 815.355469 1126.308594 815.15625 1126.0625 C 814.425781 1125.148438 813.847656 1124.195312 813.425781 1123.210938 C 808.238281 1111.046875 828.101562 1095.386719 873.011719 1076.238281 C 874.132812 1075.757812 875.433594 1076.28125 875.914062 1077.402344 C 876.390625 1078.527344 875.867188 1079.828125 874.746094 1080.304688 Z M 874.746094 1080.304688 " fill-opacity="1" fill-rule="nonzero"/></g><path fill="#1f1f1f" d="M 1012.753906 1091.109375 C 1012 1091.457031 1011.433594 1092.074219 1011.058594 1092.964844 L 1011.019531 1093.050781 C 1010.921875 1093.257812 1010.871094 1093.40625 1010.871094 1093.496094 C 1010.871094 1093.449219 1010.859375 1093.410156 1010.832031 1093.375 C 1010.835938 1093.378906 1010.84375 1093.386719 1010.859375 1093.402344 L 1010.695312 1093.257812 C 1010.617188 1093.195312 1010.539062 1093.164062 1010.46875 1093.160156 C 1010.570312 1093.164062 1010.742188 1093.121094 1010.984375 1093.027344 L 1010.929688 1093.050781 C 1011.582031 1092.78125 1012.066406 1092.394531 1012.382812 1091.898438 L 1012.300781 1092.042969 C 1012.460938 1091.738281 1012.496094 1091.492188 1012.402344 1091.296875 L 1012.390625 1091.273438 L 1012.390625 1091.269531 C 1012.582031 1091.664062 1012.894531 1091.816406 1013.324219 1091.722656 C 1013.3125 1091.722656 1013.289062 1091.730469 1013.261719 1091.742188 C 1012.117188 1092.160156 1010.84375 1091.570312 1010.425781 1090.421875 C 1010.003906 1089.277344 1010.59375 1088.007812 1011.742188 1087.585938 C 1011.960938 1087.507812 1012.175781 1087.445312 1012.386719 1087.398438 C 1014.21875 1087 1015.542969 1087.644531 1016.363281 1089.328125 L 1016.363281 1089.324219 C 1016.375 1089.351562 1016.390625 1089.378906 1016.402344 1089.410156 L 1016.394531 1089.386719 C 1017.128906 1090.921875 1017.066406 1092.503906 1016.207031 1094.121094 C 1016.179688 1094.171875 1016.152344 1094.222656 1016.121094 1094.269531 C 1015.304688 1095.554688 1014.136719 1096.515625 1012.617188 1097.140625 L 1012.5625 1097.164062 C 1011.726562 1097.480469 1010.9375 1097.621094 1010.203125 1097.574219 C 1009.347656 1097.523438 1008.597656 1097.242188 1007.949219 1096.730469 C 1007.894531 1096.683594 1007.839844 1096.636719 1007.789062 1096.585938 C 1007.597656 1096.40625 1007.429688 1096.210938 1007.277344 1096.007812 C 1006.738281 1095.28125 1006.460938 1094.464844 1006.449219 1093.558594 C 1006.4375 1092.78125 1006.628906 1091.980469 1007.023438 1091.152344 L 1006.984375 1091.238281 C 1007.808594 1089.292969 1009.117188 1087.910156 1010.914062 1087.089844 C 1012.027344 1086.582031 1013.339844 1087.070312 1013.847656 1088.179688 C 1014.355469 1089.292969 1013.867188 1090.605469 1012.753906 1091.113281 Z M 1012.753906 1091.109375 " fill-opacity="1" fill-rule="nonzero"/><path fill="#1f1f1f" d="M 1122.449219 734.28125 C 1115.992188 758.234375 1111.84375 785.660156 1110.007812 816.5625 L 1110.011719 816.527344 C 1109.265625 833.59375 1109.132812 847.234375 1109.605469 857.4375 C 1109.609375 857.574219 1109.605469 857.707031 1109.585938 857.84375 C 1109.59375 857.800781 1109.59375 857.765625 1109.597656 857.738281 C 1109.542969 858.789062 1110 867.085938 1110.964844 882.621094 L 1110.96875 882.695312 C 1111.433594 899.574219 1111.71875 908.496094 1111.832031 909.460938 L 1111.832031 909.464844 C 1111.832031 909.460938 1111.828125 909.453125 1111.828125 909.449219 C 1111.835938 909.503906 1111.84375 909.5625 1111.84375 909.617188 L 1111.847656 909.625 L 1111.847656 909.628906 L 1111.84375 909.621094 C 1112.222656 916.074219 1112.886719 925.914062 1113.839844 939.144531 C 1113.929688 940.363281 1113.011719 941.421875 1111.792969 941.507812 C 1110.574219 941.597656 1109.515625 940.679688 1109.429688 939.460938 C 1108.472656 926.214844 1107.808594 916.355469 1107.429688 909.882812 L 1107.429688 909.871094 L 1107.445312 910.046875 C 1107.441406 910.019531 1107.4375 909.988281 1107.433594 909.960938 C 1107.308594 908.871094 1107.015625 899.820312 1106.546875 882.820312 L 1106.550781 882.894531 C 1105.574219 867.191406 1105.117188 858.734375 1105.179688 857.519531 C 1105.183594 857.417969 1105.191406 857.320312 1105.203125 857.234375 L 1105.183594 857.640625 C 1104.707031 847.304688 1104.839844 833.535156 1105.589844 816.332031 L 1105.59375 816.296875 C 1107.445312 785.097656 1111.640625 757.375 1118.175781 733.128906 C 1118.496094 731.949219 1119.710938 731.25 1120.886719 731.566406 C 1122.070312 731.886719 1122.765625 733.101562 1122.449219 734.28125 Z M 1122.449219 734.28125 " fill-opacity="1" fill-rule="nonzero"/><path fill="#1f1f1f" d="M 1112.695312 724.449219 C 1109.542969 728.25 1106.976562 734.648438 1104.992188 743.648438 C 1104.730469 744.839844 1103.550781 745.59375 1102.355469 745.332031 C 1101.164062 745.066406 1100.410156 743.886719 1100.671875 742.695312 C 1102.808594 733 1105.683594 725.976562 1109.289062 721.625 C 1110.070312 720.683594 1111.464844 720.554688 1112.40625 721.335938 C 1113.34375 722.117188 1113.476562 723.511719 1112.695312 724.449219 Z M 1112.695312 724.449219 " fill-opacity="1" fill-rule="nonzero"/><path fill="#1f1f1f" d="M 885.257812 1012.609375 C 885.425781 1007.605469 885.574219 1004.304688 885.703125 1002.707031 L 885.703125 1002.679688 L 885.703125 1002.695312 C 886.316406 995.15625 886.835938 988.085938 887.261719 981.476562 L 887.261719 981.488281 L 887.261719 981.476562 L 887.261719 981.484375 C 887.632812 974.867188 887.863281 970.0625 887.953125 967.078125 L 887.953125 967.089844 L 887.953125 967.0625 C 888.085938 961.828125 888.167969 957.992188 888.199219 955.546875 L 888.199219 955.566406 C 888.261719 943.078125 888.5625 921.257812 889.097656 890.097656 L 889.097656 890.105469 C 889.136719 886.945312 889.253906 881.242188 889.449219 872.992188 C 889.746094 860.457031 889.972656 852.035156 890.121094 847.730469 L 890.121094 847.710938 C 890.988281 827.992188 891.476562 815.234375 891.585938 809.4375 L 891.585938 809.429688 C 891.753906 802.140625 891.8125 793.996094 891.769531 785 C 891.640625 763.265625 891.46875 747.417969 891.253906 737.457031 C 891.230469 736.234375 892.199219 735.222656 893.417969 735.199219 C 894.640625 735.171875 895.652344 736.140625 895.679688 737.363281 C 895.894531 747.34375 896.066406 763.214844 896.191406 784.972656 L 896.191406 784.976562 C 896.238281 794.015625 896.175781 802.199219 896.007812 809.53125 L 896.007812 809.519531 C 895.898438 815.351562 895.410156 828.144531 894.542969 847.902344 L 894.542969 847.882812 C 894.394531 852.171875 894.171875 860.574219 893.871094 873.097656 C 893.675781 881.324219 893.558594 887.011719 893.519531 890.160156 L 893.519531 890.171875 C 892.984375 921.308594 892.6875 943.113281 892.625 955.585938 L 892.625 955.601562 C 892.589844 958.070312 892.507812 961.929688 892.375 967.175781 L 892.375 967.210938 C 892.285156 970.234375 892.050781 975.074219 891.679688 981.730469 L 891.679688 981.75 L 891.675781 981.761719 C 891.25 988.394531 890.726562 995.492188 890.113281 1003.054688 L 890.109375 1003.070312 L 890.109375 1003.078125 L 890.109375 1003.0625 C 889.988281 1004.59375 889.84375 1007.824219 889.679688 1012.757812 C 889.640625 1013.976562 888.617188 1014.933594 887.394531 1014.894531 C 886.175781 1014.855469 885.21875 1013.832031 885.257812 1012.609375 Z M 885.257812 1012.609375 " fill-opacity="1" fill-rule="nonzero"/><path fill="#1f1f1f" d="M 875.160156 750.160156 L 875.160156 750.15625 L 875.160156 750.164062 C 874.921875 754.882812 874.742188 759.648438 874.617188 764.449219 L 874.621094 764.417969 L 874.304688 790.761719 L 874.304688 790.769531 C 874.136719 800.964844 873.90625 808.898438 873.621094 814.574219 L 873.617188 814.589844 L 870.910156 860.949219 L 870.910156 860.917969 L 869.523438 892.101562 L 869.523438 892.109375 C 869.289062 897.042969 868.6875 905.511719 867.71875 917.515625 L 867.722656 917.488281 C 866.742188 931.960938 866.269531 939.792969 866.3125 940.980469 C 866.3125 941.042969 866.3125 941.101562 866.3125 941.160156 C 866.082031 945.988281 865.941406 952.851562 865.878906 961.753906 C 865.878906 961.8125 865.875 961.871094 865.871094 961.929688 L 865.871094 961.933594 C 865.871094 961.921875 865.871094 961.910156 865.871094 961.90625 C 865.820312 962.855469 866.035156 971.613281 866.511719 988.1875 L 866.511719 988.253906 L 866.511719 988.195312 C 866.5625 990.148438 866.574219 991.875 866.550781 993.378906 L 866.550781 993.324219 C 866.578125 996.296875 866.230469 1001.40625 865.511719 1008.652344 C 865.390625 1009.867188 864.308594 1010.757812 863.09375 1010.636719 C 861.878906 1010.515625 860.988281 1009.433594 861.109375 1008.214844 C 861.8125 1001.128906 862.152344 996.179688 862.125 993.363281 L 862.125 993.308594 C 862.148438 991.867188 862.136719 990.199219 862.085938 988.308594 L 862.085938 988.25 L 862.089844 988.3125 C 861.609375 971.617188 861.398438 962.734375 861.457031 961.664062 C 861.457031 961.621094 861.460938 961.582031 861.464844 961.542969 L 861.457031 961.722656 C 861.515625 952.761719 861.660156 945.839844 861.890625 940.953125 L 861.890625 941.132812 C 861.84375 939.792969 862.316406 931.8125 863.308594 917.1875 L 863.308594 917.160156 C 864.273438 905.203125 864.871094 896.785156 865.105469 891.898438 L 865.105469 891.90625 L 866.492188 860.722656 L 866.492188 860.691406 L 869.203125 814.332031 L 869.203125 814.351562 C 869.488281 808.726562 869.714844 800.84375 869.882812 790.695312 L 869.882812 790.707031 L 870.195312 764.367188 L 870.195312 764.335938 C 870.320312 759.496094 870.5 754.699219 870.742188 749.941406 L 870.742188 749.9375 C 870.804688 748.714844 871.84375 747.777344 873.0625 747.835938 C 874.28125 747.898438 875.222656 748.9375 875.160156 750.15625 Z M 875.160156 750.160156 " fill-opacity="1" fill-rule="nonzero"/><g clip-path="url(#98a12a7b2e)"><path fill="#1f1f1f" d="M 545.117188 1041.792969 C 544.914062 1037.429688 544.835938 1034.085938 544.886719 1031.765625 L 544.886719 1031.757812 L 545.304688 1014.371094 L 545.304688 1014.34375 C 545.714844 1002.890625 545.953125 995.300781 546.015625 991.570312 C 546.046875 989.722656 546.058594 987.835938 546.054688 985.914062 L 546.054688 985.921875 L 545.945312 969.382812 C 545.929688 966.675781 545.890625 964.238281 545.832031 962.066406 L 545.832031 962.074219 L 545.832031 962.0625 L 545.832031 962.070312 C 545.320312 946.324219 545.046875 936.132812 545.015625 931.492188 L 545.015625 931.511719 C 544.917969 925.746094 544.832031 918.4375 544.765625 909.589844 L 544.765625 909.605469 L 544.632812 900.519531 L 544.632812 900.507812 C 544.601562 896.917969 544.613281 890.871094 544.664062 882.371094 L 544.664062 882.382812 C 544.664062 880.917969 544.652344 879.457031 544.632812 878 L 544.632812 877.976562 C 544.628906 876.890625 544.546875 872.71875 544.378906 865.464844 L 544.378906 865.429688 C 544.316406 856.542969 544.269531 851.8125 544.238281 851.242188 L 544.238281 851.148438 C 544.210938 848.875 544 839.050781 543.601562 821.683594 L 543.601562 821.675781 C 543.566406 819.828125 543.550781 818.222656 543.554688 816.859375 L 543.554688 816.863281 C 543.558594 815.125 543.597656 812.464844 543.671875 808.882812 L 543.671875 808.859375 C 543.828125 804.007812 543.980469 797.015625 544.128906 787.878906 L 544.128906 787.8125 L 545.421875 759.789062 L 545.421875 759.785156 C 545.636719 755.160156 545.75 751.839844 545.761719 749.824219 C 545.765625 748.605469 546.761719 747.617188 547.984375 747.625 C 549.207031 747.632812 550.191406 748.625 550.183594 749.847656 C 550.175781 751.925781 550.058594 755.308594 549.839844 759.992188 L 548.550781 788.015625 L 548.550781 787.949219 C 548.402344 797.109375 548.25 804.128906 548.09375 809 L 548.09375 808.976562 C 548.019531 812.527344 547.980469 815.160156 547.980469 816.867188 L 547.980469 816.871094 C 547.976562 818.207031 547.988281 819.78125 548.023438 821.589844 L 548.023438 821.582031 C 548.421875 838.96875 548.636719 848.804688 548.660156 851.097656 L 548.65625 851.003906 C 548.691406 851.644531 548.742188 856.441406 548.804688 865.398438 L 548.800781 865.363281 C 548.96875 872.648438 549.054688 876.847656 549.058594 877.964844 L 549.054688 877.941406 C 549.078125 879.414062 549.085938 880.894531 549.089844 882.382812 L 549.089844 882.394531 C 549.039062 890.878906 549.027344 896.902344 549.058594 900.46875 L 549.058594 900.457031 L 549.1875 909.542969 L 549.1875 909.554688 C 549.257812 918.390625 549.339844 925.683594 549.4375 931.4375 L 549.4375 931.460938 C 549.46875 936.0625 549.742188 946.21875 550.253906 961.925781 L 550.253906 961.945312 C 550.316406 964.148438 550.355469 966.617188 550.371094 969.355469 L 550.480469 985.890625 L 550.480469 985.902344 C 550.484375 987.855469 550.46875 989.769531 550.4375 991.648438 L 550.4375 991.644531 C 550.375 995.40625 550.136719 1003.023438 549.726562 1014.503906 L 549.726562 1014.480469 L 549.308594 1031.867188 L 549.308594 1031.863281 C 549.261719 1034.082031 549.335938 1037.324219 549.539062 1041.585938 C 549.59375 1042.804688 548.652344 1043.839844 547.433594 1043.898438 C 546.210938 1043.957031 545.175781 1043.011719 545.117188 1041.792969 Z M 545.117188 1041.792969 " fill-opacity="1" fill-rule="nonzero"/></g><path fill="#1f1f1f" d="M 555.390625 1044.742188 C 576.308594 1045.917969 595.457031 1046.832031 612.84375 1047.480469 L 612.855469 1047.480469 C 632.550781 1048.308594 663.238281 1049.382812 704.914062 1050.710938 L 704.921875 1050.710938 C 715.539062 1051.085938 725.179688 1051.46875 733.835938 1051.863281 C 784.011719 1054.113281 810.839844 1055.75 814.324219 1056.765625 C 815.496094 1057.109375 816.167969 1058.335938 815.824219 1059.507812 C 815.484375 1060.683594 814.253906 1061.355469 813.082031 1061.011719 C 809.941406 1060.09375 783.457031 1058.519531 733.636719 1056.28125 C 724.988281 1055.890625 715.363281 1055.507812 704.765625 1055.132812 L 704.773438 1055.132812 C 663.085938 1053.804688 632.382812 1052.730469 612.667969 1051.902344 L 612.679688 1051.902344 C 595.25 1051.253906 576.070312 1050.339844 555.144531 1049.160156 C 553.921875 1049.09375 552.992188 1048.046875 553.058594 1046.828125 C 553.128906 1045.609375 554.171875 1044.675781 555.390625 1044.742188 Z M 555.390625 1044.742188 " fill-opacity="1" fill-rule="nonzero"/><path fill="#1f1f1f" d="M 1070.425781 591.324219 C 1049.746094 636.507812 1032.664062 690.5625 1019.179688 753.484375 L 1019.199219 753.367188 C 1007.851562 824.324219 1001.710938 892.464844 1000.773438 957.789062 C 1000.753906 959.011719 999.75 959.984375 998.527344 959.96875 C 997.308594 959.949219 996.332031 958.945312 996.347656 957.726562 C 997.289062 892.1875 1003.449219 823.835938 1014.832031 752.667969 L 1014.851562 752.554688 C 1028.40625 689.320312 1045.589844 634.960938 1066.402344 589.480469 C 1066.910156 588.371094 1068.222656 587.882812 1069.332031 588.390625 C 1070.445312 588.898438 1070.933594 590.210938 1070.425781 591.324219 Z M 1070.425781 591.324219 " fill-opacity="1" fill-rule="nonzero"/><path fill="#1f1f1f" d="M 1010.5625 823.582031 L 1026.949219 797.0625 L 1027.007812 796.972656 C 1054.582031 756.863281 1070.734375 733.910156 1075.46875 728.113281 L 1075.367188 728.25 C 1077.003906 725.894531 1078.199219 723.535156 1078.953125 721.164062 L 1078.949219 721.183594 C 1079.753906 718.578125 1079.414062 715.710938 1077.921875 712.582031 L 1078.148438 712.953125 L 1058.726562 686.925781 L 1058.746094 686.953125 C 1055.8125 683.152344 1055.183594 679.804688 1056.863281 676.90625 C 1057.03125 676.617188 1057.265625 676.367188 1057.546875 676.179688 L 1114.015625 638.425781 L 1114.019531 638.421875 C 1118.394531 635.507812 1120.714844 633.34375 1120.984375 631.933594 C 1121 631.839844 1121.027344 631.746094 1121.054688 631.652344 C 1121.308594 630.894531 1121.082031 629.722656 1120.382812 628.136719 L 1120.699219 628.648438 C 1109.882812 615.503906 1099.375 599.191406 1089.175781 579.710938 C 1088.609375 578.625 1089.027344 577.289062 1090.109375 576.722656 C 1091.191406 576.15625 1092.53125 576.574219 1093.097656 577.65625 C 1103.15625 596.867188 1113.492188 612.929688 1124.113281 625.835938 C 1124.242188 625.992188 1124.347656 626.164062 1124.429688 626.347656 C 1125.589844 628.972656 1125.863281 631.203125 1125.257812 633.042969 L 1125.328125 632.761719 C 1124.828125 635.390625 1121.875 638.503906 1116.472656 642.105469 L 1116.476562 642.101562 L 1060.003906 679.855469 L 1060.691406 679.125 C 1060.003906 680.308594 1060.523438 682.019531 1062.25 684.25 L 1062.269531 684.28125 L 1081.695312 710.308594 C 1081.78125 710.421875 1081.855469 710.546875 1081.917969 710.679688 C 1083.902344 714.847656 1084.324219 718.785156 1083.175781 722.492188 L 1083.167969 722.511719 C 1082.277344 725.300781 1080.890625 728.058594 1079 730.773438 C 1078.96875 730.820312 1078.933594 730.867188 1078.898438 730.910156 C 1074.238281 736.613281 1058.15625 759.472656 1030.652344 799.480469 L 1030.710938 799.390625 L 1014.324219 825.910156 C 1013.683594 826.949219 1012.320312 827.269531 1011.28125 826.628906 C 1010.242188 825.984375 1009.917969 824.621094 1010.5625 823.582031 Z M 1010.5625 823.582031 " fill-opacity="1" fill-rule="nonzero"/><path fill="#1f1f1f" d="M 962.617188 634.402344 C 961.078125 639.820312 959.734375 645.257812 958.582031 650.71875 L 958.589844 650.683594 L 944.828125 721.84375 L 944.839844 721.773438 C 933.382812 793.308594 927.566406 832.066406 927.394531 838.039062 L 927.386719 838.148438 C 924.789062 871.203125 923.53125 895.289062 923.617188 910.402344 L 923.617188 910.457031 C 922.882812 952.363281 923.449219 980.652344 925.3125 995.320312 C 925.46875 996.535156 924.609375 997.640625 923.398438 997.792969 C 922.1875 997.949219 921.078125 997.089844 920.925781 995.878906 C 919.035156 981 918.457031 952.5 919.195312 910.378906 L 919.191406 910.429688 C 919.105469 895.1875 920.367188 870.980469 922.976562 837.800781 L 922.972656 837.910156 C 923.148438 831.746094 928.984375 792.796875 940.472656 721.074219 L 940.484375 721.003906 L 954.246094 649.84375 L 954.253906 649.804688 C 955.425781 644.246094 956.792969 638.707031 958.359375 633.191406 C 958.691406 632.019531 959.917969 631.335938 961.089844 631.667969 C 962.265625 632.003906 962.949219 633.226562 962.617188 634.402344 Z M 962.617188 634.402344 " fill-opacity="1" fill-rule="nonzero"/><path fill="#1f1f1f" d="M 924.617188 791.105469 C 923.21875 788.394531 919.398438 776.832031 913.15625 756.417969 L 913.199219 756.550781 L 901.820312 726.308594 L 901.785156 726.207031 L 896.667969 710.226562 L 896.652344 710.171875 C 896.195312 708.609375 895.964844 707.460938 895.957031 706.722656 C 895.957031 706.539062 895.96875 706.367188 895.988281 706.203125 L 895.96875 706.5625 C 895.894531 704.246094 896.902344 701.976562 898.984375 699.757812 C 899.03125 699.707031 899.085938 699.65625 899.140625 699.605469 C 912.226562 688.15625 922.011719 678.4375 928.492188 670.449219 L 928.09375 671.1875 C 928.449219 670.050781 927.589844 668.152344 925.527344 665.492188 C 925.488281 665.441406 925.453125 665.394531 925.421875 665.34375 C 921.652344 659.558594 914.007812 650.476562 902.480469 638.09375 L 902.410156 638.015625 C 900.789062 636.101562 899.855469 634.324219 899.617188 632.691406 L 899.621094 632.71875 C 899.261719 630.441406 900.6875 627.355469 903.898438 623.460938 L 903.472656 625.457031 C 903.289062 624.789062 903.414062 624.121094 903.847656 623.457031 C 904.75 622.074219 911.109375 615.203125 922.925781 602.832031 C 923.769531 601.949219 925.171875 601.917969 926.054688 602.761719 C 926.9375 603.605469 926.96875 605.003906 926.125 605.886719 C 914.496094 618.0625 908.304688 624.722656 907.550781 625.875 C 907.84375 625.425781 907.90625 624.894531 907.738281 624.28125 C 907.929688 624.976562 907.769531 625.71875 907.3125 626.277344 C 904.945312 629.144531 903.839844 631.0625 903.992188 632.023438 L 903.996094 632.050781 C 904.113281 632.851562 904.710938 633.886719 905.785156 635.15625 L 905.714844 635.078125 C 917.417969 647.648438 925.222656 656.929688 929.128906 662.925781 L 929.023438 662.777344 C 932.027344 666.652344 933.128906 669.890625 932.320312 672.496094 C 932.238281 672.765625 932.105469 673.019531 931.925781 673.238281 C 925.289062 681.417969 915.332031 691.320312 902.050781 702.9375 L 902.210938 702.785156 C 900.960938 704.113281 900.355469 705.324219 900.390625 706.421875 C 900.394531 706.542969 900.390625 706.660156 900.375 706.78125 C 900.378906 706.738281 900.382812 706.707031 900.382812 706.683594 C 900.386719 707.011719 900.558594 707.761719 900.898438 708.933594 L 900.882812 708.878906 L 905.996094 724.855469 L 905.960938 724.753906 L 917.339844 754.992188 L 917.386719 755.125 C 923.550781 775.285156 927.273438 786.605469 928.546875 789.078125 C 929.109375 790.164062 928.679688 791.5 927.59375 792.058594 C 926.507812 792.621094 925.175781 792.191406 924.613281 791.105469 Z M 924.617188 791.105469 " fill-opacity="1" fill-rule="nonzero"/><g clip-path="url(#02f01f61b7)"><path fill="#1f1f1f" d="M 1154.757812 1064.484375 C 1165.332031 1063.277344 1184.117188 1057.910156 1211.113281 1048.375 L 1211.046875 1048.398438 C 1219.667969 1045.046875 1224.980469 1039.34375 1226.996094 1031.285156 L 1226.996094 1031.273438 C 1236.910156 992.5 1240.710938 917.894531 1238.398438 807.460938 L 1238.40625 807.609375 C 1232.414062 740.597656 1222.21875 695.316406 1207.824219 671.769531 L 1207.761719 671.65625 C 1190.601562 639.453125 1162.917969 620.582031 1124.703125 615.042969 C 1123.492188 614.871094 1122.65625 613.746094 1122.832031 612.539062 C 1123.003906 611.328125 1124.128906 610.492188 1125.335938 610.667969 C 1165.027344 616.417969 1193.804688 636.054688 1211.664062 669.574219 L 1211.601562 669.460938 C 1226.355469 693.597656 1236.757812 739.515625 1242.8125 807.214844 C 1242.816406 807.265625 1242.820312 807.316406 1242.820312 807.367188 C 1245.140625 918.203125 1241.296875 993.203125 1231.285156 1032.367188 L 1231.285156 1032.355469 C 1228.902344 1041.894531 1222.691406 1048.617188 1212.652344 1052.523438 L 1212.585938 1052.546875 C 1185.273438 1062.191406 1166.164062 1067.636719 1155.261719 1068.878906 C 1154.046875 1069.019531 1152.949219 1068.148438 1152.8125 1066.933594 C 1152.671875 1065.71875 1153.546875 1064.625 1154.757812 1064.484375 Z M 1154.757812 1064.484375 " fill-opacity="1" fill-rule="nonzero"/></g><path fill="#1f1f1f" d="M 880.152344 607.871094 C 880.679688 607.910156 881.265625 607.921875 881.917969 607.902344 L 881.875 607.902344 L 881.933594 607.902344 C 882.675781 607.882812 884.140625 607.828125 886.324219 607.734375 L 886.347656 607.730469 C 887.183594 607.707031 887.710938 607.691406 887.929688 607.691406 L 887.898438 607.691406 C 888.6875 607.679688 889.578125 607.695312 890.570312 607.730469 L 890.542969 607.730469 C 891.667969 607.761719 894.222656 607.910156 898.199219 608.171875 L 898.167969 608.171875 C 899.890625 608.261719 901.371094 608.328125 902.597656 608.375 C 902.660156 608.378906 902.671875 608.378906 902.628906 608.375 L 902.625 608.375 C 903.710938 608.414062 904.445312 608.4375 904.832031 608.441406 L 904.828125 608.441406 L 910.410156 608.484375 L 910.445312 608.484375 C 911.5625 608.511719 912.417969 608.542969 913.019531 608.578125 L 912.890625 608.574219 L 912.957031 608.574219 C 914.144531 608.609375 915.917969 608.835938 918.273438 609.253906 C 919.476562 609.46875 920.277344 610.613281 920.066406 611.816406 C 919.851562 613.019531 918.703125 613.824219 917.5 613.613281 C 915.355469 613.230469 913.796875 613.027344 912.824219 612.996094 L 912.890625 612.996094 L 912.757812 612.992188 C 912.207031 612.960938 911.402344 612.933594 910.34375 612.910156 L 910.375 612.910156 L 904.792969 612.863281 L 904.785156 612.863281 C 904.359375 612.859375 903.589844 612.839844 902.46875 612.796875 L 902.464844 612.796875 C 902.402344 612.796875 902.394531 612.796875 902.433594 612.796875 C 901.191406 612.75 899.691406 612.683594 897.9375 612.589844 L 897.902344 612.589844 C 893.984375 612.328125 891.492188 612.183594 890.425781 612.152344 L 890.398438 612.152344 C 889.484375 612.117188 888.675781 612.105469 887.964844 612.117188 L 887.9375 612.117188 C 887.765625 612.117188 887.28125 612.128906 886.488281 612.152344 L 886.511719 612.152344 C 884.300781 612.246094 882.8125 612.304688 882.046875 612.324219 L 882.097656 612.324219 L 882.050781 612.324219 C 881.238281 612.347656 880.488281 612.335938 879.804688 612.28125 C 878.585938 612.183594 877.675781 611.117188 877.773438 609.902344 C 877.871094 608.683594 878.9375 607.773438 880.152344 607.871094 Z M 880.152344 607.871094 " fill-opacity="1" fill-rule="nonzero"/><path fill="#1f1f1f" d="M 704.902344 836.914062 C 721.640625 836.914062 736.839844 841.105469 747.875 847.878906 C 759.257812 854.867188 766.296875 864.628906 766.296875 875.507812 C 766.296875 886.386719 759.257812 896.148438 747.875 903.132812 C 736.839844 909.910156 721.640625 914.101562 704.902344 914.101562 C 688.160156 914.101562 672.960938 909.910156 661.925781 903.132812 C 650.542969 896.148438 643.503906 886.386719 643.503906 875.507812 C 643.503906 864.628906 650.542969 854.867188 661.925781 847.878906 C 672.960938 841.105469 688.160156 836.914062 704.902344 836.914062 Z M 745.445312 851.863281 C 735.109375 845.519531 720.777344 841.59375 704.902344 841.59375 C 689.023438 841.59375 674.691406 845.519531 664.355469 851.863281 C 654.363281 857.996094 648.179688 866.363281 648.179688 875.507812 C 648.179688 884.648438 654.363281 893.015625 664.355469 899.152344 C 674.691406 905.496094 689.023438 909.421875 704.902344 909.421875 C 720.777344 909.421875 735.109375 905.496094 745.445312 899.152344 C 755.4375 893.015625 761.621094 884.648438 761.621094 875.507812 C 761.621094 866.363281 755.4375 857.996094 745.445312 851.863281 Z M 745.445312 851.863281 " fill-opacity="1" fill-rule="nonzero"/></svg>