<svg xmlns="http://www.w3.org/2000/svg" xmlns:xlink="http://www.w3.org/1999/xlink" width="1587" zoomAndPan="magnify" viewBox="0 0 1190.25 1683.749949" height="2245" preserveAspectRatio="xMidYMid meet" version="1.0"><defs><clipPath id="3a848be0e4"><path d="M 0 0.40625 L 1189.5 0.40625 L 1189.5 1683.09375 L 0 1683.09375 Z M 0 0.40625 " clip-rule="nonzero"/></clipPath><clipPath id="97c95c7726"><path d="M 0 0.40625 L 813 0.40625 L 813 638 L 0 638 Z M 0 0.40625 " clip-rule="nonzero"/></clipPath><clipPath id="02150d2db4"><path d="M -164.59375 405.453125 L 804.566406 -29 L 911.261719 209.011719 L -57.894531 643.46875 Z M -164.59375 405.453125 " clip-rule="nonzero"/></clipPath><clipPath id="8940a4ffd6"><path d="M -164.59375 405.453125 L 804.566406 -29 L 911.261719 209.011719 L -57.894531 643.46875 Z M -164.59375 405.453125 " clip-rule="nonzero"/></clipPath><clipPath id="0ddba23886"><path d="M -164.496094 405.671875 L 805.019531 -28.941406 L 911.515625 208.621094 L -58 643.234375 Z M -164.496094 405.671875 " clip-rule="nonzero"/></clipPath></defs><g clip-path="url(#3a848be0e4)"><path fill="#ffffff" d="M 0 0.40625 L 1189.5 0.40625 L 1189.5 1683.09375 L 0 1683.09375 Z M 0 0.40625 " fill-opacity="1" fill-rule="nonzero"/><path fill="#ffffff" d="M 0 0.40625 L 1189.5 0.40625 L 1189.5 1683.09375 L 0 1683.09375 Z M 0 0.40625 " fill-opacity="1" fill-rule="nonzero"/></g><g clip-path="url(#97c95c7726)"><g clip-path="url(#02150d2db4)"><g clip-path="url(#8940a4ffd6)"><g clip-path="url(#0ddba23886)"><path fill="#245261" d="M 115.242188 558.914062 C 116.796875 558.1875 118.296875 557.386719 119.773438 556.507812 C 121.402344 555.480469 122.980469 554.386719 124.507812 553.207031 C 125.964844 552.019531 127.339844 550.78125 128.675781 549.457031 C 130.007812 548.039062 131.257812 546.570312 132.445312 545.019531 C 133.625 543.324219 134.703125 541.582031 135.722656 539.796875 C 137.425781 536.660156 138.910156 533.441406 140.261719 530.144531 C 141.839844 526.074219 143.195312 521.941406 144.292969 517.722656 C 144.722656 515.855469 145.070312 513.988281 145.316406 512.085938 C 145.507812 509.902344 145.5625 507.730469 145.519531 505.535156 C 145.515625 505.554688 145.519531 505.582031 145.519531 505.605469 C 145.433594 503.734375 145.257812 501.890625 145.015625 500.042969 C 144.417969 496.480469 143.550781 493 142.539062 489.535156 C 142.074219 488.03125 141.601562 486.53125 141.054688 485.054688 C 140.445312 483.378906 139.765625 481.734375 139.042969 480.097656 C 137.105469 475.910156 134.9375 471.84375 132.5625 467.894531 C 129.929688 463.652344 127.117188 459.539062 124.042969 455.601562 C 121.582031 452.601562 118.957031 449.769531 116.167969 447.0625 C 116.257812 447.148438 116.351562 447.246094 116.441406 447.335938 C 114.949219 445.957031 113.425781 444.628906 111.8125 443.375 C 110.847656 442.679688 109.871094 442.019531 108.859375 441.394531 C 107.902344 442.347656 106.953125 443.304688 106.019531 444.269531 C 101.691406 448.800781 97.582031 453.523438 93.8125 458.527344 C 93.816406 458.515625 93.820312 458.503906 93.828125 458.5 C 90.820312 462.5625 88.058594 466.777344 85.5625 471.183594 C 83.164062 475.523438 81.046875 480.003906 79.191406 484.605469 C 77.484375 488.992188 76.054688 493.441406 74.890625 497.992188 C 73.738281 502.753906 72.875 507.554688 72.332031 512.417969 C 71.941406 516.402344 71.78125 520.371094 71.84375 524.371094 C 71.84375 524.351562 71.839844 524.34375 71.839844 524.324219 C 71.839844 524.34375 71.84375 524.351562 71.84375 524.371094 C 71.847656 524.488281 71.851562 524.605469 71.851562 524.722656 C 71.847656 524.625 71.851562 524.527344 71.847656 524.429688 C 71.925781 526.847656 72.085938 529.242188 72.445312 531.632812 C 72.820312 533.789062 73.324219 535.910156 73.9375 538.007812 C 74.402344 539.460938 74.917969 540.894531 75.507812 542.300781 C 76.140625 543.671875 76.828125 545.003906 77.582031 546.308594 C 78.542969 547.859375 79.574219 549.324219 80.703125 550.757812 C 80.625 550.652344 80.542969 550.554688 80.464844 550.449219 C 81.261719 551.386719 82.085938 552.296875 82.953125 553.171875 C 84.003906 554.167969 85.082031 555.097656 86.230469 555.980469 C 87.195312 556.675781 88.183594 557.308594 89.207031 557.917969 C 90.269531 558.480469 91.34375 559.019531 92.445312 559.496094 C 93.527344 559.890625 94.625 560.230469 95.738281 560.542969 C 97.222656 560.898438 98.71875 561.167969 100.238281 561.355469 C 101.800781 561.507812 103.351562 561.574219 104.921875 561.542969 C 105.847656 561.484375 106.75 561.386719 107.660156 561.246094 C 108.949219 560.992188 110.214844 560.703125 111.476562 560.355469 C 112.757812 559.929688 114.003906 559.441406 115.242188 558.914062 Z M 106.476562 567.523438 C 105.46875 567.640625 104.4375 567.636719 103.425781 567.625 C 102.378906 567.609375 101.335938 567.5625 100.300781 567.460938 C 98.1875 567.242188 96.078125 566.929688 94.03125 566.363281 C 92.171875 565.851562 90.34375 565.265625 88.59375 564.429688 C 86.71875 563.539062 84.898438 562.503906 83.214844 561.28125 C 80.015625 558.980469 77.230469 556.234375 74.847656 553.105469 C 72.472656 549.984375 70.609375 546.496094 69.171875 542.847656 C 68.46875 541.054688 67.933594 539.175781 67.445312 537.316406 C 66.894531 535.230469 66.5 533.109375 66.21875 530.980469 C 65.9375 528.832031 65.832031 526.660156 65.785156 524.496094 C 65.734375 522.023438 65.75 519.5625 65.882812 517.101562 C 66.871094 498.6875 72.699219 480.628906 82.210938 464.875 C 86.621094 457.566406 91.863281 450.804688 97.554688 444.453125 C 99.335938 442.464844 101.164062 440.519531 103.039062 438.609375 C 101.128906 437.921875 99.199219 437.332031 97.238281 436.835938 C 94.65625 436.242188 92.050781 435.796875 89.414062 435.476562 C 86.003906 435.132812 82.59375 435.007812 79.164062 435.082031 C 75.878906 435.210938 72.601562 435.5 69.335938 435.984375 C 67.089844 436.378906 64.894531 436.890625 62.695312 437.527344 C 59.214844 438.632812 55.808594 439.933594 52.46875 441.398438 C 49.066406 442.964844 45.804688 444.761719 42.601562 446.714844 C 42.710938 446.644531 42.816406 446.578125 42.9375 446.515625 C 39.425781 448.703125 36.070312 451.058594 32.808594 453.605469 C 26.882812 458.378906 21.359375 463.609375 16.050781 469.046875 C 8.050781 477.359375 0.574219 486.15625 -6.347656 495.390625 C -9.792969 500.0625 -13.078125 504.832031 -16.203125 509.714844 C -19.734375 515.214844 -23.007812 520.890625 -26.203125 526.585938 C -26.144531 526.472656 -26.074219 526.363281 -26.011719 526.242188 C -29.296875 532.179688 -32.5 538.167969 -35.476562 544.261719 C -38.535156 550.507812 -41.316406 556.882812 -43.890625 563.351562 C -43.886719 563.339844 -43.886719 563.339844 -43.890625 563.328125 C -46.15625 569.175781 -48.21875 575.085938 -50.097656 581.066406 C -51.976562 587.003906 -53.730469 592.984375 -55.289062 599.015625 C -55.929688 601.648438 -56.542969 604.296875 -57.027344 606.96875 C -57.503906 609.617188 -57.886719 612.292969 -58.203125 614.96875 C -58.296875 615.949219 -58.375 616.925781 -58.425781 617.914062 C -58.496094 619.144531 -58.457031 620.382812 -58.4375 621.621094 C -58.375 623.039062 -58.253906 624.4375 -58.054688 625.851562 C -57.824219 627.203125 -57.535156 628.550781 -57.175781 629.882812 C -57.03125 630.34375 -56.878906 630.789062 -56.699219 631.234375 C -55.347656 630.875 -53.875 631.421875 -53.191406 632.726562 C -52.4375 634.160156 -52.980469 636.105469 -54.472656 636.824219 C -55.183594 637.171875 -55.882812 637.515625 -56.6875 637.621094 C -58.101562 637.820312 -59.480469 637.308594 -60.523438 636.351562 C -61.734375 635.261719 -62.363281 633.632812 -62.828125 632.109375 C -63.398438 630.289062 -63.820312 628.417969 -64.09375 626.53125 C -64.40625 624.257812 -64.519531 621.984375 -64.527344 619.691406 C -64.535156 617.269531 -64.304688 614.890625 -64.019531 612.5 C -63.402344 607.34375 -62.386719 602.214844 -61.082031 597.199219 C -59.847656 592.429688 -58.46875 587.707031 -57.050781 582.992188 C -55.511719 577.882812 -53.855469 572.816406 -52.039062 567.796875 C -48.371094 557.613281 -44.03125 547.671875 -39.148438 538.011719 C -34.457031 528.742188 -29.402344 519.648438 -24.015625 510.761719 C -19.394531 503.140625 -14.332031 495.785156 -8.90625 488.710938 C -3.546875 481.730469 2.144531 475 8.152344 468.558594 C 15.414062 460.78125 23.085938 453.265625 31.617188 446.867188 C 35.75 443.769531 40.121094 440.957031 44.675781 438.492188 C 49.207031 436.023438 54.011719 434 58.914062 432.375 C 61.191406 431.613281 63.488281 430.96875 65.828125 430.453125 C 68.453125 429.882812 71.140625 429.585938 73.792969 429.328125 C 78.78125 428.84375 83.808594 428.886719 88.792969 429.320312 C 93.507812 429.730469 98.214844 430.628906 102.722656 432.074219 C 104.429688 432.621094 106.105469 433.246094 107.742188 433.976562 C 110.210938 431.632812 112.75 429.367188 115.351562 427.183594 C 119.582031 423.621094 124.054688 420.390625 128.710938 417.425781 C 133.792969 414.175781 139.070312 411.246094 144.375 408.382812 C 149.648438 405.535156 154.992188 402.792969 160.285156 399.984375 C 165.734375 397.097656 171.0625 393.988281 176.332031 390.78125 C 176.226562 390.851562 176.109375 390.921875 175.996094 390.980469 C 190.378906 382.179688 204.316406 372.617188 217.519531 362.117188 C 217.453125 362.167969 217.394531 362.210938 217.332031 362.269531 C 221.988281 358.511719 226.589844 354.667969 231.027344 350.660156 C 235.328125 346.773438 239.5 342.746094 243.542969 338.585938 C 250.246094 331.574219 256.507812 324.195312 262.324219 316.425781 C 262.242188 316.53125 262.160156 316.636719 262.089844 316.738281 C 264.894531 312.9375 267.605469 309.050781 270.152344 305.058594 C 272.5625 301.296875 274.828125 297.460938 277.023438 293.566406 C 282.003906 284.585938 286.398438 275.324219 290.4375 265.882812 C 294.140625 257.230469 297.574219 248.464844 301.035156 239.722656 C 304.339844 231.382812 307.765625 223.105469 311.964844 215.167969 C 315.945312 207.644531 320.582031 200.460938 325.941406 193.855469 C 330.480469 188.265625 335.730469 183.152344 341.800781 179.242188 C 346.515625 176.199219 351.925781 173.992188 357.5625 173.632812 C 362.21875 173.335938 366.976562 174.585938 370.6875 177.457031 C 371.621094 178.175781 372.4375 179.105469 373.160156 180.039062 C 374.03125 181.140625 374.746094 182.335938 375.394531 183.566406 C 376.785156 186.179688 377.777344 189.011719 378.535156 191.847656 C 379.363281 194.960938 379.890625 198.167969 380.117188 201.382812 C 380.230469 203.140625 380.238281 204.898438 380.152344 206.648438 C 380.027344 209.148438 379.542969 211.621094 379.027344 214.070312 C 378.132812 218.261719 376.855469 222.386719 375.46875 226.441406 C 374.101562 230.417969 372.492188 234.304688 370.824219 238.160156 C 367.539062 245.746094 363.921875 253.195312 360.101562 260.519531 C 355.828125 268.738281 351.300781 276.824219 346.902344 284.980469 C 340.125 297.566406 333.5 310.292969 328.128906 323.558594 C 327.976562 323.972656 327.832031 324.402344 327.644531 324.792969 C 327.605469 324.890625 327.570312 324.984375 327.535156 325.078125 C 327.152344 326.0625 326.78125 327.039062 326.417969 328.023438 C 324.964844 332 323.734375 336.054688 322.707031 340.15625 C 322.019531 343.085938 321.464844 346.015625 321.109375 349.003906 C 320.808594 352.109375 320.703125 355.203125 320.773438 358.320312 C 320.886719 360.871094 321.117188 363.390625 321.496094 365.910156 C 321.835938 367.867188 322.277344 369.796875 322.808594 371.707031 C 323.15625 372.816406 323.539062 373.890625 323.980469 374.960938 C 324.59375 376.289062 325.265625 377.570312 326.011719 378.828125 C 326.457031 379.539062 326.921875 380.222656 327.414062 380.902344 C 327.902344 381.503906 328.410156 382.066406 328.953125 382.617188 C 329.390625 383.015625 329.832031 383.378906 330.296875 383.753906 C 331.019531 384.261719 331.757812 384.742188 332.523438 385.191406 C 333.421875 385.648438 334.320312 386.066406 335.25 386.460938 C 337.320312 387.238281 339.4375 387.859375 341.585938 388.410156 C 343.585938 388.878906 345.570312 389.265625 347.605469 389.523438 C 350.027344 389.734375 352.445312 389.808594 354.875 389.757812 C 357.226562 389.664062 359.550781 389.441406 361.882812 389.097656 C 364.082031 388.707031 366.238281 388.222656 368.382812 387.601562 C 370.210938 386.996094 371.996094 386.316406 373.757812 385.546875 C 375.472656 384.738281 377.148438 383.859375 378.785156 382.898438 C 380.386719 381.882812 381.925781 380.789062 383.433594 379.625 C 384.925781 378.414062 386.359375 377.148438 387.71875 375.785156 C 389.460938 373.894531 391.0625 371.902344 392.617188 369.851562 C 394.824219 366.8125 396.851562 363.667969 398.699219 360.394531 C 400.679688 356.734375 402.433594 352.972656 403.988281 349.109375 C 406.140625 343.5625 407.886719 337.890625 409.34375 332.121094 C 411.511719 323.15625 412.9375 314.066406 413.957031 304.910156 C 415.039062 294.757812 415.667969 284.570312 416.660156 274.410156 C 417.601562 264.785156 418.902344 255.1875 420.632812 245.675781 C 422.167969 237.25 424.046875 228.855469 426.757812 220.734375 C 429.234375 213.34375 432.585938 206.257812 436.617188 199.59375 C 440.429688 193.292969 445.171875 187.644531 450.59375 182.679688 C 455.800781 177.910156 461.65625 173.871094 467.753906 170.347656 C 478.734375 164 490.980469 160.105469 503.550781 158.613281 C 511.171875 157.710938 518.875 157.679688 526.53125 157.476562 C 526.480469 157.46875 526.421875 157.476562 526.375 157.476562 C 533.671875 157.273438 540.972656 157 548.195312 155.875 C 551.449219 155.339844 554.675781 154.65625 557.855469 153.761719 C 558.355469 153.617188 558.875 153.425781 559.398438 153.320312 C 562.695312 152.328125 565.914062 151.101562 569.066406 149.71875 C 572.839844 148.007812 576.480469 146.066406 580.019531 143.9375 C 584.324219 141.285156 588.417969 138.351562 592.371094 135.203125 C 592.328125 135.242188 592.285156 135.273438 592.242188 135.3125 C 595.339844 132.816406 598.375 130.246094 601.28125 127.527344 C 604.5 124.511719 607.621094 121.390625 610.691406 118.214844 C 610.632812 118.28125 610.5625 118.351562 610.496094 118.421875 C 616.675781 111.988281 622.597656 105.328125 628.398438 98.558594 C 634.15625 91.863281 639.851562 85.105469 645.523438 78.335938 C 648.34375 74.976562 651.140625 71.59375 654.035156 68.296875 C 656.902344 65.023438 659.894531 61.871094 662.921875 58.742188 C 670.183594 51.210938 677.675781 43.90625 685.628906 37.105469 C 693.257812 30.589844 701.117188 24.375 709.347656 18.644531 C 713.148438 16.003906 717.027344 13.492188 720.996094 11.109375 C 725.054688 8.675781 729.300781 6.542969 733.597656 4.578125 C 742.203125 0.621094 751.175781 -2.558594 760.226562 -5.320312 C 768.0625 -7.714844 776.011719 -9.734375 784.035156 -11.304688 C 788.527344 -12.1875 793.058594 -12.914062 797.617188 -13.34375 C 801.722656 -13.71875 805.863281 -13.84375 809.992188 -13.726562 C 811.644531 -13.683594 812.976562 -12.214844 812.90625 -10.582031 C 812.84375 -8.910156 811.414062 -7.617188 809.761719 -7.664062 C 807.960938 -7.710938 806.164062 -7.714844 804.375 -7.675781 C 799.804688 -7.515625 795.261719 -7.054688 790.742188 -6.34375 C 781.402344 -4.796875 772.191406 -2.539062 763.113281 0.144531 C 754.457031 2.75 745.90625 5.769531 737.621094 9.40625 C 737.742188 9.351562 737.859375 9.296875 737.980469 9.242188 C 732.851562 11.550781 727.851562 14.082031 723.019531 16.96875 C 714.511719 22.179688 706.394531 28.023438 698.589844 34.253906 C 698.640625 34.210938 698.691406 34.167969 698.742188 34.125 C 693.234375 38.554688 687.847656 43.105469 682.632812 47.878906 C 677.332031 52.71875 672.28125 57.804688 667.28125 62.941406 C 667.371094 62.855469 667.457031 62.765625 667.554688 62.671875 C 664.535156 65.796875 661.535156 68.953125 658.660156 72.230469 C 655.773438 75.523438 652.972656 78.90625 650.164062 82.261719 C 644.480469 89.027344 638.78125 95.785156 633.03125 102.492188 C 627.214844 109.292969 621.265625 115.976562 615.050781 122.421875 C 611.902344 125.707031 608.671875 128.894531 605.367188 132.007812 C 602.332031 134.882812 599.125 137.578125 595.859375 140.179688 C 590.1875 144.679688 584.199219 148.761719 577.8125 152.1875 C 572.488281 155.039062 566.914062 157.371094 561.136719 159.121094 C 561.019531 159.164062 560.898438 159.207031 560.773438 159.234375 C 560.257812 159.386719 559.734375 159.539062 559.214844 159.683594 C 552.742188 161.488281 546.078125 162.496094 539.378906 162.984375 C 536.085938 163.226562 532.773438 163.34375 529.46875 163.453125 C 527.886719 163.496094 526.304688 163.542969 524.71875 163.582031 C 523.925781 163.609375 523.144531 163.625 522.351562 163.644531 C 521.910156 163.652344 521.449219 163.691406 521.003906 163.683594 C 520.808594 163.691406 520.597656 163.6875 520.402344 163.695312 C 519.886719 163.710938 519.359375 163.726562 518.839844 163.742188 C 512.648438 163.925781 506.449219 164.242188 500.320312 165.179688 C 496.421875 165.816406 492.578125 166.699219 488.785156 167.816406 C 485.5 168.832031 482.285156 170.027344 479.128906 171.390625 C 475.449219 173.03125 471.894531 174.902344 468.445312 176.984375 C 468.554688 176.914062 468.660156 176.847656 468.769531 176.777344 C 465.25 178.929688 461.859375 181.273438 458.617188 183.824219 C 455.972656 185.957031 453.464844 188.21875 451.09375 190.636719 C 449.09375 192.753906 447.230469 194.953125 445.480469 197.273438 C 445.492188 197.257812 445.496094 197.246094 445.515625 197.238281 C 443.464844 200.035156 441.617188 202.960938 439.910156 205.972656 C 437.753906 209.898438 435.847656 213.949219 434.183594 218.097656 C 432.300781 222.988281 430.792969 227.988281 429.503906 233.058594 C 426.429688 245.667969 424.472656 258.546875 423.058594 271.441406 C 423.078125 271.304688 423.085938 271.171875 423.105469 271.035156 C 422.023438 281.179688 421.375 291.363281 420.394531 301.519531 C 419.425781 311.632812 418.023438 321.730469 415.691406 331.621094 C 413.433594 341.222656 410.398438 350.695312 405.992188 359.539062 C 403.863281 363.820312 401.429688 367.945312 398.65625 371.84375 C 396.007812 375.5625 393.15625 379.136719 389.777344 382.214844 C 383.617188 387.835938 376.105469 391.796875 368.082031 393.988281 C 363.941406 395.125 359.609375 395.640625 355.320312 395.808594 C 350.816406 396 346.28125 395.667969 341.875 394.703125 C 337.410156 393.726562 332.921875 392.433594 328.949219 390.128906 C 325.5 388.132812 322.773438 385.269531 320.746094 381.851562 C 319.789062 380.222656 318.910156 378.550781 318.179688 376.808594 C 317.359375 374.851562 316.761719 372.792969 316.273438 370.726562 C 315.222656 366.289062 314.800781 361.769531 314.679688 357.222656 C 314.390625 346.328125 317.171875 335.671875 320.878906 325.511719 C 321.246094 324.515625 321.625 323.53125 322.015625 322.546875 C 322.015625 322.527344 322.027344 322.511719 322.027344 322.492188 C 322.066406 322.394531 322.101562 322.300781 322.148438 322.210938 C 322.203125 322.066406 322.261719 321.929688 322.320312 321.796875 C 322.34375 321.714844 322.371094 321.644531 322.402344 321.5625 C 322.753906 320.664062 323.125 319.773438 323.488281 318.878906 C 324.28125 316.960938 325.113281 315.0625 325.957031 313.171875 C 327.640625 309.359375 329.453125 305.585938 331.300781 301.851562 C 335.292969 293.804688 339.511719 285.890625 343.789062 277.996094 C 348.238281 269.777344 352.8125 261.609375 357.003906 253.242188 C 360.960938 245.351562 364.742188 237.363281 368.003906 229.152344 C 369.890625 224.242188 371.507812 219.242188 372.789062 214.132812 C 373.300781 211.875 373.738281 209.621094 374.011719 207.324219 C 374.109375 206.101562 374.15625 204.882812 374.144531 203.671875 C 374.070312 201.695312 373.878906 199.742188 373.597656 197.792969 C 373.269531 195.929688 372.871094 194.089844 372.351562 192.273438 C 371.90625 190.8125 371.378906 189.375 370.789062 187.96875 C 370.363281 187.042969 369.898438 186.140625 369.402344 185.253906 C 369.070312 184.730469 368.71875 184.214844 368.347656 183.71875 C 368.03125 183.347656 367.714844 182.984375 367.375 182.632812 C 367.105469 182.378906 366.832031 182.144531 366.539062 181.910156 C 366.226562 181.703125 365.910156 181.5 365.582031 181.296875 C 365.09375 181.050781 364.59375 180.820312 364.082031 180.605469 C 363.566406 180.421875 363.042969 180.25 362.511719 180.101562 C 361.832031 179.953125 361.144531 179.832031 360.453125 179.746094 C 359.804688 179.691406 359.164062 179.671875 358.515625 179.667969 C 357.664062 179.703125 356.828125 179.78125 355.980469 179.902344 C 355.066406 180.066406 354.167969 180.269531 353.265625 180.515625 C 352.085938 180.886719 350.941406 181.308594 349.800781 181.792969 C 348.425781 182.429688 347.089844 183.136719 345.773438 183.90625 C 344.070312 184.964844 342.449219 186.117188 340.882812 187.363281 C 338.984375 188.917969 337.191406 190.5625 335.464844 192.296875 C 332.710938 195.164062 330.164062 198.195312 327.773438 201.363281 C 324.496094 205.820312 321.527344 210.476562 318.808594 215.289062 C 314.53125 223.035156 310.992188 231.121094 307.707031 239.332031 C 304.253906 247.984375 300.875 256.652344 297.296875 265.242188 C 293.375 274.640625 289.132812 283.875 284.328125 292.84375 C 279.21875 302.417969 273.457031 311.660156 266.957031 320.355469 C 261.769531 327.28125 256.242188 333.914062 250.335938 340.230469 C 244.21875 346.785156 237.714844 352.933594 230.960938 358.8125 C 223.449219 365.347656 215.578125 371.449219 207.527344 377.28125 C 199.320312 383.238281 190.898438 388.863281 182.308594 394.21875 C 178.679688 396.480469 175.015625 398.675781 171.3125 400.820312 C 167.132812 403.238281 162.871094 405.496094 158.601562 407.734375 C 150.601562 411.9375 142.585938 416.089844 134.847656 420.746094 C 130.359375 423.492188 126.003906 426.425781 121.867188 429.683594 C 121.964844 429.601562 122.070312 429.523438 122.171875 429.4375 C 119.140625 431.855469 116.214844 434.40625 113.378906 437.042969 C 114.132812 437.535156 114.871094 438.054688 115.578125 438.617188 C 119.105469 441.339844 122.273438 444.453125 125.289062 447.722656 C 128.496094 451.183594 131.277344 455.003906 133.953125 458.878906 C 138.90625 466.058594 143.167969 473.785156 146.371094 481.898438 C 147.847656 485.660156 148.929688 489.597656 149.898438 493.519531 C 150.496094 495.910156 150.90625 498.351562 151.238281 500.792969 C 151.503906 502.800781 151.566406 504.832031 151.617188 506.847656 C 151.824219 515.125 149.359375 523.195312 146.484375 530.867188 C 144.789062 535.40625 142.707031 539.792969 140.3125 544.003906 C 137.773438 548.476562 134.488281 552.492188 130.675781 555.933594 C 127.132812 559.125 123.132812 561.796875 118.871094 563.917969 C 118.449219 564.125 118.015625 564.332031 117.578125 564.527344 C 114.0625 566.101562 110.308594 567.09375 106.476562 567.523438 " fill-opacity="1" fill-rule="nonzero"/></g></g></g></g></svg>