<svg xmlns="http://www.w3.org/2000/svg" xmlns:xlink="http://www.w3.org/1999/xlink" width="1587" zoomAndPan="magnify" viewBox="0 0 1190.25 1683.749949" height="2245" preserveAspectRatio="xMidYMid meet" version="1.0"><defs><clipPath id="02f3123b15"><path d="M 387 683 L 780.695312 683 L 780.695312 1254 L 387 1254 Z M 387 683 " clip-rule="nonzero"/></clipPath></defs><path fill="#6093af" d="M 441.964844 836.199219 L 527.101562 914.46875 L 375.140625 1162.644531 L 33.042969 1105.375 L 81.914062 976.324219 L -47.140625 757.167969 C -47.140625 757.167969 249.902344 661.714844 288.082031 648.734375 C 326.265625 635.753906 344.589844 628.117188 384.300781 670.878906 C 424.007812 713.640625 442.332031 731.203125 443.097656 757.929688 C 443.859375 784.65625 441.964844 836.199219 441.964844 836.199219 Z M 441.964844 836.199219 " fill-opacity="1" fill-rule="evenodd"/><path fill="#1f1f1f" d="M 341.601562 740.917969 C 340.640625 740.039062 339.148438 740.105469 338.269531 741.066406 C 337.390625 742.027344 337.457031 743.519531 338.417969 744.398438 L 428.523438 826.867188 C 429.484375 827.746094 430.976562 827.679688 431.855469 826.71875 C 432.734375 825.757812 432.664062 824.265625 431.707031 823.390625 Z M 341.601562 740.917969 " fill-opacity="1" fill-rule="nonzero"/><path fill="#1f1f1f" d="M 186.371094 755.875 C 186.921875 754.695312 186.410156 753.289062 185.230469 752.738281 C 184.050781 752.1875 182.648438 752.695312 182.097656 753.878906 L 82.824219 966.160156 C 82.273438 967.339844 82.785156 968.746094 83.964844 969.296875 C 85.144531 969.847656 86.546875 969.339844 87.097656 968.160156 Z M 186.371094 755.875 " fill-opacity="1" fill-rule="nonzero"/><path fill="#1f1f1f" d="M 134.625 955.457031 C 133.644531 954.597656 132.152344 954.699219 131.292969 955.679688 C 130.433594 956.660156 130.535156 958.152344 131.515625 959.011719 L 352.578125 1151.820312 C 353.558594 1152.679688 355.050781 1152.582031 355.910156 1151.601562 C 356.769531 1150.617188 356.667969 1149.128906 355.6875 1148.269531 Z M 134.625 955.457031 " fill-opacity="1" fill-rule="nonzero"/><g clip-path="url(#02f3123b15)"><path fill="#1f1f1f" d="M 391.65625 1157.789062 C 390.695312 1156.910156 389.203125 1156.976562 388.324219 1157.9375 C 387.445312 1158.898438 387.511719 1160.390625 388.472656 1161.269531 C 388.972656 1161.726562 562.078125 1321.730469 600.738281 1219.160156 C 614.214844 1183.417969 633.671875 1123.6875 654.046875 1061.15625 C 690.246094 950.042969 729.34375 830.046875 741.875 821.691406 L 742.074219 821.542969 C 755.015625 812.519531 773.464844 763.140625 778.855469 730 C 780.128906 722.160156 780.691406 715.183594 780.308594 709.804688 C 779.875 703.785156 778.1875 699.5 774.929688 697.757812 C 772.792969 696.617188 770.195312 696.613281 767.089844 697.976562 C 765.183594 693.390625 760.1875 685.320312 749.875 690.695312 C 745.570312 686.042969 731.585938 674.453125 716.046875 698.855469 C 710.820312 698.523438 694.203125 699.453125 682.703125 722.449219 C 674.003906 739.847656 675.378906 752.679688 676.582031 763.945312 C 677.207031 769.753906 677.78125 775.121094 676.765625 780.320312 C 673.992188 794.539062 536.613281 950.199219 521.402344 967.402344 L 507.085938 957.515625 C 506.015625 956.777344 504.542969 957.046875 503.804688 958.117188 C 503.0625 959.191406 503.332031 960.664062 504.40625 961.402344 L 520.441406 972.476562 C 521.410156 973.144531 522.75 973 523.546875 972.097656 C 523.992188 971.59375 678.230469 797.507812 681.40625 781.226562 C 682.554688 775.347656 681.941406 769.632812 681.28125 763.445312 C 680.144531 752.816406 678.847656 740.707031 686.921875 724.558594 C 698.539062 701.328125 715.167969 703.410156 716.730469 703.660156 C 717.695312 703.882812 718.738281 703.480469 719.285156 702.589844 C 734.621094 677.367188 747.40625 695.089844 747.441406 695.140625 L 747.449219 695.136719 C 748.179688 696.117188 749.558594 696.382812 750.605469 695.714844 C 760.417969 689.46875 763.453125 701.902344 763.460938 701.9375 C 763.523438 702.167969 763.617188 702.398438 763.75 702.613281 C 764.4375 703.71875 765.898438 704.058594 767.003906 703.371094 C 769.6875 701.703125 771.546875 701.300781 772.707031 701.921875 C 774.363281 702.808594 775.273438 705.757812 775.589844 710.140625 C 775.949219 715.164062 775.40625 721.765625 774.191406 729.242188 C 768.929688 761.59375 751.378906 809.519531 739.332031 817.699219 L 739.246094 817.753906 C 725.359375 827.011719 685.996094 947.824219 649.550781 1059.695312 C 629.183594 1122.207031 609.730469 1181.910156 596.320312 1217.5 C 560.144531 1313.46875 392.140625 1158.234375 391.65625 1157.792969 Z M 391.65625 1157.789062 " fill-opacity="1" fill-rule="nonzero"/></g><path fill="#1f1f1f" d="M 524.894531 984.507812 C 525.019531 983.210938 524.074219 982.054688 522.773438 981.929688 C 521.476562 981.800781 520.320312 982.75 520.195312 984.046875 C 520.183594 984.152344 516.308594 1019.800781 534.898438 1060.847656 C 535.433594 1062.039062 536.835938 1062.566406 538.023438 1062.03125 C 539.214844 1061.496094 539.746094 1060.09375 539.207031 1058.90625 C 521.144531 1019.011719 524.882812 984.609375 524.894531 984.507812 Z M 524.894531 984.507812 " fill-opacity="1" fill-rule="nonzero"/><path fill="#1f1f1f" d="M 518.402344 1029.816406 C 518.25 1028.519531 517.074219 1027.59375 515.777344 1027.746094 C 514.476562 1027.898438 513.550781 1029.074219 513.703125 1030.371094 C 513.707031 1030.410156 515.269531 1043.699219 520.398438 1054.9375 C 520.941406 1056.121094 522.339844 1056.644531 523.523438 1056.101562 C 524.710938 1055.5625 525.230469 1054.160156 524.691406 1052.976562 C 519.890625 1042.453125 518.40625 1029.855469 518.402344 1029.816406 Z M 518.402344 1029.816406 " fill-opacity="1" fill-rule="nonzero"/><path fill="#1f1f1f" d="M -30.339844 799.746094 C -29.140625 799.234375 -28.582031 797.847656 -29.09375 796.648438 C -29.601562 795.445312 -30.992188 794.886719 -32.191406 795.398438 C -32.8125 795.660156 -249.738281 886.734375 -186.546875 960.984375 C -124.980469 1033.328125 37.484375 1079.199219 37.949219 1079.332031 C 39.207031 1079.691406 40.515625 1078.960938 40.875 1077.703125 C 41.230469 1076.449219 40.503906 1075.140625 39.246094 1074.78125 C 38.78125 1074.648438 -122.347656 1029.148438 -182.957031 957.929688 C -241.945312 888.625 -30.945312 800.003906 -30.339844 799.746094 Z M -30.339844 799.746094 " fill-opacity="1" fill-rule="nonzero"/><path fill="#1f1f1f" d="M 62.640625 953.253906 C 63.644531 952.417969 63.777344 950.925781 62.9375 949.925781 C 62.101562 948.921875 60.609375 948.789062 59.609375 949.628906 C 59.542969 949.683594 37.367188 969.785156 -53.890625 900.3125 C -54.925781 899.519531 -56.410156 899.71875 -57.203125 900.753906 C -57.996094 901.792969 -57.796875 903.273438 -56.757812 904.066406 C 37.539062 975.859375 62.570312 953.316406 62.644531 953.253906 Z M 62.640625 953.253906 " fill-opacity="1" fill-rule="nonzero"/><path fill="#1f1f1f" d="M 65.089844 1002.449219 C 65.636719 1003.632812 67.039062 1004.152344 68.222656 1003.605469 C 69.410156 1003.058594 69.925781 1001.652344 69.378906 1000.46875 L 47.652344 953.386719 C 47.105469 952.199219 45.699219 951.683594 44.515625 952.230469 C 43.332031 952.777344 42.8125 954.179688 43.359375 955.367188 Z M 65.089844 1002.449219 " fill-opacity="1" fill-rule="nonzero"/><path fill="#1f1f1f" d="M 411.261719 674.902344 C 410.054688 674.402344 408.671875 674.972656 408.171875 676.179688 C 407.671875 677.386719 408.242188 678.769531 409.449219 679.269531 C 409.558594 679.316406 448.324219 695.847656 460.074219 667.453125 C 460.65625 666.042969 461.199219 664.628906 461.695312 663.21875 C 462.222656 661.730469 462.714844 660.21875 463.171875 658.6875 C 463.542969 657.4375 462.832031 656.117188 461.582031 655.746094 C 460.332031 655.375 459.011719 656.085938 458.640625 657.335938 C 458.195312 658.816406 457.726562 660.257812 457.238281 661.644531 C 456.738281 663.0625 456.226562 664.402344 455.707031 665.660156 C 445.796875 689.613281 411.359375 674.945312 411.261719 674.902344 Z M 460.851562 648.675781 C 460.582031 649.953125 461.398438 651.210938 462.675781 651.480469 C 463.953125 651.75 465.207031 650.933594 465.476562 649.65625 C 466.285156 645.875 466.96875 641.988281 467.492188 638.105469 C 468.90625 627.582031 469.117188 617.234375 467.53125 609.175781 C 465.816406 600.441406 461.96875 594.210938 455.28125 592.777344 C 454.984375 592.714844 454.652344 592.65625 454.296875 592.609375 C 451.292969 592.203125 448.273438 592.296875 445.375 592.804688 C 440.234375 593.703125 435.410156 595.917969 431.714844 598.992188 C 427.894531 602.171875 425.261719 606.28125 424.644531 610.859375 C 424.433594 612.414062 424.457031 614 424.734375 615.601562 C 425.65625 620.871094 422.957031 626.367188 419.800781 629.445312 C 418.945312 630.285156 418.082031 630.914062 417.292969 631.277344 C 416.726562 631.535156 416.242188 631.644531 415.902344 631.5625 L 415.820312 631.546875 C 415.527344 631.417969 415.257812 630.988281 415.042969 630.167969 C 414.519531 628.136719 414.207031 625.625 413.90625 623.191406 C 413.386719 619.007812 412.890625 615.035156 411.136719 612.566406 C 408.882812 609.394531 405.46875 608.75 399.65625 612.878906 C 395.300781 615.976562 392.042969 620.132812 390.519531 624.566406 C 389.691406 626.980469 389.367188 629.488281 389.652344 631.964844 C 389.933594 634.460938 390.835938 636.910156 392.453125 639.183594 C 394.90625 642.632812 398.996094 645.644531 405.074219 647.730469 C 406.308594 648.15625 407.65625 647.496094 408.078125 646.261719 C 408.503906 645.023438 407.84375 643.679688 406.609375 643.253906 C 401.53125 641.507812 398.203125 639.121094 396.300781 636.441406 C 395.175781 634.859375 394.546875 633.160156 394.351562 631.429688 C 394.148438 629.679688 394.390625 627.871094 394.996094 626.101562 C 396.207031 622.589844 398.84375 619.253906 402.394531 616.726562 C 405.328125 614.644531 406.699219 614.472656 407.289062 615.304688 C 408.335938 616.78125 408.761719 620.179688 409.207031 623.765625 C 409.519531 626.28125 409.84375 628.878906 410.476562 631.332031 C 411.171875 634.027344 412.640625 635.535156 414.542969 636.089844 C 414.628906 636.121094 414.71875 636.148438 414.808594 636.167969 C 416.207031 636.5 417.730469 636.265625 419.253906 635.566406 C 420.550781 634.972656 421.867188 634.03125 423.09375 632.832031 C 427.152344 628.867188 430.613281 621.726562 429.398438 614.785156 C 429.199219 613.648438 429.183594 612.546875 429.324219 611.488281 C 429.773438 608.144531 431.792969 605.0625 434.730469 602.617188 C 437.792969 600.070312 441.835938 598.226562 446.1875 597.464844 C 448.644531 597.035156 451.179688 596.953125 453.664062 597.285156 C 453.855469 597.3125 454.070312 597.351562 454.300781 597.398438 C 458.816406 598.367188 461.535156 603.203125 462.886719 610.078125 C 464.375 617.628906 464.160156 627.4375 462.808594 637.476562 C 462.308594 641.1875 461.644531 644.957031 460.851562 648.675781 Z M 460.851562 648.675781 " fill-opacity="1" fill-rule="nonzero"/><path fill="#1f1f1f" d="M 387.402344 671.34375 C 387.113281 672.613281 387.90625 673.882812 389.179688 674.171875 C 390.449219 674.464844 391.71875 673.667969 392.011719 672.398438 L 399.164062 641.078125 C 399.453125 639.808594 398.660156 638.539062 397.386719 638.25 C 396.117188 637.957031 394.847656 638.753906 394.554688 640.023438 Z M 387.402344 671.34375 " fill-opacity="1" fill-rule="nonzero"/><path fill="#1f1f1f" d="M 414.105469 701.539062 C 413.828125 702.816406 414.640625 704.074219 415.917969 704.351562 C 417.195312 704.628906 418.453125 703.816406 418.730469 702.539062 L 423.476562 680.871094 C 423.753906 679.59375 422.941406 678.335938 421.664062 678.058594 C 420.386719 677.785156 419.128906 678.597656 418.851562 679.875 Z M 414.105469 701.539062 " fill-opacity="1" fill-rule="nonzero"/><path fill="#1f1f1f" d="M 445.96875 617.820312 C 444.808594 618.425781 444.359375 619.851562 444.960938 621.011719 C 445.5625 622.171875 446.992188 622.625 448.152344 622.019531 C 453.753906 619.105469 458.097656 623.914062 458.109375 623.929688 C 458.992188 624.890625 460.488281 624.949219 461.449219 624.066406 C 462.40625 623.183594 462.46875 621.6875 461.585938 620.726562 C 461.566406 620.707031 454.808594 613.21875 445.96875 617.820312 Z M 445.96875 617.820312 " fill-opacity="1" fill-rule="nonzero"/><path fill="#1f1f1f" d="M 450.671875 630.527344 C 450.671875 630.867188 450.6875 631.207031 450.71875 631.539062 C 450.753906 631.875 450.800781 632.199219 450.867188 632.511719 C 450.929688 632.828125 451.007812 633.128906 451.101562 633.410156 C 451.195312 633.695312 451.300781 633.957031 451.421875 634.195312 C 451.539062 634.4375 451.667969 634.652344 451.808594 634.84375 C 451.949219 635.03125 452.09375 635.191406 452.25 635.320312 C 452.40625 635.453125 452.566406 635.550781 452.730469 635.617188 C 452.894531 635.683594 453.0625 635.71875 453.230469 635.71875 C 453.398438 635.71875 453.5625 635.683594 453.726562 635.617188 C 453.890625 635.550781 454.050781 635.453125 454.207031 635.320312 C 454.363281 635.191406 454.511719 635.03125 454.648438 634.84375 C 454.789062 634.652344 454.917969 634.4375 455.035156 634.195312 C 455.15625 633.957031 455.261719 633.695312 455.355469 633.410156 C 455.449219 633.128906 455.527344 632.828125 455.589844 632.511719 C 455.65625 632.199219 455.703125 631.875 455.738281 631.539062 C 455.769531 631.207031 455.785156 630.867188 455.785156 630.527344 C 455.785156 630.1875 455.769531 629.847656 455.738281 629.515625 C 455.703125 629.179688 455.65625 628.855469 455.589844 628.542969 C 455.527344 628.226562 455.449219 627.925781 455.355469 627.644531 C 455.261719 627.359375 455.15625 627.097656 455.035156 626.855469 C 454.917969 626.617188 454.789062 626.402344 454.648438 626.210938 C 454.511719 626.023438 454.363281 625.863281 454.207031 625.730469 C 454.050781 625.601562 453.890625 625.503906 453.726562 625.4375 C 453.5625 625.371094 453.398438 625.335938 453.230469 625.335938 C 453.0625 625.335938 452.894531 625.371094 452.730469 625.4375 C 452.566406 625.503906 452.40625 625.601562 452.25 625.730469 C 452.09375 625.863281 451.949219 626.023438 451.808594 626.210938 C 451.667969 626.402344 451.539062 626.617188 451.421875 626.855469 C 451.300781 627.097656 451.195312 627.359375 451.101562 627.644531 C 451.007812 627.925781 450.929688 628.226562 450.867188 628.542969 C 450.800781 628.855469 450.753906 629.179688 450.71875 629.515625 C 450.6875 629.847656 450.671875 630.1875 450.671875 630.527344 Z M 450.671875 630.527344 " fill-opacity="1" fill-rule="nonzero"/><path fill="#1f1f1f" d="M 453.230469 627.707031 C 453.332031 627.707031 453.300781 627.71875 453.230469 627.738281 C 453.15625 627.71875 453.125 627.707031 453.230469 627.707031 Z M 457.15625 625.8125 C 456.289062 624.054688 454.910156 622.96875 453.230469 622.96875 C 451.542969 622.96875 450.167969 624.054688 449.300781 625.8125 C 448.683594 627.0625 448.300781 628.734375 448.300781 630.527344 C 448.300781 632.320312 448.683594 633.988281 449.300781 635.242188 C 450.167969 637 451.542969 638.085938 453.230469 638.085938 C 454.910156 638.085938 456.289062 637 457.15625 635.242188 C 457.769531 633.988281 458.152344 632.316406 458.152344 630.527344 C 458.152344 628.734375 457.773438 627.066406 457.15625 625.8125 Z M 453.230469 628.792969 C 453.347656 629.296875 453.417969 629.886719 453.417969 630.527344 C 453.417969 631.167969 453.347656 631.757812 453.230469 632.261719 C 453.109375 631.757812 453.039062 631.167969 453.039062 630.527344 C 453.039062 629.886719 453.109375 629.296875 453.230469 628.792969 Z M 453.230469 633.316406 C 453.300781 633.335938 453.332031 633.347656 453.230469 633.347656 C 453.125 633.347656 453.15625 633.335938 453.230469 633.316406 Z M 453.230469 633.316406 " fill-opacity="1" fill-rule="nonzero"/><path fill="#1f1f1f" d="M 444.410156 648.765625 C 444.136719 647.488281 442.882812 646.671875 441.605469 646.945312 C 440.328125 647.214844 439.511719 648.46875 439.785156 649.746094 C 440.601562 653.546875 442.316406 656.550781 444.417969 658.890625 C 447.097656 661.871094 450.402344 663.757812 453.289062 664.855469 C 454.511719 665.320312 455.878906 664.707031 456.339844 663.488281 C 456.804688 662.265625 456.195312 660.898438 454.972656 660.433594 C 452.660156 659.554688 450.03125 658.0625 447.933594 655.726562 C 446.335938 653.949219 445.035156 651.664062 444.410156 648.765625 Z M 444.410156 648.765625 " fill-opacity="1" fill-rule="nonzero"/><path fill="#1f1f1f" d="M 464.566406 634.628906 C 464.839844 633.351562 464.023438 632.097656 462.746094 631.824219 C 461.46875 631.554688 460.214844 632.371094 459.941406 633.648438 C 459.183594 637.175781 459.3125 641.484375 459.914062 645.304688 C 460.554688 649.371094 461.808594 653.039062 463.167969 654.859375 C 463.058594 654.925781 462.9375 654.988281 462.804688 655.054688 C 461.597656 655.636719 459.804688 655.9375 457.960938 655.585938 C 456.679688 655.339844 455.441406 656.179688 455.195312 657.460938 C 454.949219 658.746094 455.789062 659.984375 457.074219 660.226562 C 459.972656 660.78125 462.859375 660.273438 464.859375 659.308594 C 465.8125 658.851562 466.613281 658.261719 467.183594 657.601562 C 467.980469 656.683594 468.367188 655.625 468.242188 654.496094 C 468.140625 653.601562 467.726562 652.761719 466.949219 652.039062 C 466.097656 651.242188 465.148438 648.234375 464.578125 644.582031 C 464.058594 641.269531 463.933594 637.578125 464.566406 634.628906 Z M 464.566406 634.628906 " fill-opacity="1" fill-rule="nonzero"/><path fill="#1f1f1f" d="M 463.820312 616.589844 C 463.019531 617.621094 463.207031 619.109375 464.238281 619.910156 C 465.269531 620.714844 466.757812 620.527344 467.558594 619.496094 C 472.070312 613.691406 474.320312 607.394531 474.871094 601.425781 C 475.511719 594.503906 473.855469 588.007812 470.792969 583.195312 C 470.785156 583.183594 471.128906 583.003906 471.667969 582.660156 C 474.074219 581.128906 479.015625 579.699219 484.230469 578.191406 C 491.390625 576.117188 499.03125 573.90625 502.78125 570.597656 C 506.042969 567.722656 506.777344 564.363281 503.160156 560.261719 C 498.136719 554.566406 490.101562 552.273438 481.636719 551.890625 C 470.59375 551.394531 458.664062 554.179688 452.171875 556.785156 L 453.441406 553.667969 C 455.25 549.261719 457.394531 544.039062 456.496094 540.410156 C 455.621094 536.863281 452.71875 535.007812 446.097656 536.640625 C 434.160156 539.585938 410.332031 547.011719 394.449219 560.667969 C 384.363281 569.339844 377.449219 580.488281 378.535156 594.554688 C 374.71875 598.878906 360.476562 619.246094 392.148438 654.996094 C 393.015625 655.972656 394.503906 656.066406 395.480469 655.199219 C 396.457031 654.335938 396.546875 652.847656 395.683594 651.871094 C 362.890625 614.855469 382.535156 597.191406 382.589844 597.140625 C 383.113281 596.652344 383.410156 595.933594 383.332031 595.167969 C 381.984375 582.402344 388.265625 572.214844 397.519531 564.257812 C 412.667969 551.230469 435.683594 544.078125 447.226562 541.230469 C 450.449219 540.433594 451.707031 540.71875 451.910156 541.535156 C 452.4375 543.679688 450.613281 548.121094 449.078125 551.871094 C 447.574219 555.539062 446.285156 558.683594 447.175781 560.617188 C 448.054688 562.519531 449.738281 563.0625 452.628906 561.730469 C 458.171875 559.171875 470.253906 556.105469 481.433594 556.609375 C 488.746094 556.9375 495.582031 558.800781 499.628906 563.386719 C 500.96875 564.902344 500.761719 566.089844 499.65625 567.0625 C 496.707031 569.664062 489.585938 571.726562 482.917969 573.65625 C 477.375 575.261719 472.121094 576.78125 469.136719 578.679688 C 466.125 580.597656 464.988281 582.859375 466.8125 585.730469 C 469.347656 589.710938 470.714844 595.148438 470.171875 601 C 469.699219 606.113281 467.75 611.539062 463.820312 616.589844 Z M 463.820312 616.589844 " fill-opacity="1" fill-rule="nonzero"/></svg>