<svg xmlns="http://www.w3.org/2000/svg" xmlns:xlink="http://www.w3.org/1999/xlink" width="500" zoomAndPan="magnify" viewBox="0 0 375 374.999991" height="500" preserveAspectRatio="xMidYMid meet" version="1.0"><defs><clipPath id="cdcf786d84"><path d="M 3.214844 0 L 375 0 L 375 372 L 3.214844 372 Z M 3.214844 0 " clip-rule="nonzero"/></clipPath></defs><g clip-path="url(#cdcf786d84)"><path fill="#eec124" d="M 375.230469 185.839844 C 375.230469 288.449219 291.976562 371.625 189.273438 371.625 C 86.566406 371.625 3.3125 288.449219 3.3125 185.839844 C 3.3125 83.234375 86.566406 0.0585938 189.273438 0.0585938 C 291.976562 0.0546875 375.230469 83.234375 375.230469 185.839844 " fill-opacity="1" fill-rule="nonzero"/></g><path fill="#23255d" d="M 272.59375 323.550781 L 110.222656 323.550781 L 110.222656 168.972656 L 272.59375 168.972656 L 272.59375 323.550781 " fill-opacity="1" fill-rule="nonzero"/><path fill="#ffffff" d="M 297.769531 372.132812 C 288.566406 378.992188 278.691406 385.003906 268.261719 390.03125 C 266.675781 390.800781 265.089844 391.535156 263.476562 392.253906 C 240.828125 402.40625 215.710938 408.046875 189.273438 408.046875 C 162.832031 408.046875 137.730469 402.40625 115.078125 392.253906 C 113.457031 391.535156 111.859375 390.800781 110.28125 390.03125 C 99.851562 384.992188 89.976562 378.992188 80.789062 372.132812 C 82.398438 336.21875 101.496094 304.847656 129.785156 286.320312 C 146.871094 275.117188 167.308594 268.613281 189.273438 268.613281 C 192.625 268.613281 195.9375 268.765625 199.195312 269.0625 C 217.394531 270.707031 234.277344 276.824219 248.761719 286.320312 C 261.785156 294.851562 272.855469 306.101562 281.167969 319.253906 C 290.925781 334.691406 296.878906 352.757812 297.769531 372.132812 " fill-opacity="1" fill-rule="nonzero"/><path fill="#fbd5c0" d="M 248.761719 286.320312 C 247.101562 298.847656 241.574219 310.171875 233.390625 319.019531 C 222.425781 330.882812 206.726562 338.324219 189.273438 338.324219 C 161.316406 338.324219 137.824219 319.21875 131.160156 293.359375 C 130.566406 291.066406 130.105469 288.710938 129.785156 286.320312 C 146.871094 275.117188 167.308594 268.613281 189.273438 268.613281 C 192.625 268.613281 195.9375 268.753906 199.207031 269.0625 C 199.773438 269.109375 200.34375 269.167969 200.898438 269.226562 C 201.253906 269.261719 201.609375 269.300781 201.953125 269.347656 C 202.34375 269.382812 202.734375 269.441406 203.113281 269.488281 C 203.351562 269.511719 203.597656 269.546875 203.835938 269.582031 C 204.179688 269.617188 204.535156 269.675781 204.890625 269.726562 C 205.164062 269.761719 205.433594 269.808594 205.71875 269.84375 C 205.957031 269.878906 206.191406 269.914062 206.429688 269.960938 C 206.832031 270.019531 207.222656 270.089844 207.625 270.152344 C 209.355469 270.445312 211.070312 270.777344 212.765625 271.15625 L 213.902344 271.40625 C 214.113281 271.464844 214.339844 271.511719 214.550781 271.570312 C 214.953125 271.664062 215.371094 271.757812 215.761719 271.867188 C 215.832031 271.878906 215.890625 271.890625 215.9375 271.902344 C 216.445312 272.03125 216.957031 272.160156 217.453125 272.304688 C 217.996094 272.433594 218.53125 272.585938 219.050781 272.742188 C 219.65625 272.90625 220.246094 273.085938 220.851562 273.261719 C 221.3125 273.402344 221.773438 273.546875 222.238281 273.699219 C 222.53125 273.792969 222.839844 273.890625 223.125 273.984375 C 223.609375 274.136719 224.097656 274.304688 224.570312 274.46875 C 225.160156 274.667969 225.742188 274.871094 226.320312 275.082031 C 226.371094 275.105469 226.40625 275.117188 226.441406 275.132812 C 227.042969 275.34375 227.636719 275.570312 228.226562 275.792969 C 228.667969 275.972656 229.117188 276.136719 229.566406 276.324219 C 230.738281 276.785156 231.886719 277.273438 233.023438 277.769531 L 234.515625 278.441406 C 234.964844 278.644531 235.414062 278.855469 235.867188 279.070312 C 236.28125 279.269531 236.683594 279.460938 237.085938 279.660156 C 237.464844 279.839844 237.832031 280.027344 238.199219 280.21875 C 238.433594 280.335938 238.683594 280.453125 238.921875 280.585938 C 239.902344 281.082031 240.863281 281.601562 241.808594 282.121094 C 242.152344 282.3125 242.507812 282.511719 242.839844 282.703125 C 243.066406 282.832031 243.277344 282.949219 243.492188 283.070312 L 244.296875 283.542969 L 245.113281 284.039062 L 245.644531 284.359375 C 246.15625 284.652344 246.652344 284.960938 247.148438 285.28125 C 247.695312 285.625 248.226562 285.964844 248.761719 286.320312 " fill-opacity="1" fill-rule="nonzero"/><path fill="#fbd5c0" d="M 210.183594 244.304688 L 210.183594 285.398438 C 210.183594 295.796875 201.667969 304.3125 191.273438 304.3125 L 187.269531 304.3125 C 176.875 304.3125 168.375 295.796875 168.375 285.398438 L 168.375 244.304688 C 168.375 233.90625 176.875 225.398438 187.269531 225.398438 L 191.273438 225.398438 C 201.667969 225.398438 210.183594 233.90625 210.183594 244.304688 " fill-opacity="1" fill-rule="nonzero"/><path fill="#f8a29e" d="M 210.183594 244.304688 L 210.183594 266.046875 C 203.964844 269.5 197.371094 271.511719 190.679688 271.511719 C 182.785156 271.511719 175.253906 269.3125 168.375 265.488281 L 168.375 244.304688 C 168.375 233.90625 176.875 225.398438 187.269531 225.398438 L 191.273438 225.398438 C 201.667969 225.398438 210.183594 233.90625 210.183594 244.304688 " fill-opacity="1" fill-rule="nonzero"/><path fill="#fbd5c0" d="M 253.746094 218.824219 C 253.746094 218.824219 266.128906 214.609375 274.039062 200.816406 C 282.636719 185.839844 277.238281 176.507812 275.53125 174.484375 C 270.878906 168.960938 263.691406 172.511719 262.507812 174.484375 C 261.324219 176.460938 244.175781 207.574219 253.746094 218.824219 " fill-opacity="1" fill-rule="nonzero"/><path fill="#f8a29e" d="M 265.882812 179.394531 C 265.882812 179.394531 273.742188 180.398438 270.984375 191.4375 C 268.214844 202.484375 260.957031 206.851562 251.082031 212.492188 C 241.21875 218.136719 256.019531 181.640625 265.882812 179.394531 " fill-opacity="1" fill-rule="nonzero"/><path fill="#fbd5c0" d="M 128.019531 218.824219 C 128.019531 218.824219 115.636719 214.609375 107.726562 200.816406 C 99.117188 185.839844 104.515625 176.507812 106.222656 174.484375 C 110.875 168.960938 118.0625 172.511719 119.246094 174.484375 C 120.429688 176.460938 137.585938 207.574219 128.019531 218.824219 " fill-opacity="1" fill-rule="nonzero"/><path fill="#f8a29e" d="M 115.871094 179.394531 C 115.871094 179.394531 108.023438 180.398438 110.78125 191.4375 C 113.539062 202.484375 120.808594 206.851562 130.671875 212.492188 C 140.546875 218.136719 125.746094 181.640625 115.871094 179.394531 " fill-opacity="1" fill-rule="nonzero"/><path fill="#fbd5c0" d="M 265.882812 172.109375 C 265.882812 126.765625 232.382812 90 191.046875 90 C 149.722656 90 116.203125 126.765625 116.203125 172.109375 C 116.203125 217.449219 149.722656 264.851562 191.046875 264.851562 C 229.886719 264.851562 265.882812 217.070312 265.882812 172.109375 " fill-opacity="1" fill-rule="nonzero"/><path fill="#23255d" d="M 271.566406 144.320312 C 268.378906 114.78125 247.835938 68.421875 197.832031 74.335938 C 176.519531 69.605469 110.199219 78.902344 110.199219 171.527344 C 110.199219 171.527344 123.449219 182.1875 153.488281 187.816406 C 154.863281 166.582031 158.757812 150.636719 158.757812 150.636719 C 155.703125 167.648438 162.335938 179.003906 162.617188 189.296875 C 187.898438 192.726562 223.054688 192.40625 269.648438 181.476562 C 269.648438 181.476562 274.703125 173.363281 271.566406 144.320312 " fill-opacity="1" fill-rule="nonzero"/><path fill="#23255d" d="M 133.929688 277.414062 L 110.222656 277.414062 L 110.222656 168.972656 L 133.929688 168.972656 L 133.929688 277.414062 " fill-opacity="1" fill-rule="nonzero"/><path fill="#23255d" d="M 272.59375 277.414062 L 248.878906 277.414062 L 248.878906 168.972656 L 272.59375 168.972656 L 272.59375 277.414062 " fill-opacity="1" fill-rule="nonzero"/></svg>