<svg xmlns="http://www.w3.org/2000/svg" xmlns:xlink="http://www.w3.org/1999/xlink" width="500" zoomAndPan="magnify" viewBox="0 0 375 374.999991" height="500" preserveAspectRatio="xMidYMid meet" version="1.0"><path fill="#eec124" d="M 189.410156 1.074219 C 86.457031 0.0234375 2.136719 82.664062 1.082031 185.664062 C 0.0273438 288.65625 82.644531 373.007812 185.601562 374.050781 C 288.570312 375.109375 372.875 292.46875 373.929688 189.472656 C 374.988281 86.46875 292.378906 2.117188 189.410156 1.0625 " fill-opacity="1" fill-rule="nonzero"/><path fill="#ffffff" d="M 294.363281 375.683594 C 285.066406 382.476562 275.105469 388.402344 264.601562 393.34375 C 263.011719 394.101562 261.394531 394.828125 259.78125 395.527344 C 236.964844 405.480469 211.726562 410.894531 185.234375 410.621094 C 158.726562 410.347656 133.617188 404.421875 111.003906 394.007812 C 109.402344 393.269531 107.800781 392.511719 106.230469 391.726562 C 95.820312 386.5625 85.980469 380.433594 76.839844 373.464844 C 78.824219 337.421875 98.300781 306.128906 126.839844 287.820312 C 144.089844 276.75 164.648438 270.433594 186.65625 270.648438 C 190.015625 270.683594 193.339844 270.875 196.617188 271.207031 C 214.828125 273.035156 231.695312 279.363281 246.117188 289.042969 C 259.082031 297.734375 270.0625 309.148438 278.265625 322.433594 C 287.890625 338.027344 293.683594 356.21875 294.359375 375.683594 " fill-opacity="1" fill-rule="nonzero"/><path fill="#ba5c21" d="M 246.105469 289.042969 C 244.324219 301.59375 238.664062 312.910156 230.367188 321.699219 C 219.253906 333.503906 203.441406 340.804688 185.945312 340.628906 C 157.917969 340.34375 134.566406 320.925781 128.144531 294.898438 C 127.574219 292.59375 127.136719 290.230469 126.839844 287.820312 C 144.089844 276.75 164.636719 270.433594 186.65625 270.660156 C 190.015625 270.695312 193.339844 270.875 196.617188 271.207031 C 197.1875 271.265625 197.757812 271.324219 198.3125 271.394531 C 198.671875 271.429688 199.015625 271.46875 199.359375 271.527344 C 199.75 271.5625 200.140625 271.621094 200.523438 271.679688 C 200.757812 271.703125 201.007812 271.738281 201.246094 271.777344 C 201.589844 271.824219 201.945312 271.882812 202.304688 271.929688 C 202.574219 271.976562 202.847656 272.023438 203.132812 272.0625 C 203.371094 272.097656 203.609375 272.132812 203.847656 272.191406 C 204.25 272.25 204.640625 272.320312 205.046875 272.382812 C 206.765625 272.703125 208.488281 273.058594 210.183594 273.449219 C 210.566406 273.53125 210.945312 273.628906 211.324219 273.710938 C 211.539062 273.769531 211.753906 273.816406 211.964844 273.890625 C 212.371094 273.984375 212.785156 274.078125 213.175781 274.199219 C 213.246094 274.199219 213.308594 274.222656 213.355469 274.234375 C 213.863281 274.363281 214.375 274.496094 214.875 274.648438 C 215.421875 274.792969 215.941406 274.945312 216.464844 275.101562 C 217.070312 275.277344 217.664062 275.457031 218.269531 275.648438 C 218.730469 275.789062 219.195312 275.945312 219.65625 276.097656 C 219.953125 276.191406 220.25 276.300781 220.535156 276.394531 C 221.023438 276.5625 221.511719 276.726562 221.984375 276.894531 C 222.578125 277.109375 223.160156 277.308594 223.730469 277.535156 C 223.777344 277.558594 223.8125 277.570312 223.847656 277.582031 C 224.453125 277.796875 225.046875 278.035156 225.640625 278.257812 C 226.082031 278.449219 226.519531 278.617188 226.96875 278.804688 C 228.144531 279.292969 229.285156 279.78125 230.425781 280.289062 C 230.921875 280.527344 231.421875 280.753906 231.910156 280.992188 C 232.359375 281.191406 232.8125 281.40625 233.261719 281.632812 C 233.664062 281.835938 234.070312 282.023438 234.472656 282.238281 C 234.851562 282.414062 235.222656 282.617188 235.589844 282.808594 C 235.828125 282.925781 236.0625 283.046875 236.300781 283.175781 C 237.285156 283.6875 238.246094 284.222656 239.1875 284.753906 C 239.53125 284.945312 239.886719 285.160156 240.21875 285.347656 C 240.433594 285.480469 240.644531 285.597656 240.859375 285.71875 L 241.667969 286.203125 C 241.941406 286.371094 242.210938 286.546875 242.484375 286.714844 C 242.652344 286.820312 242.828125 286.929688 243.007812 287.035156 C 243.519531 287.34375 244.015625 287.652344 244.503906 287.984375 C 245.050781 288.328125 245.585938 288.6875 246.105469 289.042969 " fill-opacity="1" fill-rule="nonzero"/><path fill="#ba5c21" d="M 213.472656 241.054688 L 212.9375 293.222656 C 212.796875 306.414062 201.898438 317.117188 188.710938 316.984375 L 183.652344 316.925781 C 170.464844 316.792969 159.792969 305.882812 159.9375 292.6875 L 160.46875 240.519531 C 160.601562 227.328125 171.5 216.652344 184.6875 216.792969 L 189.730469 216.839844 C 202.921875 216.972656 213.605469 227.871094 213.472656 241.054688 " fill-opacity="1" fill-rule="nonzero"/><path fill="#9e392b" d="M 213.472656 241.054688 L 213.1875 268.664062 C 205.257812 272.976562 196.878906 275.433594 188.390625 275.339844 C 178.382812 275.242188 168.863281 272.359375 160.195312 267.417969 L 160.46875 240.519531 C 160.601562 227.328125 171.5 216.652344 184.6875 216.792969 L 189.730469 216.839844 C 202.921875 216.972656 213.605469 227.871094 213.472656 241.054688 " fill-opacity="1" fill-rule="nonzero"/><path fill="#ba5c21" d="M 251.792969 221.339844 C 251.792969 221.339844 264.257812 217.234375 272.339844 203.480469 C 281.113281 188.53125 275.796875 179.101562 274.109375 177.058594 C 269.492188 171.464844 262.25 174.957031 261.050781 176.917969 C 259.839844 178.886719 242.332031 209.941406 251.792969 221.339844 " fill-opacity="1" fill-rule="nonzero"/><path fill="#9e392b" d="M 264.386719 181.878906 C 264.386719 181.878906 272.246094 182.972656 269.363281 194.027344 C 266.476562 205.085938 259.152344 209.394531 249.203125 214.964844 C 239.257812 220.523438 254.464844 184.03125 264.386719 181.878906 " fill-opacity="1" fill-rule="nonzero"/><path fill="#ba5c21" d="M 125.773438 220.046875 C 125.773438 220.046875 113.390625 215.6875 105.601562 201.769531 C 97.128906 186.640625 102.636719 177.332031 104.367188 175.324219 C 109.09375 169.828125 116.261719 173.460938 117.425781 175.457031 C 118.589844 177.4375 135.46875 208.847656 125.773438 220.046875 " fill-opacity="1" fill-rule="nonzero"/><path fill="#9e392b" d="M 113.996094 180.347656 C 113.996094 180.347656 106.113281 181.273438 108.773438 192.390625 C 111.417969 203.492188 118.660156 207.957031 128.488281 213.730469 C 138.332031 219.488281 123.859375 182.699219 113.996094 180.347656 " fill-opacity="1" fill-rule="nonzero"/><path fill="#351f16" d="M 115.230469 85.179688 C 115.765625 93.777344 114.410156 173.03125 114.410156 173.03125 L 264.457031 174.566406 C 264.457031 174.566406 273.089844 105.785156 265.347656 87.304688 C 257.609375 68.816406 250.285156 86.558594 250.285156 86.558594 C 250.285156 86.558594 239.945312 70.3125 215.113281 80.84375 C 215.113281 80.84375 211.289062 70.515625 195.238281 73.71875 C 195.238281 73.71875 176.4375 54.921875 164.992188 70.242188 C 164.992188 70.242188 147.921875 57 140.65625 71.179688 C 140.65625 71.179688 113.757812 62 115.230469 85.179688 " fill-opacity="1" fill-rule="nonzero"/><path fill="#ba5c21" d="M 264.457031 174.566406 C 264.921875 129.046875 231.707031 91.804688 190.277344 91.390625 C 148.835938 90.964844 114.875 127.515625 114.410156 173.03125 C 113.949219 218.550781 147.042969 266.480469 188.472656 266.894531 C 227.421875 267.296875 263.996094 219.703125 264.457031 174.566406 " fill-opacity="1" fill-rule="nonzero"/><path fill="#351f16" d="M 264.089844 105.105469 L 198.707031 82.460938 L 191.988281 82.402344 L 188.59375 82.355469 L 181.875 82.292969 L 116.039062 103.585938 L 114.257812 173.03125 C 115.976562 157.59375 129.867188 117.386719 142.855469 124.046875 C 153.40625 129.460938 178.871094 131.898438 188.070312 132.621094 L 188.070312 132.824219 C 188.070312 132.824219 188.6875 132.800781 189.765625 132.742188 C 190.847656 132.824219 191.464844 132.859375 191.464844 132.859375 L 191.476562 132.65625 C 200.6875 132.121094 226.199219 130.210938 236.847656 125.007812 C 249.976562 118.621094 263.046875 159.089844 264.457031 174.566406 L 264.089844 105.105469 " fill-opacity="1" fill-rule="nonzero"/></svg>