<svg xmlns="http://www.w3.org/2000/svg" xmlns:xlink="http://www.w3.org/1999/xlink" width="1587" zoomAndPan="magnify" viewBox="0 0 1190.25 1683.749949" height="2245" preserveAspectRatio="xMidYMid meet" version="1.0"><defs><clipPath id="a39b064963"><path d="M 0 0.40625 L 1189.5 0.40625 L 1189.5 1683.09375 L 0 1683.09375 Z M 0 0.40625 " clip-rule="nonzero"/></clipPath><clipPath id="fa6d454e12"><path d="M 212 419 L 990 419 L 990 1196.710938 L 212 1196.710938 Z M 212 419 " clip-rule="nonzero"/></clipPath></defs><g clip-path="url(#a39b064963)"><path fill="#ffffff" d="M 0 0.40625 L 1189.5 0.40625 L 1189.5 1683.09375 L 0 1683.09375 Z M 0 0.40625 " fill-opacity="1" fill-rule="nonzero"/><path fill="#ffffff" d="M 0 0.40625 L 1189.5 0.40625 L 1189.5 1683.09375 L 0 1683.09375 Z M 0 0.40625 " fill-opacity="1" fill-rule="nonzero"/></g><path fill="#fefefe" d="M 981.738281 811.023438 C 981.738281 817.285156 981.585938 823.539062 981.277344 829.792969 C 980.972656 836.046875 980.511719 842.289062 979.898438 848.519531 C 979.28125 854.75 978.515625 860.960938 977.597656 867.15625 C 976.679688 873.347656 975.609375 879.515625 974.386719 885.65625 C 973.167969 891.796875 971.796875 897.902344 970.273438 903.976562 C 968.753906 910.050781 967.082031 916.082031 965.265625 922.074219 C 963.449219 928.0625 961.484375 934.007812 959.375 939.902344 C 957.265625 945.796875 955.015625 951.636719 952.617188 957.421875 C 950.222656 963.203125 947.6875 968.925781 945.007812 974.585938 C 942.332031 980.246094 939.519531 985.835938 936.566406 991.359375 C 933.617188 996.878906 930.53125 1002.324219 927.3125 1007.695312 C 924.09375 1013.066406 920.746094 1018.351562 917.265625 1023.558594 C 913.789062 1028.765625 910.183594 1033.882812 906.453125 1038.910156 C 902.726562 1043.9375 898.875 1048.875 894.902344 1053.710938 C 890.929688 1058.550781 886.84375 1063.292969 882.636719 1067.929688 C 878.433594 1072.570312 874.117188 1077.101562 869.691406 1081.53125 C 865.265625 1085.957031 860.730469 1090.273438 856.09375 1094.476562 C 851.453125 1098.679688 846.714844 1102.769531 841.875 1106.742188 C 837.035156 1110.714844 832.101562 1114.5625 827.070312 1118.292969 C 822.042969 1122.023438 816.925781 1125.625 811.71875 1129.105469 C 806.515625 1132.582031 801.226562 1135.933594 795.855469 1139.152344 C 790.488281 1142.371094 785.039062 1145.453125 779.519531 1148.40625 C 773.996094 1151.355469 768.40625 1154.171875 762.746094 1156.847656 C 757.089844 1159.523438 751.367188 1162.0625 745.582031 1164.457031 C 739.796875 1166.851562 733.957031 1169.105469 728.0625 1171.214844 C 722.167969 1173.324219 716.226562 1175.285156 710.234375 1177.105469 C 704.242188 1178.921875 698.210938 1180.589844 692.136719 1182.113281 C 686.066406 1183.632812 679.957031 1185.003906 673.816406 1186.226562 C 667.675781 1187.449219 661.511719 1188.519531 655.316406 1189.4375 C 649.125 1190.355469 642.914062 1191.121094 636.679688 1191.734375 C 630.449219 1192.347656 624.210938 1192.808594 617.957031 1193.117188 C 611.703125 1193.421875 605.445312 1193.578125 599.183594 1193.578125 C 592.925781 1193.578125 586.667969 1193.421875 580.414062 1193.117188 C 574.160156 1192.808594 567.917969 1192.347656 561.6875 1191.734375 C 555.457031 1191.121094 549.246094 1190.355469 543.050781 1189.4375 C 536.859375 1188.519531 530.691406 1187.449219 524.550781 1186.226562 C 518.410156 1185.003906 512.304688 1183.632812 506.230469 1182.113281 C 500.160156 1180.589844 494.125 1178.921875 488.136719 1177.105469 C 482.144531 1175.285156 476.199219 1173.324219 470.304688 1171.214844 C 464.410156 1169.105469 458.570312 1166.851562 452.789062 1164.457031 C 447.003906 1162.0625 441.28125 1159.523438 435.621094 1156.847656 C 429.960938 1154.171875 424.371094 1151.355469 418.851562 1148.40625 C 413.328125 1145.453125 407.882812 1142.371094 402.511719 1139.152344 C 397.140625 1135.933594 391.855469 1132.582031 386.648438 1129.105469 C 381.445312 1125.625 376.328125 1122.023438 371.296875 1118.292969 C 366.269531 1114.5625 361.335938 1110.714844 356.496094 1106.742188 C 351.65625 1102.769531 346.917969 1098.679688 342.277344 1094.476562 C 337.636719 1090.273438 333.105469 1085.957031 328.679688 1081.53125 C 324.25 1077.101562 319.933594 1072.570312 315.730469 1067.929688 C 311.527344 1063.292969 307.4375 1058.550781 303.464844 1053.710938 C 299.496094 1048.875 295.644531 1043.9375 291.914062 1038.910156 C 288.183594 1033.882812 284.582031 1028.765625 281.101562 1023.558594 C 277.625 1018.351562 274.277344 1013.066406 271.058594 1007.695312 C 267.839844 1002.324219 264.753906 996.878906 261.800781 991.359375 C 258.851562 985.835938 256.035156 980.246094 253.359375 974.585938 C 250.683594 968.925781 248.148438 963.203125 245.75 957.421875 C 243.355469 951.636719 241.101562 945.796875 238.992188 939.902344 C 236.882812 934.007812 234.921875 928.0625 233.101562 922.074219 C 231.285156 916.082031 229.617188 910.050781 228.09375 903.976562 C 226.574219 897.902344 225.203125 891.796875 223.980469 885.65625 C 222.761719 879.515625 221.691406 873.347656 220.769531 867.15625 C 219.851562 860.960938 219.085938 854.75 218.472656 848.519531 C 217.859375 842.289062 217.398438 836.046875 217.089844 829.792969 C 216.785156 823.539062 216.628906 817.285156 216.628906 811.023438 C 216.628906 804.761719 216.785156 798.503906 217.089844 792.253906 C 217.398438 786 217.859375 779.757812 218.472656 773.527344 C 219.085938 767.296875 219.851562 761.082031 220.769531 754.890625 C 221.691406 748.699219 222.761719 742.53125 223.980469 736.390625 C 225.203125 730.25 226.574219 724.144531 228.09375 718.070312 C 229.617188 711.996094 231.285156 705.964844 233.101562 699.972656 C 234.921875 693.980469 236.882812 688.039062 238.992188 682.144531 C 241.101562 676.25 243.355469 670.410156 245.75 664.625 C 248.148438 658.839844 250.683594 653.121094 253.359375 647.460938 C 256.035156 641.800781 258.851562 636.210938 261.800781 630.6875 C 264.753906 625.167969 267.839844 619.722656 271.058594 614.351562 C 274.277344 608.980469 277.625 603.691406 281.101562 598.488281 C 284.582031 593.28125 288.183594 588.164062 291.914062 583.136719 C 295.644531 578.105469 299.496094 573.171875 303.464844 568.332031 C 307.4375 563.492188 311.527344 558.753906 315.730469 554.117188 C 319.933594 549.476562 324.25 544.945312 328.679688 540.515625 C 333.105469 536.089844 337.636719 531.773438 342.277344 527.570312 C 346.917969 523.363281 351.65625 519.277344 356.496094 515.304688 C 361.335938 511.332031 366.269531 507.480469 371.296875 503.753906 C 376.328125 500.023438 381.445312 496.417969 386.648438 492.941406 C 391.855469 489.460938 397.140625 486.113281 402.511719 482.894531 C 407.882812 479.675781 413.328125 476.589844 418.851562 473.640625 C 424.371094 470.6875 429.960938 467.875 435.621094 465.199219 C 441.28125 462.519531 447.003906 459.984375 452.789062 457.589844 C 458.570312 455.191406 464.410156 452.941406 470.304688 450.832031 C 476.199219 448.722656 482.144531 446.757812 488.136719 444.941406 C 494.125 443.125 500.160156 441.453125 506.230469 439.933594 C 512.304688 438.414062 518.410156 437.042969 524.550781 435.820312 C 530.691406 434.597656 536.859375 433.527344 543.050781 432.609375 C 549.246094 431.691406 555.457031 430.925781 561.6875 430.3125 C 567.917969 429.699219 574.160156 429.238281 580.414062 428.929688 C 586.667969 428.621094 592.925781 428.46875 599.183594 428.46875 C 605.445312 428.46875 611.703125 428.621094 617.957031 428.929688 C 624.210938 429.238281 630.449219 429.699219 636.679688 430.3125 C 642.914062 430.925781 649.125 431.691406 655.316406 432.609375 C 661.511719 433.527344 667.675781 434.597656 673.816406 435.820312 C 679.957031 437.042969 686.066406 438.414062 692.136719 439.933594 C 698.210938 441.453125 704.242188 443.125 710.234375 444.941406 C 716.226562 446.757812 722.167969 448.722656 728.0625 450.832031 C 733.957031 452.941406 739.796875 455.191406 745.582031 457.589844 C 751.367188 459.984375 757.089844 462.519531 762.746094 465.199219 C 768.40625 467.875 773.996094 470.6875 779.519531 473.640625 C 785.039062 476.589844 790.488281 479.675781 795.855469 482.894531 C 801.226562 486.113281 806.515625 489.460938 811.71875 492.941406 C 816.925781 496.417969 822.042969 500.023438 827.070312 503.753906 C 832.101562 507.480469 837.035156 511.332031 841.875 515.304688 C 846.714844 519.277344 851.453125 523.363281 856.09375 527.570312 C 860.730469 531.773438 865.265625 536.089844 869.691406 540.515625 C 874.117188 544.945312 878.433594 549.476562 882.636719 554.117188 C 886.84375 558.753906 890.929688 563.492188 894.902344 568.332031 C 898.875 573.171875 902.726562 578.105469 906.453125 583.136719 C 910.183594 588.164062 913.789062 593.28125 917.265625 598.488281 C 920.746094 603.691406 924.09375 608.980469 927.3125 614.351562 C 930.53125 619.722656 933.617188 625.167969 936.566406 630.6875 C 939.519531 636.210938 942.332031 641.800781 945.007812 647.460938 C 947.6875 653.121094 950.222656 658.839844 952.617188 664.625 C 955.015625 670.410156 957.265625 676.25 959.375 682.144531 C 961.484375 688.039062 963.449219 693.980469 965.265625 699.972656 C 967.082031 705.964844 968.753906 711.996094 970.273438 718.070312 C 971.796875 724.144531 973.167969 730.25 974.386719 736.390625 C 975.609375 742.53125 976.679688 748.699219 977.597656 754.890625 C 978.515625 761.082031 979.28125 767.296875 979.898438 773.527344 C 980.511719 779.757812 980.972656 786 981.277344 792.253906 C 981.585938 798.503906 981.738281 804.761719 981.738281 811.023438 Z M 981.738281 811.023438 " fill-opacity="1" fill-rule="nonzero"/><path fill="#6093af" d="M 943.773438 405.945312 C 944.925781 402.945312 948.304688 401.445312 951.320312 402.613281 C 954.320312 403.78125 955.820312 407.160156 954.65625 410.160156 C 954.414062 410.78125 872.554688 626.132812 672.675781 709.796875 C 669.691406 711.023438 666.28125 709.613281 665.039062 706.644531 C 663.796875 703.65625 665.21875 700.230469 668.191406 698.988281 C 863.429688 617.28125 943.53125 406.554688 943.773438 405.945312 Z M 943.773438 405.945312 " fill-opacity="1" fill-rule="nonzero"/><g clip-path="url(#fa6d454e12)"><path fill="#245261" d="M 600.746094 419.722656 C 708.066406 419.722656 805.230469 463.238281 875.554688 533.5625 C 945.894531 603.898438 989.394531 701.066406 989.394531 808.386719 C 989.394531 915.707031 945.894531 1012.871094 875.554688 1083.195312 C 805.230469 1153.535156 708.066406 1197.03125 600.746094 1197.03125 C 493.425781 1197.03125 396.261719 1153.535156 325.921875 1083.195312 C 255.582031 1012.871094 212.082031 915.707031 212.082031 808.386719 C 212.082031 701.066406 255.582031 603.898438 325.921875 533.5625 C 396.261719 463.238281 493.425781 419.722656 600.746094 419.722656 Z M 835.953125 573.179688 C 775.753906 512.980469 692.589844 475.753906 600.746094 475.753906 C 508.886719 475.753906 425.722656 512.980469 365.523438 573.179688 C 305.339844 633.363281 268.101562 716.523438 268.101562 808.386719 C 268.101562 900.246094 305.339844 983.40625 365.523438 1043.59375 C 425.722656 1103.792969 508.886719 1141.015625 600.746094 1141.015625 C 692.589844 1141.015625 775.753906 1103.792969 835.953125 1043.59375 C 896.136719 983.40625 933.375 900.246094 933.375 808.386719 C 933.375 716.523438 896.136719 633.363281 835.953125 573.179688 Z M 835.953125 573.179688 " fill-opacity="1" fill-rule="nonzero"/></g><path fill="#6093af" d="M 821.359375 692.699219 L 544.046875 692.699219 C 544.046875 692.699219 509.644531 683.546875 485.136719 693.789062 C 460.628906 704.035156 429.890625 731.105469 448.914062 788.183594 C 467.949219 845.246094 482.9375 804.277344 494.289062 790.378906 C 505.625 776.46875 525.753906 824.027344 535.257812 829.890625 C 544.773438 835.742188 556.109375 853.292969 607.339844 782.316406 L 619.765625 770.617188 C 619.765625 770.617188 757.703125 788.546875 856.472656 721.222656 C 776.722656 716.101562 763.550781 714.644531 763.550781 714.644531 C 763.550781 714.644531 791.363281 710.25 821.359375 692.699219 Z M 582.453125 768.054688 L 559.035156 766.585938 L 572.570312 795.851562 C 572.570312 795.851562 588.679688 769.328125 582.453125 768.054688 Z M 582.453125 768.054688 " fill-opacity="1" fill-rule="evenodd"/><path fill="#6093af" d="M 658.398438 754.535156 C 658.582031 751.324219 661.339844 748.851562 664.566406 749.050781 C 667.78125 749.230469 670.238281 752.003906 670.054688 755.21875 L 663.992188 852.445312 L 854.882812 1038.257812 C 857.1875 1040.5 857.230469 1044.199219 854.988281 1046.503906 C 852.746094 1048.820312 849.046875 1048.867188 846.730469 1046.625 L 654.050781 859.050781 C 652.808594 857.914062 652.0625 856.234375 652.171875 854.414062 Z M 658.398438 754.535156 " fill-opacity="1" fill-rule="nonzero"/><path fill="#6093af" d="M 596.894531 765.722656 C 595.367188 762.886719 596.410156 759.339844 599.230469 757.808594 C 602.0625 756.265625 605.609375 757.308594 607.140625 760.144531 L 634.890625 810.628906 L 868.296875 942.246094 C 871.101562 943.820312 872.085938 947.367188 870.507812 950.171875 C 868.933594 952.976562 865.386719 953.976562 862.582031 952.382812 L 628.085938 820.175781 C 627.011719 819.660156 626.054688 818.828125 625.433594 817.691406 C 625.375 817.554688 599.804688 771.054688 596.894531 765.722656 Z M 596.894531 765.722656 " fill-opacity="1" fill-rule="nonzero"/><path fill="#6093af" d="M 482.453125 776.480469 C 482.042969 773.285156 484.300781 770.359375 487.484375 769.949219 C 490.683594 769.527344 493.609375 771.785156 494.03125 774.980469 L 517.449219 952.050781 C 517.523438 952.6875 517.507812 953.324219 517.386719 953.914062 C 516.476562 959.855469 495.761719 1092.53125 450.578125 1156.640625 C 448.730469 1159.292969 445.078125 1159.914062 442.441406 1158.066406 C 439.804688 1156.21875 439.167969 1152.566406 441.03125 1149.925781 C 483.621094 1089.453125 503.988281 964.097656 505.761719 952.746094 Z M 482.453125 776.480469 " fill-opacity="1" fill-rule="nonzero"/><path fill="#6093af" d="M 483.121094 827.496094 C 483.121094 828.691406 483.0625 829.878906 482.945312 831.066406 C 482.828125 832.253906 482.652344 833.429688 482.421875 834.601562 C 482.1875 835.769531 481.898438 836.925781 481.550781 838.066406 C 481.207031 839.207031 480.804688 840.328125 480.347656 841.429688 C 479.890625 842.53125 479.382812 843.605469 478.820312 844.660156 C 478.257812 845.710938 477.648438 846.730469 476.984375 847.722656 C 476.320312 848.714844 475.613281 849.671875 474.855469 850.59375 C 474.101562 851.515625 473.300781 852.398438 472.457031 853.238281 C 471.613281 854.082031 470.730469 854.882812 469.808594 855.640625 C 468.886719 856.394531 467.929688 857.105469 466.941406 857.765625 C 465.949219 858.429688 464.925781 859.042969 463.875 859.605469 C 462.824219 860.164062 461.746094 860.675781 460.644531 861.132812 C 459.542969 861.585938 458.421875 861.988281 457.28125 862.335938 C 456.140625 862.679688 454.988281 862.96875 453.816406 863.203125 C 452.648438 863.4375 451.46875 863.609375 450.28125 863.726562 C 449.097656 863.84375 447.90625 863.902344 446.714844 863.902344 C 445.523438 863.902344 444.332031 863.84375 443.148438 863.726562 C 441.960938 863.609375 440.78125 863.4375 439.613281 863.203125 C 438.441406 862.96875 437.289062 862.679688 436.148438 862.335938 C 435.007812 861.988281 433.886719 861.585938 432.785156 861.132812 C 431.683594 860.675781 430.605469 860.164062 429.554688 859.605469 C 428.503906 859.042969 427.480469 858.429688 426.488281 857.765625 C 425.496094 857.105469 424.542969 856.394531 423.621094 855.640625 C 422.699219 854.882812 421.816406 854.082031 420.972656 853.238281 C 420.128906 852.398438 419.328125 851.515625 418.574219 850.59375 C 417.816406 849.671875 417.109375 848.714844 416.445312 847.722656 C 415.78125 846.730469 415.171875 845.710938 414.609375 844.660156 C 414.046875 843.605469 413.539062 842.53125 413.082031 841.429688 C 412.625 840.328125 412.222656 839.207031 411.878906 838.066406 C 411.53125 836.925781 411.242188 835.769531 411.007812 834.601562 C 410.777344 833.429688 410.601562 832.253906 410.484375 831.066406 C 410.367188 829.878906 410.308594 828.691406 410.308594 827.496094 C 410.308594 826.304688 410.367188 825.117188 410.484375 823.929688 C 410.601562 822.742188 410.777344 821.566406 411.007812 820.394531 C 411.242188 819.226562 411.53125 818.070312 411.878906 816.929688 C 412.222656 815.789062 412.625 814.667969 413.082031 813.566406 C 413.539062 812.464844 414.046875 811.386719 414.609375 810.335938 C 415.171875 809.285156 415.78125 808.261719 416.445312 807.273438 C 417.109375 806.28125 417.816406 805.324219 418.574219 804.402344 C 419.328125 803.480469 420.128906 802.597656 420.972656 801.753906 C 421.816406 800.914062 422.699219 800.113281 423.621094 799.355469 C 424.542969 798.601562 425.496094 797.890625 426.488281 797.226562 C 427.480469 796.566406 428.503906 795.953125 429.554688 795.390625 C 430.605469 794.828125 431.683594 794.320312 432.785156 793.863281 C 433.886719 793.40625 435.007812 793.007812 436.148438 792.660156 C 437.289062 792.3125 438.441406 792.023438 439.613281 791.792969 C 440.78125 791.558594 441.960938 791.386719 443.148438 791.269531 C 444.332031 791.152344 445.523438 791.09375 446.714844 791.09375 C 447.90625 791.09375 449.097656 791.152344 450.28125 791.269531 C 451.46875 791.386719 452.648438 791.558594 453.816406 791.792969 C 454.988281 792.023438 456.140625 792.3125 457.28125 792.660156 C 458.421875 793.007812 459.542969 793.40625 460.644531 793.863281 C 461.746094 794.320312 462.824219 794.828125 463.875 795.390625 C 464.925781 795.953125 465.949219 796.566406 466.941406 797.226562 C 467.929688 797.890625 468.886719 798.601562 469.808594 799.355469 C 470.730469 800.113281 471.613281 800.914062 472.457031 801.753906 C 473.300781 802.597656 474.101562 803.480469 474.855469 804.402344 C 475.613281 805.324219 476.320312 806.28125 476.984375 807.273438 C 477.648438 808.261719 478.257812 809.285156 478.820312 810.335938 C 479.382812 811.386719 479.890625 812.464844 480.347656 813.566406 C 480.804688 814.667969 481.207031 815.789062 481.550781 816.929688 C 481.898438 818.070312 482.1875 819.226562 482.421875 820.394531 C 482.652344 821.566406 482.828125 822.742188 482.945312 823.929688 C 483.0625 825.117188 483.121094 826.304688 483.121094 827.496094 Z M 483.121094 827.496094 " fill-opacity="1" fill-rule="nonzero"/><path fill="#6093af" d="M 537.167969 711.523438 C 537.679688 714.707031 535.5 717.691406 532.332031 718.207031 C 529.148438 718.707031 526.148438 716.539062 525.648438 713.355469 C 525.601562 713.023438 506.734375 595.898438 516.871094 590.273438 C 524.996094 585.757812 623.238281 650.566406 684.605469 691.0625 L 684.621094 691.078125 C 703.277344 703.371094 718.523438 713.433594 725.890625 718.132812 C 728.601562 719.859375 729.390625 723.464844 727.664062 726.179688 C 725.933594 728.890625 722.328125 729.695312 719.613281 727.96875 C 710.929688 722.421875 696.183594 712.691406 678.179688 700.808594 C 619.085938 661.796875 524.496094 599.382812 522.539062 600.476562 C 519.507812 602.15625 537.121094 711.21875 537.167969 711.523438 Z M 537.167969 711.523438 " fill-opacity="1" fill-rule="nonzero"/><path fill="#6093af" d="M 548.578125 704.292969 C 548.425781 707.523438 545.699219 710.007812 542.472656 709.855469 C 539.257812 709.703125 536.773438 706.976562 536.921875 703.75 L 540.578125 628.757812 C 540.726562 625.527344 543.472656 623.042969 546.683594 623.195312 C 548.914062 623.300781 550.792969 624.648438 551.6875 626.527344 C 551.792969 626.742188 586.621094 700.367188 588.589844 703.339844 C 590.394531 706.023438 589.667969 709.660156 586.96875 711.449219 C 584.285156 713.25 580.648438 712.523438 578.859375 709.824219 C 577.285156 707.476562 561.75 674.9375 551.109375 652.566406 Z M 548.578125 704.292969 " fill-opacity="1" fill-rule="nonzero"/><path fill="#6093af" d="M 599.0625 699.519531 C 598.925781 702.734375 596.214844 705.234375 592.984375 705.097656 C 589.773438 704.960938 587.273438 702.234375 587.410156 699.019531 L 590.699219 627.679688 C 590.832031 624.453125 593.5625 621.953125 596.789062 622.101562 C 597.761719 622.132812 598.667969 622.421875 599.457031 622.875 C 599.792969 623.058594 713.492188 688.820312 733.726562 695.5625 C 736.785156 696.578125 738.4375 699.867188 737.4375 702.929688 C 736.421875 705.976562 733.117188 707.644531 730.074219 706.628906 C 712.082031 700.640625 628.695312 653.140625 601.929688 637.773438 Z M 599.0625 699.519531 " fill-opacity="1" fill-rule="nonzero"/><path fill="#6093af" d="M 422.449219 824.453125 C 425.648438 824.90625 427.875 827.847656 427.4375 831.042969 C 426.996094 834.242188 424.042969 836.46875 420.859375 836.03125 C 420.585938 835.984375 325.90625 823.375 260.613281 769.269531 C 258.128906 767.207031 257.78125 763.507812 259.824219 761.023438 C 261.886719 758.539062 265.585938 758.1875 268.070312 760.25 C 330.800781 812.234375 422.191406 824.421875 422.449219 824.453125 Z M 422.449219 824.453125 " fill-opacity="1" fill-rule="nonzero"/><path fill="#6093af" d="M 427.648438 830.421875 C 430.574219 829.089844 434.027344 830.378906 435.378906 833.300781 C 436.710938 836.242188 435.421875 839.699219 432.5 841.03125 C 432.378906 841.09375 392.425781 859.582031 363.328125 866.296875 C 360.171875 867.023438 357.050781 865.054688 356.324219 861.917969 C 355.613281 858.765625 357.566406 855.628906 360.71875 854.914062 C 388.683594 848.457031 427.527344 830.484375 427.648438 830.421875 Z M 427.648438 830.421875 " fill-opacity="1" fill-rule="nonzero"/><path fill="#6093af" d="M 738.273438 717.539062 C 735.058594 717.433594 732.542969 714.722656 732.648438 711.507812 C 732.769531 708.28125 735.46875 705.765625 738.679688 705.886719 C 739.300781 705.902344 950.53125 716.632812 1013.777344 456.433594 C 1014.535156 453.308594 1017.6875 451.386719 1020.828125 452.144531 C 1023.949219 452.902344 1025.886719 456.054688 1025.128906 459.175781 C 959.597656 728.742188 738.910156 717.570312 738.273438 717.539062 Z M 738.273438 717.539062 " fill-opacity="1" fill-rule="nonzero"/><path fill="#6093af" d="M 472.054688 737.015625 C 474.238281 739.394531 474.085938 743.09375 471.707031 745.277344 C 469.34375 747.457031 465.644531 747.308594 463.460938 744.925781 L 405.035156 681.667969 L 377.269531 820.785156 C 376.816406 823.117188 375.011719 824.84375 372.828125 825.34375 L 171.753906 876.527344 C 168.632812 877.316406 165.449219 875.421875 164.644531 872.300781 C 163.855469 869.160156 165.75 865.980469 168.875 865.175781 L 366.507812 814.871094 L 395.789062 668.132812 C 396.03125 666.949219 396.640625 665.84375 397.578125 664.964844 C 399.957031 662.78125 403.65625 662.933594 405.839844 665.3125 Z M 472.054688 737.015625 " fill-opacity="1" fill-rule="nonzero"/><path fill="#6093af" d="M 430.800781 841.578125 C 430.800781 841.578125 417.992188 883.652344 388 902.6875 C 357.992188 921.707031 258.492188 968.902344 258.492188 968.902344 C 307.324219 957.613281 387.5 910.917969 400.808594 904.871094 C 416.902344 897.5625 455.6875 840.851562 455.6875 840.851562 Z M 430.800781 841.578125 " fill-opacity="1" fill-rule="evenodd"/><path fill="#245261" d="M 875.554688 573.179688 L 365.523438 1083.195312 L 325.921875 1043.59375 L 835.953125 533.5625 Z M 875.554688 573.179688 " fill-opacity="1" fill-rule="nonzero"/></svg>