<svg xmlns="http://www.w3.org/2000/svg" xmlns:xlink="http://www.w3.org/1999/xlink" width="1587" zoomAndPan="magnify" viewBox="0 0 1190.25 1683.749949" height="2245" preserveAspectRatio="xMidYMid meet" version="1.0"><defs><clipPath id="94e4c5afd8"><path d="M 0 0.40625 L 1189.5 0.40625 L 1189.5 1683.09375 L 0 1683.09375 Z M 0 0.40625 " clip-rule="nonzero"/></clipPath><clipPath id="30ed05e9bf"><path d="M 0 434.859375 L 661 434.859375 L 661 1421 L 0 1421 Z M 0 434.859375 " clip-rule="nonzero"/></clipPath></defs><g clip-path="url(#94e4c5afd8)"><path fill="#ffffff" d="M 0 0.40625 L 1189.5 0.40625 L 1189.5 1683.09375 L 0 1683.09375 Z M 0 0.40625 " fill-opacity="1" fill-rule="nonzero"/><path fill="#ffffff" d="M 0 0.40625 L 1189.5 0.40625 L 1189.5 1683.09375 L 0 1683.09375 Z M 0 0.40625 " fill-opacity="1" fill-rule="nonzero"/></g><g clip-path="url(#30ed05e9bf)"><path fill="#245261" d="M -383.355469 1420.207031 C -396.101562 1420.207031 -408.714844 1418.777344 -420.90625 1415.886719 C -422.609375 1415.480469 -423.664062 1413.773438 -423.265625 1412.070312 C -422.859375 1410.367188 -421.152344 1409.3125 -419.449219 1409.710938 C -347.566406 1426.75 -266.921875 1390.554688 -231.867188 1325.53125 C -216.285156 1296.636719 -211.175781 1265.929688 -217.464844 1239.070312 C -225.804688 1203.496094 -252.941406 1176.101562 -279.191406 1149.605469 C -286.28125 1142.445312 -293.617188 1135.042969 -300.453125 1127.605469 C -318.410156 1108.054688 -332.0625 1085.582031 -338.898438 1064.324219 C -347.214844 1038.449219 -345.34375 1014.664062 -333.488281 995.535156 C -321.25 975.789062 -300.050781 963.515625 -272.175781 960.050781 C -249.15625 957.1875 -222.199219 960.367188 -196.28125 969.011719 C -183.054688 973.425781 -168.015625 981.128906 -152.089844 989.285156 C -122.089844 1004.65625 -91.066406 1020.550781 -72.132812 1014.101562 C -66.148438 1012.066406 -61.726562 1007.863281 -58.605469 1001.265625 C -51.472656 986.160156 -58.136719 969.648438 -65.191406 952.167969 C -71.238281 937.179688 -77.492188 921.679688 -75.261719 906.035156 C -73.804688 895.851562 -70.722656 881.101562 -60.730469 870.539062 C -43.0625 851.863281 -11.722656 855.007812 8.371094 868.832031 C 27.183594 881.777344 39.210938 901.695312 50.84375 920.960938 C 51.597656 922.210938 52.351562 923.460938 53.101562 924.707031 C 80.289062 969.554688 123.917969 1030.785156 188.65625 1044.652344 C 234.910156 1054.558594 287.347656 1036.300781 319.144531 999.21875 C 350.242188 962.949219 361.816406 910.636719 349.351562 862.695312 C 331.621094 794.511719 273.28125 747.953125 216.863281 702.921875 C 201.6875 690.8125 185.992188 678.285156 171.4375 665.589844 C 156.34375 652.429688 141.648438 637.625 136.34375 618.554688 C 132.167969 603.550781 134.097656 586.582031 141.765625 570.777344 C 152.667969 548.308594 173.003906 531.847656 200.566406 523.167969 C 225 515.476562 253.871094 514.777344 279.78125 521.25 C 316.9375 530.535156 350.3125 550.625 382.585938 570.054688 C 394.140625 577.007812 406.089844 584.203125 418.003906 590.765625 C 474.558594 621.933594 523.316406 630.570312 562.925781 616.449219 C 594.265625 605.273438 621.164062 578.738281 636.703125 543.652344 C 649.707031 514.300781 655.210938 479.824219 653.53125 438.25 C 653.457031 436.496094 654.820312 435.023438 656.570312 434.949219 C 658.339844 434.871094 659.796875 436.242188 659.871094 437.992188 C 661.589844 480.554688 655.90625 515.953125 642.503906 546.21875 C 626.257812 582.890625 598.03125 610.664062 565.054688 622.425781 C 552.058594 627.058594 538.160156 629.371094 523.410156 629.371094 C 491.183594 629.371094 454.878906 618.328125 414.941406 596.320312 C 402.921875 589.695312 390.917969 582.472656 379.3125 575.488281 C 347.4375 556.296875 314.476562 536.460938 278.238281 527.40625 C 231.390625 515.695312 169.632812 527.890625 147.464844 573.542969 C 140.472656 587.957031 138.691406 603.335938 142.449219 616.851562 C 147.304688 634.3125 161.25 648.289062 175.601562 660.800781 C 190.058594 673.40625 205.695312 685.886719 220.816406 697.953125 C 278.042969 743.632812 337.226562 790.863281 355.484375 861.089844 C 361.773438 885.269531 362.238281 911.214844 356.828125 936.125 C 351.335938 961.421875 339.96875 984.664062 323.953125 1003.339844 C 307.667969 1022.332031 286.203125 1036.898438 261.882812 1045.46875 C 237.238281 1054.152344 211.453125 1056.011719 187.316406 1050.84375 C 120.179688 1036.46875 75.464844 973.835938 47.664062 927.980469 C 46.90625 926.738281 46.152344 925.484375 45.394531 924.226562 C 34.109375 905.539062 22.441406 886.210938 4.757812 874.042969 C -13.136719 861.734375 -40.804688 858.675781 -56.136719 874.882812 C -62.792969 881.921875 -66.878906 892.101562 -68.992188 906.914062 C -70.984375 920.863281 -65.054688 935.5625 -59.316406 949.777344 C -52.066406 967.753906 -44.5625 986.347656 -52.878906 1003.957031 C -56.714844 1012.085938 -62.511719 1017.515625 -70.097656 1020.097656 C -73.699219 1021.320312 -77.609375 1021.878906 -81.761719 1021.878906 C -102.367188 1021.878906 -129.046875 1008.210938 -154.992188 994.917969 C -170.695312 986.875 -185.523438 979.277344 -198.296875 975.015625 C -223.339844 966.664062 -249.300781 963.585938 -271.398438 966.332031 C -297.304688 969.554688 -316.910156 980.808594 -328.101562 998.863281 C -339.101562 1016.609375 -340.703125 1037.976562 -332.863281 1062.367188 C -326.304688 1082.769531 -313.140625 1104.410156 -295.785156 1123.296875 C -289.03125 1130.648438 -281.742188 1138.007812 -274.6875 1145.125 C -247.824219 1172.246094 -220.042969 1200.289062 -211.296875 1237.605469 C -204.648438 1265.972656 -209.972656 1298.265625 -226.285156 1328.523438 C -243.84375 1361.089844 -273.328125 1387.917969 -309.300781 1404.058594 C -333.089844 1414.734375 -358.480469 1420.183594 -383.367188 1420.183594 Z M -383.355469 1420.207031 " fill-opacity="1" fill-rule="nonzero"/></g></svg>