<svg xmlns="http://www.w3.org/2000/svg" xmlns:xlink="http://www.w3.org/1999/xlink" width="500" zoomAndPan="magnify" viewBox="0 0 375 374.999991" height="500" preserveAspectRatio="xMidYMid meet" version="1.0"><defs><clipPath id="cff881a8ff"><path d="M 5 4.382812 L 370 4.382812 L 370 369 L 5 369 Z M 5 4.382812 " clip-rule="nonzero"/></clipPath></defs><g clip-path="url(#cff881a8ff)"><path fill="#ffffff" d="M 187.054688 3.96875 C 186.066406 3.984375 185.078125 4.046875 184.09375 4.15625 C 183.109375 4.269531 182.132812 4.429688 181.164062 4.636719 C 180.195312 4.84375 179.238281 5.097656 178.292969 5.398438 C 177.351562 5.699219 176.425781 6.046875 175.515625 6.441406 C 174.605469 6.832031 173.714844 7.269531 172.847656 7.746094 C 171.980469 8.226562 171.140625 8.746094 170.324219 9.308594 C 169.507812 9.871094 168.722656 10.472656 167.964844 11.113281 C 167.210938 11.75 166.484375 12.425781 165.792969 13.136719 C 165.105469 13.847656 164.449219 14.589844 163.832031 15.363281 C 163.214844 16.140625 162.636719 16.941406 162.097656 17.773438 C 161.558594 18.605469 161.0625 19.460938 160.605469 20.339844 C 160.152344 21.222656 159.742188 22.121094 159.375 23.042969 C 159.007812 23.964844 158.6875 24.898438 158.414062 25.851562 C 158.140625 26.804688 157.914062 27.765625 157.734375 28.742188 C 157.554688 29.714844 157.421875 30.695312 157.335938 31.683594 C 157.253906 32.671875 157.21875 33.660156 157.234375 34.648438 L 157.234375 155.71875 L 36.164062 155.71875 C 35.164062 155.703125 34.164062 155.742188 33.167969 155.824219 C 32.171875 155.910156 31.179688 156.042969 30.199219 156.226562 C 29.214844 156.410156 28.242188 156.640625 27.28125 156.921875 C 26.320312 157.199219 25.375 157.527344 24.449219 157.898438 C 23.519531 158.273438 22.613281 158.691406 21.726562 159.152344 C 20.839844 159.617188 19.976562 160.121094 19.140625 160.671875 C 18.304688 161.21875 17.496094 161.808594 16.71875 162.433594 C 15.941406 163.0625 15.195312 163.730469 14.484375 164.429688 C 13.769531 165.132812 13.09375 165.871094 12.457031 166.640625 C 11.816406 167.410156 11.214844 168.207031 10.65625 169.035156 C 10.097656 169.863281 9.578125 170.71875 9.101562 171.597656 C 8.628906 172.480469 8.195312 173.382812 7.8125 174.304688 C 7.425781 175.226562 7.085938 176.167969 6.792969 177.121094 C 6.5 178.078125 6.253906 179.046875 6.058594 180.027344 C 5.859375 181.007812 5.710938 181.996094 5.613281 182.992188 C 5.515625 183.988281 5.464844 184.984375 5.464844 185.988281 C 5.464844 186.988281 5.515625 187.984375 5.613281 188.980469 C 5.710938 189.976562 5.859375 190.964844 6.058594 191.945312 C 6.253906 192.925781 6.5 193.894531 6.792969 194.851562 C 7.085938 195.808594 7.425781 196.746094 7.808594 197.667969 C 8.195312 198.59375 8.628906 199.492188 9.101562 200.375 C 9.578125 201.253906 10.097656 202.109375 10.65625 202.9375 C 11.214844 203.765625 11.816406 204.566406 12.457031 205.335938 C 13.09375 206.101562 13.769531 206.839844 14.484375 207.542969 C 15.195312 208.242188 15.941406 208.910156 16.71875 209.539062 C 17.496094 210.167969 18.304688 210.753906 19.140625 211.304688 C 19.976562 211.851562 20.839844 212.355469 21.726562 212.820312 C 22.613281 213.28125 23.519531 213.699219 24.449219 214.074219 C 25.375 214.445312 26.320312 214.773438 27.28125 215.050781 C 28.242188 215.332031 29.214844 215.5625 30.199219 215.746094 C 31.179688 215.929688 32.171875 216.0625 33.167969 216.148438 C 34.164062 216.234375 35.164062 216.269531 36.164062 216.253906 L 157.234375 216.253906 L 157.234375 337.324219 C 157.21875 338.324219 157.253906 339.320312 157.339844 340.320312 C 157.421875 341.316406 157.558594 342.304688 157.742188 343.289062 C 157.921875 344.273438 158.15625 345.242188 158.433594 346.203125 C 158.714844 347.164062 159.039062 348.109375 159.414062 349.039062 C 159.785156 349.964844 160.203125 350.875 160.667969 351.761719 C 161.128906 352.648438 161.636719 353.507812 162.183594 354.34375 C 162.730469 355.183594 163.320312 355.988281 163.949219 356.765625 C 164.578125 357.546875 165.242188 358.292969 165.945312 359.003906 C 166.648438 359.714844 167.382812 360.390625 168.152344 361.03125 C 168.921875 361.671875 169.71875 362.269531 170.550781 362.832031 C 171.378906 363.390625 172.234375 363.90625 173.113281 364.382812 C 173.992188 364.859375 174.894531 365.289062 175.816406 365.675781 C 176.738281 366.0625 177.679688 366.402344 178.636719 366.695312 C 179.59375 366.988281 180.5625 367.230469 181.542969 367.429688 C 182.523438 367.625 183.511719 367.773438 184.507812 367.871094 C 185.5 367.972656 186.5 368.019531 187.5 368.019531 C 188.5 368.019531 189.5 367.972656 190.492188 367.871094 C 191.488281 367.773438 192.476562 367.625 193.457031 367.429688 C 194.4375 367.230469 195.40625 366.988281 196.363281 366.695312 C 197.320312 366.402344 198.261719 366.0625 199.183594 365.675781 C 200.105469 365.289062 201.007812 364.859375 201.886719 364.382812 C 202.765625 363.90625 203.621094 363.390625 204.449219 362.832031 C 205.277344 362.269531 206.078125 361.671875 206.847656 361.03125 C 207.617188 360.390625 208.351562 359.714844 209.054688 359.003906 C 209.757812 358.292969 210.421875 357.546875 211.050781 356.765625 C 211.679688 355.988281 212.269531 355.183594 212.816406 354.34375 C 213.363281 353.507812 213.871094 352.648438 214.332031 351.761719 C 214.796875 350.875 215.214844 349.964844 215.585938 349.039062 C 215.960938 348.109375 216.285156 347.164062 216.566406 346.203125 C 216.84375 345.242188 217.078125 344.273438 217.257812 343.289062 C 217.441406 342.304688 217.578125 341.316406 217.660156 340.320312 C 217.746094 339.320312 217.78125 338.324219 217.765625 337.324219 L 217.765625 216.253906 L 338.835938 216.253906 C 339.835938 216.269531 340.835938 216.234375 341.832031 216.148438 C 342.828125 216.0625 343.820312 215.929688 344.800781 215.746094 C 345.785156 215.5625 346.757812 215.332031 347.71875 215.050781 C 348.679688 214.773438 349.621094 214.445312 350.550781 214.074219 C 351.480469 213.699219 352.386719 213.28125 353.273438 212.820312 C 354.160156 212.355469 355.023438 211.851562 355.859375 211.304688 C 356.695312 210.753906 357.503906 210.167969 358.28125 209.539062 C 359.058594 208.910156 359.804688 208.242188 360.515625 207.542969 C 361.230469 206.839844 361.90625 206.101562 362.542969 205.335938 C 363.183594 204.566406 363.785156 203.765625 364.34375 202.9375 C 364.902344 202.109375 365.421875 201.253906 365.898438 200.375 C 366.371094 199.492188 366.804688 198.59375 367.1875 197.667969 C 367.574219 196.746094 367.914062 195.808594 368.207031 194.851562 C 368.5 193.894531 368.746094 192.925781 368.941406 191.945312 C 369.140625 190.964844 369.289062 189.976562 369.386719 188.980469 C 369.484375 187.984375 369.535156 186.988281 369.535156 185.988281 C 369.535156 184.984375 369.484375 183.988281 369.386719 182.992188 C 369.289062 181.996094 369.140625 181.007812 368.941406 180.027344 C 368.746094 179.046875 368.5 178.078125 368.207031 177.121094 C 367.914062 176.167969 367.574219 175.226562 367.1875 174.304688 C 366.804688 173.382812 366.371094 172.480469 365.898438 171.597656 C 365.421875 170.71875 364.902344 169.863281 364.34375 169.035156 C 363.785156 168.207031 363.183594 167.40625 362.542969 166.640625 C 361.90625 165.871094 361.230469 165.132812 360.515625 164.429688 C 359.804688 163.730469 359.058594 163.0625 358.28125 162.433594 C 357.503906 161.808594 356.695312 161.21875 355.859375 160.671875 C 355.023438 160.121094 354.160156 159.617188 353.273438 159.152344 C 352.386719 158.691406 351.480469 158.273438 350.550781 157.898438 C 349.621094 157.527344 348.679688 157.199219 347.71875 156.921875 C 346.757812 156.640625 345.785156 156.410156 344.800781 156.226562 C 343.820312 156.042969 342.828125 155.910156 341.832031 155.824219 C 340.835938 155.742188 339.835938 155.703125 338.835938 155.71875 L 217.765625 155.71875 L 217.765625 34.648438 C 217.78125 33.640625 217.746094 32.632812 217.65625 31.628906 C 217.570312 30.621094 217.433594 29.625 217.246094 28.632812 C 217.058594 27.640625 216.824219 26.660156 216.539062 25.691406 C 216.253906 24.722656 215.921875 23.773438 215.542969 22.835938 C 215.160156 21.902344 214.734375 20.988281 214.265625 20.09375 C 213.792969 19.203125 213.277344 18.335938 212.71875 17.496094 C 212.160156 16.65625 211.5625 15.84375 210.921875 15.0625 C 210.285156 14.28125 209.609375 13.535156 208.894531 12.820312 C 208.179688 12.109375 207.433594 11.433594 206.648438 10.792969 C 205.867188 10.15625 205.058594 9.558594 204.214844 9 C 203.375 8.441406 202.507812 7.929688 201.613281 7.457031 C 200.722656 6.988281 199.808594 6.5625 198.871094 6.183594 C 197.9375 5.804688 196.984375 5.472656 196.015625 5.1875 C 195.046875 4.90625 194.066406 4.667969 193.074219 4.484375 C 192.082031 4.296875 191.085938 4.160156 190.078125 4.074219 C 189.074219 3.988281 188.066406 3.953125 187.054688 3.96875 Z M 187.054688 3.96875 " fill-opacity="1" fill-rule="nonzero"/></g></svg>