<svg xmlns="http://www.w3.org/2000/svg" xmlns:xlink="http://www.w3.org/1999/xlink" width="500" zoomAndPan="magnify" viewBox="0 0 375 374.999991" height="500" preserveAspectRatio="xMidYMid meet" version="1.0"><defs><clipPath id="ea5a25273a"><path d="M 14 17 L 360 17 L 360 361.570312 L 14 361.570312 Z M 14 17 " clip-rule="nonzero"/></clipPath></defs><g clip-path="url(#ea5a25273a)"><path fill="#fefefe" d="M 236.152344 189.265625 L 349.613281 75.804688 C 363.066406 62.359375 363.066406 40.546875 349.613281 27.09375 C 336.15625 13.648438 314.367188 13.648438 300.914062 27.09375 L 187.449219 140.554688 L 73.988281 27.105469 C 60.542969 13.648438 38.730469 13.648438 25.277344 27.105469 C 11.832031 40.546875 11.832031 62.359375 25.277344 75.816406 L 138.738281 189.265625 L 25 303.003906 C 11.558594 316.449219 11.558594 338.261719 25 351.703125 C 31.71875 358.429688 40.546875 361.796875 49.351562 361.796875 C 58.15625 361.796875 66.984375 358.429688 73.714844 351.703125 L 187.4375 237.976562 L 300.890625 351.429688 C 307.617188 358.15625 316.433594 361.519531 325.238281 361.519531 C 334.042969 361.519531 342.863281 358.15625 349.589844 351.429688 C 363.042969 337.984375 363.042969 316.171875 349.589844 302.726562 Z M 236.152344 189.265625 " fill-opacity="1" fill-rule="nonzero"/></g></svg>