<svg xmlns="http://www.w3.org/2000/svg" xmlns:xlink="http://www.w3.org/1999/xlink" width="500" zoomAndPan="magnify" viewBox="0 0 375 374.999991" height="500" preserveAspectRatio="xMidYMid meet" version="1.0"><path fill="#ffffff" d="M 190.707031 5.199219 C 186.699219 5.195312 182.699219 5.324219 178.699219 5.582031 C 174.703125 5.84375 170.71875 6.234375 166.746094 6.757812 C 162.773438 7.28125 158.824219 7.933594 154.894531 8.71875 C 150.964844 9.5 147.066406 10.414062 143.199219 11.457031 C 139.332031 12.496094 135.5 13.667969 131.710938 14.960938 C 127.917969 16.257812 124.175781 17.675781 120.476562 19.21875 C 116.78125 20.761719 113.136719 22.421875 109.550781 24.207031 C 105.964844 25.988281 102.4375 27.890625 98.976562 29.90625 C 95.515625 31.921875 92.125 34.050781 88.800781 36.289062 C 85.480469 38.53125 82.238281 40.878906 79.070312 43.332031 C 75.90625 45.789062 72.824219 48.34375 69.828125 51.003906 C 66.832031 53.660156 63.925781 56.417969 61.109375 59.265625 C 58.296875 62.117188 55.578125 65.058594 52.957031 68.089844 C 50.335938 71.117188 47.820312 74.234375 45.402344 77.429688 C 42.988281 80.625 40.683594 83.898438 38.484375 87.25 C 36.285156 90.597656 34.199219 94.015625 32.230469 97.503906 C 30.257812 100.988281 28.402344 104.539062 26.664062 108.148438 C 24.925781 111.757812 23.308594 115.421875 21.8125 119.136719 C 20.316406 122.851562 18.945312 126.613281 17.699219 130.421875 C 16.453125 134.230469 15.332031 138.074219 14.339844 141.953125 C 13.347656 145.835938 12.484375 149.746094 11.75 153.683594 C 11.015625 157.621094 10.410156 161.582031 9.9375 165.558594 C 9.464844 169.535156 9.125 173.527344 8.914062 177.527344 C 8.707031 181.527344 8.628906 185.53125 8.6875 189.535156 C 8.742188 193.542969 8.929688 197.542969 9.25 201.535156 C 9.570312 205.527344 10.019531 209.507812 10.605469 213.472656 C 11.1875 217.433594 11.898438 221.375 12.742188 225.289062 C 13.585938 229.207031 14.558594 233.089844 15.660156 236.945312 C 16.757812 240.796875 17.984375 244.609375 19.335938 248.378906 C 20.691406 252.148438 22.164062 255.871094 23.761719 259.546875 C 25.363281 263.21875 27.078125 266.835938 28.917969 270.394531 C 30.753906 273.957031 32.707031 277.453125 34.777344 280.882812 L 9.109375 357.867188 C 9 358.191406 8.914062 358.519531 8.84375 358.855469 C 8.773438 359.191406 8.726562 359.527344 8.695312 359.871094 C 8.667969 360.210938 8.660156 360.550781 8.671875 360.894531 C 8.683594 361.238281 8.714844 361.578125 8.765625 361.914062 C 8.816406 362.253906 8.890625 362.585938 8.980469 362.917969 C 9.070312 363.246094 9.183594 363.570312 9.3125 363.886719 C 9.441406 364.203125 9.589844 364.511719 9.753906 364.8125 C 9.921875 365.109375 10.105469 365.398438 10.304688 365.675781 C 10.503906 365.953125 10.71875 366.21875 10.953125 366.46875 C 11.183594 366.722656 11.429688 366.960938 11.6875 367.183594 C 11.949219 367.40625 12.21875 367.613281 12.503906 367.804688 C 12.789062 367.996094 13.082031 368.167969 13.386719 368.324219 C 13.691406 368.480469 14.003906 368.617188 14.324219 368.734375 C 14.644531 368.855469 14.972656 368.953125 15.304688 369.035156 C 15.636719 369.113281 15.972656 369.175781 16.3125 369.214844 C 16.652344 369.257812 16.996094 369.277344 17.335938 369.277344 C 18.277344 369.277344 19.191406 369.128906 20.078125 368.828125 L 97.0625 343.167969 C 100.054688 344.96875 103.097656 346.679688 106.191406 348.300781 C 109.28125 349.921875 112.417969 351.457031 115.597656 352.898438 C 118.777344 354.339844 121.996094 355.691406 125.253906 356.949219 C 128.511719 358.203125 131.800781 359.367188 135.125 360.433594 C 138.449219 361.503906 141.800781 362.472656 145.183594 363.347656 C 148.5625 364.222656 151.964844 365 155.390625 365.679688 C 158.8125 366.359375 162.257812 366.9375 165.714844 367.417969 C 169.171875 367.898438 172.640625 368.28125 176.121094 368.5625 C 179.601562 368.839844 183.085938 369.023438 186.578125 369.101562 C 190.070312 369.183594 193.558594 369.164062 197.046875 369.042969 C 200.539062 368.921875 204.019531 368.703125 207.496094 368.378906 C 210.972656 368.058594 214.4375 367.640625 217.890625 367.117188 C 221.34375 366.597656 224.777344 365.980469 228.195312 365.261719 C 231.613281 364.542969 235.007812 363.726562 238.375 362.8125 C 241.746094 361.898438 245.085938 360.890625 248.398438 359.785156 C 251.710938 358.679688 254.988281 357.480469 258.230469 356.183594 C 261.472656 354.890625 264.675781 353.503906 267.839844 352.023438 C 271.003906 350.546875 274.121094 348.976562 277.191406 347.320312 C 280.265625 345.660156 283.289062 343.917969 286.261719 342.085938 C 289.230469 340.25 292.148438 338.335938 295.011719 336.335938 C 297.875 334.335938 300.675781 332.253906 303.417969 330.09375 C 306.160156 327.933594 308.835938 325.695312 311.449219 323.378906 C 314.0625 321.0625 316.609375 318.675781 319.085938 316.210938 C 321.558594 313.75 323.964844 311.21875 326.292969 308.617188 C 328.625 306.019531 330.875 303.351562 333.054688 300.625 C 335.230469 297.894531 337.328125 295.101562 339.34375 292.253906 C 341.359375 289.402344 343.292969 286.496094 345.140625 283.535156 C 346.988281 280.570312 348.75 277.558594 350.425781 274.496094 C 352.101562 271.433594 353.6875 268.324219 355.183594 265.167969 C 356.679688 262.015625 358.085938 258.820312 359.398438 255.582031 C 360.710938 252.347656 361.929688 249.078125 363.054688 245.773438 C 364.175781 242.464844 365.207031 239.132812 366.136719 235.765625 C 367.070312 232.402344 367.90625 229.011719 368.640625 225.601562 C 369.378906 222.1875 370.019531 218.757812 370.558594 215.304688 C 371.097656 211.855469 371.539062 208.394531 371.878906 204.917969 C 372.21875 201.445312 372.457031 197.964844 372.597656 194.472656 C 372.738281 190.984375 372.777344 187.496094 372.71875 184.003906 C 372.65625 180.511719 372.496094 177.027344 372.234375 173.546875 C 371.972656 170.0625 371.609375 166.59375 371.148438 163.132812 C 370.6875 159.671875 370.128906 156.226562 369.46875 152.796875 C 368.808594 149.367188 368.050781 145.960938 367.195312 142.578125 C 366.339844 139.191406 365.386719 135.832031 364.335938 132.503906 C 363.289062 129.171875 362.144531 125.875 360.90625 122.613281 C 359.667969 119.347656 358.335938 116.121094 356.910156 112.933594 C 355.488281 109.746094 353.972656 106.601562 352.367188 103.5 C 350.761719 100.398438 349.066406 97.347656 347.285156 94.34375 C 345.503906 91.34375 343.640625 88.394531 341.6875 85.496094 C 339.738281 82.601562 337.703125 79.765625 335.589844 76.984375 C 333.476562 74.207031 331.285156 71.492188 329.011719 68.839844 C 326.742188 66.1875 324.398438 63.601562 321.980469 61.085938 C 319.558594 58.566406 317.070312 56.121094 314.507812 53.746094 C 311.949219 51.371094 309.324219 49.074219 306.628906 46.851562 C 303.9375 44.628906 301.183594 42.484375 298.367188 40.417969 C 295.550781 38.355469 292.679688 36.375 289.75 34.472656 C 286.820312 32.574219 283.835938 30.761719 280.804688 29.035156 C 277.769531 27.308594 274.6875 25.667969 271.558594 24.117188 C 268.429688 22.566406 265.261719 21.109375 262.046875 19.742188 C 258.835938 18.375 255.585938 17.101562 252.300781 15.917969 C 249.015625 14.738281 245.695312 13.652344 242.347656 12.664062 C 239 11.675781 235.625 10.78125 232.226562 9.984375 C 228.828125 9.191406 225.40625 8.492188 221.96875 7.894531 C 218.527344 7.296875 215.074219 6.796875 211.605469 6.398438 C 208.136719 5.996094 204.660156 5.699219 201.171875 5.5 C 197.6875 5.300781 194.199219 5.199219 190.707031 5.199219 Z M 190.707031 351.941406 C 182.960938 351.933594 175.253906 351.382812 167.589844 350.285156 C 159.921875 349.191406 152.371094 347.558594 144.933594 345.394531 C 137.496094 343.230469 130.25 340.550781 123.195312 337.359375 C 116.136719 334.167969 109.339844 330.496094 102.800781 326.339844 C 101.386719 325.445312 99.839844 324.996094 98.164062 324.996094 C 97.226562 324.992188 96.3125 325.144531 95.421875 325.445312 L 31.03125 346.902344 L 52.5 282.523438 C 52.910156 281.289062 53.035156 280.023438 52.878906 278.734375 C 52.722656 277.441406 52.296875 276.246094 51.605469 275.144531 C 49.996094 272.59375 48.457031 270 46.992188 267.363281 C 45.527344 264.726562 44.132812 262.054688 42.816406 259.34375 C 41.496094 256.628906 40.25 253.882812 39.082031 251.105469 C 37.914062 248.324219 36.824219 245.511719 35.8125 242.671875 C 34.796875 239.832031 33.863281 236.96875 33.007812 234.074219 C 32.152344 231.183594 31.375 228.269531 30.679688 225.335938 C 29.984375 222.402344 29.367188 219.449219 28.835938 216.484375 C 28.300781 213.515625 27.847656 210.535156 27.480469 207.542969 C 27.109375 204.546875 26.820312 201.546875 26.617188 198.539062 C 26.410156 195.53125 26.289062 192.519531 26.25 189.503906 C 26.210938 186.488281 26.253906 183.472656 26.378906 180.460938 C 26.507812 177.445312 26.714844 174.441406 27.007812 171.4375 C 27.300781 168.4375 27.671875 165.445312 28.128906 162.464844 C 28.585938 159.484375 29.121094 156.515625 29.742188 153.566406 C 30.359375 150.613281 31.0625 147.683594 31.839844 144.769531 C 32.621094 141.855469 33.480469 138.964844 34.421875 136.101562 C 35.359375 133.234375 36.375 130.398438 37.472656 127.585938 C 38.566406 124.777344 39.738281 122 40.984375 119.253906 C 42.234375 116.507812 43.554688 113.800781 44.953125 111.128906 C 46.351562 108.453125 47.820312 105.820312 49.359375 103.230469 C 50.902344 100.636719 52.511719 98.089844 54.195312 95.585938 C 55.875 93.082031 57.625 90.628906 59.441406 88.222656 C 61.257812 85.8125 63.140625 83.457031 65.085938 81.15625 C 67.03125 78.851562 69.039062 76.601562 71.109375 74.410156 C 73.175781 72.214844 75.304688 70.078125 77.492188 68.003906 C 79.679688 65.925781 81.921875 63.910156 84.21875 61.957031 C 86.515625 60.003906 88.867188 58.117188 91.269531 56.292969 C 93.667969 54.46875 96.117188 52.710938 98.617188 51.023438 C 101.113281 49.332031 103.65625 47.714844 106.246094 46.164062 C 108.832031 44.613281 111.460938 43.136719 114.128906 41.730469 C 116.796875 40.324219 119.5 38.996094 122.242188 37.738281 C 124.984375 36.480469 127.757812 35.300781 130.5625 34.195312 C 133.371094 33.09375 136.203125 32.066406 139.066406 31.117188 C 141.929688 30.171875 144.816406 29.300781 147.726562 28.511719 C 150.636719 27.722656 153.566406 27.011719 156.515625 26.382812 C 159.464844 25.753906 162.429688 25.207031 165.410156 24.742188 C 168.390625 24.277344 171.378906 23.894531 174.378906 23.59375 C 177.382812 23.292969 180.386719 23.074219 183.402344 22.9375 C 186.414062 22.800781 189.425781 22.746094 192.441406 22.777344 C 195.457031 22.808594 198.472656 22.917969 201.480469 23.113281 C 204.488281 23.308594 207.492188 23.589844 210.484375 23.949219 C 213.480469 24.308594 216.460938 24.75 219.429688 25.273438 C 222.402344 25.800781 225.355469 26.40625 228.289062 27.089844 C 231.226562 27.777344 234.144531 28.542969 237.035156 29.390625 C 239.929688 30.238281 242.800781 31.164062 245.644531 32.167969 C 248.488281 33.171875 251.300781 34.253906 254.085938 35.414062 C 256.867188 36.574219 259.617188 37.808594 262.335938 39.117188 C 265.050781 40.429688 267.730469 41.8125 270.371094 43.269531 C 273.007812 44.726562 275.609375 46.257812 278.164062 47.855469 C 280.71875 49.457031 283.230469 51.125 285.695312 52.863281 C 288.160156 54.601562 290.574219 56.40625 292.9375 58.277344 C 295.304688 60.148438 297.613281 62.085938 299.875 64.082031 C 302.132812 66.082031 304.335938 68.140625 306.480469 70.257812 C 308.625 72.378906 310.710938 74.554688 312.738281 76.789062 C 314.761719 79.023438 316.726562 81.308594 318.625 83.652344 C 320.527344 85.992188 322.359375 88.386719 324.128906 90.828125 C 325.898438 93.269531 327.597656 95.761719 329.230469 98.296875 C 330.863281 100.832031 332.421875 103.410156 333.914062 106.035156 C 335.402344 108.65625 336.820312 111.316406 338.164062 114.015625 C 339.507812 116.714844 340.777344 119.449219 341.96875 122.21875 C 343.164062 124.988281 344.28125 127.789062 345.320312 130.621094 C 346.359375 133.449219 347.320312 136.308594 348.203125 139.191406 C 349.085938 142.074219 349.886719 144.980469 350.609375 147.910156 C 351.332031 150.835938 351.972656 153.78125 352.535156 156.746094 C 353.097656 159.707031 353.574219 162.683594 353.972656 165.675781 C 354.371094 168.664062 354.683594 171.660156 354.917969 174.667969 C 355.148438 177.675781 355.300781 180.6875 355.367188 183.699219 C 355.433594 186.714844 355.417969 189.730469 355.320312 192.746094 C 355.21875 195.757812 355.039062 198.769531 354.773438 201.773438 C 354.511719 204.777344 354.164062 207.769531 353.734375 210.753906 C 353.304688 213.742188 352.796875 216.710938 352.203125 219.667969 C 351.613281 222.625 350.9375 225.5625 350.183594 228.484375 C 349.429688 231.402344 348.597656 234.300781 347.683594 237.175781 C 346.773438 240.050781 345.78125 242.898438 344.710938 245.714844 C 343.640625 248.535156 342.496094 251.324219 341.273438 254.082031 C 340.050781 256.835938 338.753906 259.558594 337.382812 262.246094 C 336.007812 264.929688 334.566406 267.574219 333.046875 270.179688 C 331.527344 272.789062 329.941406 275.351562 328.28125 277.867188 C 326.625 280.386719 324.898438 282.859375 323.101562 285.28125 C 321.308594 287.707031 319.449219 290.078125 317.523438 292.398438 C 315.601562 294.722656 313.613281 296.988281 311.5625 299.203125 C 309.515625 301.414062 307.40625 303.566406 305.238281 305.664062 C 303.070312 307.761719 300.847656 309.796875 298.566406 311.769531 C 296.289062 313.746094 293.953125 315.65625 291.570312 317.5 C 289.1875 319.347656 286.753906 321.125 284.269531 322.839844 C 281.789062 324.550781 279.257812 326.191406 276.6875 327.765625 C 274.113281 329.339844 271.5 330.839844 268.84375 332.269531 C 266.191406 333.699219 263.496094 335.054688 260.765625 336.335938 C 258.039062 337.621094 255.273438 338.824219 252.476562 339.953125 C 249.683594 341.085938 246.855469 342.136719 244.003906 343.109375 C 241.148438 344.085938 238.269531 344.980469 235.367188 345.796875 C 232.464844 346.613281 229.542969 347.347656 226.597656 348.003906 C 223.652344 348.660156 220.695312 349.234375 217.71875 349.726562 C 214.746094 350.21875 211.757812 350.632812 208.761719 350.960938 C 205.761719 351.289062 202.757812 351.535156 199.746094 351.699219 C 196.734375 351.863281 193.722656 351.941406 190.707031 351.941406 Z M 121.359375 187.238281 C 121.359375 187.808594 121.332031 188.375 121.273438 188.9375 C 121.21875 189.503906 121.136719 190.0625 121.027344 190.621094 C 120.914062 191.179688 120.777344 191.726562 120.613281 192.273438 C 120.449219 192.816406 120.257812 193.347656 120.039062 193.875 C 119.820312 194.398438 119.578125 194.910156 119.3125 195.410156 C 119.042969 195.914062 118.753906 196.398438 118.4375 196.871094 C 118.121094 197.34375 117.785156 197.796875 117.421875 198.238281 C 117.0625 198.675781 116.683594 199.097656 116.28125 199.5 C 115.878906 199.898438 115.460938 200.28125 115.019531 200.640625 C 114.582031 201 114.125 201.339844 113.652344 201.652344 C 113.179688 201.96875 112.695312 202.261719 112.195312 202.527344 C 111.695312 202.796875 111.179688 203.039062 110.65625 203.257812 C 110.132812 203.472656 109.597656 203.664062 109.054688 203.828125 C 108.511719 203.996094 107.960938 204.132812 107.402344 204.242188 C 106.847656 204.355469 106.285156 204.4375 105.722656 204.492188 C 105.15625 204.546875 104.589844 204.574219 104.023438 204.574219 C 103.453125 204.574219 102.886719 204.546875 102.324219 204.492188 C 101.757812 204.4375 101.195312 204.355469 100.640625 204.242188 C 100.082031 204.132812 99.53125 203.996094 98.988281 203.828125 C 98.445312 203.664062 97.910156 203.472656 97.386719 203.257812 C 96.863281 203.039062 96.351562 202.796875 95.847656 202.527344 C 95.347656 202.261719 94.863281 201.96875 94.390625 201.652344 C 93.917969 201.339844 93.460938 201 93.023438 200.640625 C 92.585938 200.28125 92.164062 199.898438 91.761719 199.5 C 91.359375 199.097656 90.980469 198.675781 90.621094 198.238281 C 90.261719 197.796875 89.921875 197.34375 89.605469 196.871094 C 89.292969 196.398438 89 195.914062 88.730469 195.410156 C 88.464844 194.910156 88.222656 194.398438 88.003906 193.875 C 87.789062 193.347656 87.597656 192.816406 87.429688 192.273438 C 87.265625 191.726562 87.128906 191.179688 87.019531 190.621094 C 86.90625 190.0625 86.824219 189.503906 86.769531 188.9375 C 86.710938 188.375 86.683594 187.808594 86.683594 187.238281 C 86.683594 186.671875 86.710938 186.105469 86.769531 185.539062 C 86.824219 184.976562 86.90625 184.414062 87.019531 183.855469 C 87.128906 183.300781 87.265625 182.75 87.429688 182.207031 C 87.597656 181.664062 87.789062 181.128906 88.003906 180.605469 C 88.222656 180.078125 88.464844 179.566406 88.730469 179.066406 C 89 178.566406 89.292969 178.078125 89.605469 177.605469 C 89.921875 177.136719 90.261719 176.679688 90.621094 176.242188 C 90.980469 175.800781 91.359375 175.382812 91.761719 174.980469 C 92.164062 174.578125 92.585938 174.199219 93.023438 173.835938 C 93.460938 173.476562 93.917969 173.140625 94.390625 172.824219 C 94.863281 172.507812 95.347656 172.21875 95.847656 171.949219 C 96.351562 171.679688 96.863281 171.4375 97.386719 171.222656 C 97.910156 171.003906 98.445312 170.8125 98.988281 170.648438 C 99.53125 170.484375 100.082031 170.347656 100.640625 170.234375 C 101.195312 170.125 101.757812 170.042969 102.324219 169.984375 C 102.886719 169.929688 103.453125 169.902344 104.023438 169.902344 C 104.589844 169.902344 105.15625 169.929688 105.722656 169.984375 C 106.285156 170.042969 106.847656 170.125 107.402344 170.234375 C 107.960938 170.347656 108.511719 170.484375 109.054688 170.648438 C 109.597656 170.8125 110.132812 171.003906 110.65625 171.222656 C 111.179688 171.4375 111.695312 171.679688 112.195312 171.949219 C 112.695312 172.21875 113.179688 172.507812 113.652344 172.824219 C 114.125 173.140625 114.582031 173.476562 115.019531 173.835938 C 115.460938 174.199219 115.878906 174.578125 116.28125 174.980469 C 116.683594 175.382812 117.0625 175.800781 117.421875 176.242188 C 117.785156 176.679688 118.121094 177.136719 118.4375 177.605469 C 118.753906 178.078125 119.042969 178.566406 119.3125 179.066406 C 119.578125 179.566406 119.820312 180.078125 120.039062 180.605469 C 120.257812 181.128906 120.449219 181.664062 120.613281 182.207031 C 120.777344 182.75 120.914062 183.300781 121.027344 183.855469 C 121.136719 184.414062 121.21875 184.976562 121.273438 185.539062 C 121.332031 186.105469 121.359375 186.671875 121.359375 187.238281 Z M 208.042969 187.238281 C 208.042969 187.808594 208.015625 188.375 207.960938 188.9375 C 207.902344 189.503906 207.820312 190.0625 207.710938 190.621094 C 207.597656 191.179688 207.460938 191.726562 207.296875 192.273438 C 207.132812 192.816406 206.941406 193.347656 206.722656 193.875 C 206.507812 194.398438 206.265625 194.910156 205.996094 195.410156 C 205.730469 195.914062 205.4375 196.398438 205.121094 196.871094 C 204.804688 197.34375 204.46875 197.796875 204.109375 198.238281 C 203.746094 198.675781 203.367188 199.097656 202.964844 199.5 C 202.5625 199.898438 202.144531 200.28125 201.703125 200.640625 C 201.265625 201 200.808594 201.339844 200.339844 201.652344 C 199.867188 201.96875 199.378906 202.261719 198.878906 202.527344 C 198.378906 202.796875 197.867188 203.039062 197.339844 203.257812 C 196.816406 203.472656 196.28125 203.664062 195.738281 203.828125 C 195.195312 203.996094 194.644531 204.132812 194.089844 204.242188 C 193.53125 204.355469 192.972656 204.4375 192.40625 204.492188 C 191.839844 204.546875 191.273438 204.574219 190.707031 204.574219 C 190.136719 204.574219 189.570312 204.546875 189.007812 204.492188 C 188.441406 204.4375 187.882812 204.355469 187.324219 204.242188 C 186.765625 204.132812 186.21875 203.996094 185.671875 203.828125 C 185.128906 203.664062 184.597656 203.472656 184.070312 203.257812 C 183.546875 203.039062 183.035156 202.796875 182.535156 202.527344 C 182.03125 202.261719 181.546875 201.96875 181.074219 201.652344 C 180.601562 201.339844 180.148438 201 179.707031 200.640625 C 179.269531 200.28125 178.847656 199.898438 178.449219 199.5 C 178.046875 199.097656 177.664062 198.675781 177.304688 198.238281 C 176.945312 197.796875 176.605469 197.34375 176.292969 196.871094 C 175.976562 196.398438 175.683594 195.914062 175.417969 195.410156 C 175.148438 194.910156 174.90625 194.398438 174.6875 193.875 C 174.472656 193.347656 174.28125 192.816406 174.117188 192.273438 C 173.953125 191.726562 173.8125 191.179688 173.703125 190.621094 C 173.59375 190.0625 173.507812 189.503906 173.453125 188.9375 C 173.398438 188.375 173.371094 187.808594 173.371094 187.238281 C 173.371094 186.671875 173.398438 186.105469 173.453125 185.539062 C 173.507812 184.976562 173.59375 184.414062 173.703125 183.855469 C 173.8125 183.300781 173.953125 182.75 174.117188 182.207031 C 174.28125 181.664062 174.472656 181.128906 174.6875 180.605469 C 174.90625 180.078125 175.148438 179.566406 175.417969 179.066406 C 175.683594 178.566406 175.976562 178.078125 176.292969 177.605469 C 176.605469 177.136719 176.945312 176.679688 177.304688 176.242188 C 177.664062 175.800781 178.046875 175.382812 178.449219 174.980469 C 178.847656 174.578125 179.269531 174.199219 179.707031 173.835938 C 180.148438 173.476562 180.601562 173.140625 181.074219 172.824219 C 181.546875 172.507812 182.03125 172.21875 182.535156 171.949219 C 183.035156 171.679688 183.546875 171.4375 184.070312 171.222656 C 184.597656 171.003906 185.128906 170.8125 185.671875 170.648438 C 186.21875 170.484375 186.765625 170.347656 187.324219 170.234375 C 187.882812 170.125 188.441406 170.042969 189.007812 169.984375 C 189.570312 169.929688 190.136719 169.902344 190.707031 169.902344 C 191.273438 169.902344 191.839844 169.929688 192.40625 169.984375 C 192.972656 170.042969 193.53125 170.125 194.089844 170.234375 C 194.644531 170.347656 195.195312 170.484375 195.738281 170.648438 C 196.28125 170.8125 196.816406 171.003906 197.339844 171.222656 C 197.867188 171.4375 198.378906 171.679688 198.878906 171.949219 C 199.378906 172.21875 199.867188 172.507812 200.339844 172.824219 C 200.808594 173.140625 201.265625 173.476562 201.703125 173.835938 C 202.144531 174.199219 202.5625 174.578125 202.964844 174.980469 C 203.367188 175.382812 203.746094 175.800781 204.109375 176.242188 C 204.46875 176.679688 204.804688 177.136719 205.121094 177.605469 C 205.4375 178.078125 205.730469 178.566406 205.996094 179.066406 C 206.265625 179.566406 206.507812 180.078125 206.722656 180.605469 C 206.941406 181.128906 207.132812 181.664062 207.296875 182.207031 C 207.460938 182.75 207.597656 183.300781 207.710938 183.855469 C 207.820312 184.414062 207.902344 184.976562 207.960938 185.539062 C 208.015625 186.105469 208.042969 186.671875 208.042969 187.238281 Z M 294.726562 187.238281 C 294.726562 187.808594 294.699219 188.375 294.644531 188.9375 C 294.589844 189.503906 294.503906 190.0625 294.394531 190.621094 C 294.285156 191.179688 294.144531 191.726562 293.980469 192.273438 C 293.816406 192.816406 293.625 193.347656 293.410156 193.875 C 293.191406 194.398438 292.949219 194.910156 292.679688 195.410156 C 292.414062 195.914062 292.121094 196.398438 291.804688 196.871094 C 291.492188 197.34375 291.152344 197.796875 290.792969 198.238281 C 290.433594 198.675781 290.050781 199.097656 289.648438 199.5 C 289.25 199.898438 288.828125 200.28125 288.390625 200.640625 C 287.949219 201 287.496094 201.339844 287.023438 201.652344 C 286.550781 201.96875 286.066406 202.261719 285.5625 202.527344 C 285.0625 202.796875 284.550781 203.039062 284.027344 203.257812 C 283.5 203.472656 282.96875 203.664062 282.425781 203.828125 C 281.878906 203.996094 281.332031 204.132812 280.773438 204.242188 C 280.214844 204.355469 279.65625 204.4375 279.089844 204.492188 C 278.527344 204.546875 277.957031 204.574219 277.390625 204.574219 C 276.824219 204.574219 276.257812 204.546875 275.691406 204.492188 C 275.125 204.4375 274.566406 204.355469 274.007812 204.242188 C 273.453125 204.132812 272.902344 203.996094 272.359375 203.828125 C 271.816406 203.664062 271.28125 203.472656 270.757812 203.257812 C 270.230469 203.039062 269.71875 202.796875 269.21875 202.527344 C 268.71875 202.261719 268.230469 201.96875 267.757812 201.652344 C 267.289062 201.339844 266.832031 201 266.394531 200.640625 C 265.953125 200.28125 265.535156 199.898438 265.132812 199.5 C 264.730469 199.097656 264.351562 198.675781 263.988281 198.238281 C 263.628906 197.796875 263.292969 197.34375 262.976562 196.871094 C 262.660156 196.398438 262.367188 195.914062 262.101562 195.410156 C 261.832031 194.910156 261.589844 194.398438 261.375 193.875 C 261.15625 193.347656 260.964844 192.816406 260.800781 192.273438 C 260.636719 191.726562 260.5 191.179688 260.386719 190.621094 C 260.277344 190.0625 260.191406 189.503906 260.136719 188.9375 C 260.082031 188.375 260.054688 187.808594 260.054688 187.238281 C 260.054688 186.671875 260.082031 186.105469 260.136719 185.539062 C 260.191406 184.976562 260.277344 184.414062 260.386719 183.855469 C 260.5 183.300781 260.636719 182.75 260.800781 182.207031 C 260.964844 181.664062 261.15625 181.128906 261.375 180.605469 C 261.589844 180.078125 261.832031 179.566406 262.101562 179.066406 C 262.367188 178.566406 262.660156 178.078125 262.976562 177.605469 C 263.292969 177.136719 263.628906 176.679688 263.988281 176.242188 C 264.351562 175.800781 264.730469 175.382812 265.132812 174.980469 C 265.535156 174.578125 265.953125 174.199219 266.394531 173.835938 C 266.832031 173.476562 267.289062 173.140625 267.757812 172.824219 C 268.230469 172.507812 268.71875 172.21875 269.21875 171.949219 C 269.71875 171.679688 270.230469 171.4375 270.757812 171.222656 C 271.28125 171.003906 271.816406 170.8125 272.359375 170.648438 C 272.902344 170.484375 273.453125 170.347656 274.007812 170.234375 C 274.566406 170.125 275.125 170.042969 275.691406 169.984375 C 276.257812 169.929688 276.824219 169.902344 277.390625 169.902344 C 277.957031 169.902344 278.527344 169.929688 279.089844 169.984375 C 279.65625 170.042969 280.214844 170.125 280.773438 170.234375 C 281.332031 170.347656 281.878906 170.484375 282.425781 170.648438 C 282.96875 170.8125 283.5 171.003906 284.027344 171.222656 C 284.550781 171.4375 285.0625 171.679688 285.5625 171.949219 C 286.066406 172.21875 286.550781 172.507812 287.023438 172.824219 C 287.496094 173.140625 287.949219 173.476562 288.390625 173.835938 C 288.828125 174.199219 289.25 174.578125 289.648438 174.980469 C 290.050781 175.382812 290.433594 175.800781 290.792969 176.242188 C 291.152344 176.679688 291.492188 177.136719 291.804688 177.605469 C 292.121094 178.078125 292.414062 178.566406 292.679688 179.066406 C 292.949219 179.566406 293.191406 180.078125 293.410156 180.605469 C 293.625 181.128906 293.816406 181.664062 293.980469 182.207031 C 294.144531 182.75 294.285156 183.300781 294.394531 183.855469 C 294.503906 184.414062 294.589844 184.976562 294.644531 185.539062 C 294.699219 186.105469 294.726562 186.671875 294.726562 187.238281 Z M 294.726562 187.238281 " fill-opacity="1" fill-rule="nonzero"/></svg>