<svg xmlns="http://www.w3.org/2000/svg" xmlns:xlink="http://www.w3.org/1999/xlink" width="500" zoomAndPan="magnify" viewBox="0 0 375 374.999991" height="500" preserveAspectRatio="xMidYMid meet" version="1.0"><defs><clipPath id="6f9e67fcf3"><path d="M 35.15625 0 L 339.65625 0 L 339.65625 375 L 35.15625 375 Z M 35.15625 0 " clip-rule="nonzero"/></clipPath></defs><g clip-path="url(#6f9e67fcf3)"><path fill="#ffffff" d="M 62.542969 160.539062 L 62.542969 255.003906 C 62.542969 261.882812 60.910156 268.789062 57.835938 274.957031 L 36.714844 317.195312 C 35.332031 319.964844 35.476562 323.257812 37.109375 325.882812 C 38.726562 328.507812 41.597656 330.125 44.6875 330.125 L 134.75 330.125 C 139.023438 355.398438 161.015625 374.742188 187.5 374.742188 C 201.742188 374.742188 215.195312 369.203125 225.441406 359.058594 C 233.371094 351.039062 238.441406 340.984375 240.261719 330.125 L 330.296875 330.125 C 333.402344 330.125 336.273438 328.507812 337.890625 325.882812 C 339.523438 323.257812 339.667969 319.964844 338.285156 317.195312 L 317.164062 274.957031 C 314.089844 268.789062 312.457031 261.882812 312.457031 255.003906 L 312.457031 160.539062 C 312.457031 127.1875 299.453125 95.824219 275.828125 72.210938 C 260.976562 57.34375 242.757812 46.558594 222.640625 40.609375 C 222.875 38.949219 223.195312 37.300781 223.195312 35.582031 C 223.195312 15.90625 207.191406 -0.113281 187.5 -0.113281 C 167.808594 -0.113281 151.804688 15.90625 151.804688 35.582031 C 151.804688 37.316406 152.125 38.964844 152.359375 40.640625 C 99.800781 56.074219 62.542969 105.035156 62.542969 160.539062 Z M 212.816406 346.449219 C 206.011719 353.183594 197.003906 356.898438 187.5 356.898438 C 170.898438 356.898438 156.90625 345.503906 152.925781 330.125 L 222.085938 330.125 C 220.511719 336.230469 217.351562 341.859375 212.816406 346.449219 Z M 187.5 17.742188 C 197.339844 17.742188 205.355469 25.742188 205.355469 35.582031 C 205.355469 36.003906 205.339844 36.425781 205.3125 36.851562 C 204.234375 36.691406 203.152344 36.632812 202.089844 36.5 C 201.097656 36.382812 200.121094 36.28125 199.144531 36.195312 C 195.253906 35.828125 191.363281 35.582031 187.5 35.582031 C 183.621094 35.582031 179.714844 35.828125 175.824219 36.195312 C 174.878906 36.28125 173.929688 36.382812 172.984375 36.5 C 171.890625 36.617188 170.78125 36.691406 169.6875 36.851562 C 169.660156 36.425781 169.644531 36.003906 169.644531 35.582031 C 169.644531 25.742188 177.660156 17.742188 187.5 17.742188 Z M 165.113281 55.753906 C 176.261719 53.453125 187.558594 52.882812 198.707031 54.019531 C 202.441406 54.414062 206.15625 54.980469 209.859375 55.738281 C 230.132812 60.128906 248.570312 70.183594 263.207031 84.816406 C 283.449219 105.0625 294.601562 131.957031 294.601562 160.539062 L 294.601562 255.003906 C 294.601562 264.652344 296.890625 274.316406 301.1875 282.945312 L 315.867188 312.269531 L 59.132812 312.269531 L 73.8125 282.945312 C 78.109375 274.316406 80.398438 264.652344 80.398438 255.003906 L 80.398438 160.539062 C 80.398438 110.253906 116.050781 66.175781 165.113281 55.753906 " fill-opacity="1" fill-rule="nonzero"/></g></svg>