<svg xmlns="http://www.w3.org/2000/svg" xmlns:xlink="http://www.w3.org/1999/xlink" width="500" zoomAndPan="magnify" viewBox="0 0 375 374.999991" height="500" preserveAspectRatio="xMidYMid meet" version="1.0"><defs><clipPath id="56f55ee533"><path d="M 3.195312 3.507812 L 375 3.507812 L 375 375 L 3.195312 375 Z M 3.195312 3.507812 " clip-rule="nonzero"/></clipPath></defs><g clip-path="url(#56f55ee533)"><path fill="#78d1cc" d="M 375.210938 189.351562 C 375.210938 291.960938 291.960938 375.132812 189.253906 375.132812 C 86.550781 375.132812 3.296875 291.960938 3.296875 189.351562 C 3.292969 86.742188 86.550781 3.566406 189.253906 3.566406 C 291.960938 3.5625 375.210938 86.742188 375.210938 189.351562 " fill-opacity="1" fill-rule="nonzero"/></g><path fill="#ed451d" d="M 190.34375 348.742188 C 179.011719 348.742188 167.789062 346.625 157.167969 342.71875 C 148.9375 339.691406 141.074219 333.148438 132.101562 333.632812 C 115.617188 334.535156 94.292969 335.964844 88.371094 315.617188 C 82.5 295.4375 104.59375 282.425781 106.289062 263.605469 C 107.863281 246.203125 80.9375 241.765625 88.042969 222.757812 C 89.59375 218.605469 93.097656 214.878906 93.6875 210.335938 C 94.363281 205.296875 92.210938 200.953125 91.425781 196.140625 C 88.847656 180.085938 101.695312 157.742188 114.636719 148.894531 C 131.898438 137.085938 153.246094 134.332031 173.316406 130.484375 C 199.652344 125.421875 228.257812 117.828125 253.085938 128.710938 C 266.988281 134.816406 284.347656 140.707031 288.835938 156.367188 C 293.582031 172.964844 299.824219 189.847656 290.230469 206.066406 C 284.832031 215.210938 275.453125 219.101562 279.007812 230.574219 C 281.636719 239.082031 290.5625 244.097656 292.730469 252.921875 C 297.644531 272.902344 268.136719 277.761719 276.308594 296.5625 C 280.523438 306.25 286.5 311.878906 282.699219 323.34375 C 279.941406 331.671875 272.824219 335.777344 264.335938 336.320312 C 257.753906 336.734375 251.511719 334.4375 244.847656 335.574219 C 240.230469 336.367188 236.523438 338.507812 232.222656 340.257812 C 219.128906 345.59375 204.492188 348.742188 190.34375 348.742188 " fill-opacity="1" fill-rule="nonzero"/><path fill="#ffffff" d="M 297.75 375.640625 C 288.550781 382.503906 278.675781 388.511719 268.242188 393.539062 C 266.65625 394.308594 265.070312 395.042969 263.460938 395.761719 C 240.808594 405.914062 215.695312 411.554688 189.253906 411.554688 C 162.816406 411.554688 137.710938 405.914062 115.0625 395.761719 C 113.4375 395.042969 111.839844 394.308594 110.265625 393.539062 C 99.835938 388.5 89.960938 382.503906 80.769531 375.640625 C 82.382812 339.726562 101.480469 308.355469 129.765625 289.828125 C 146.855469 278.628906 167.289062 272.121094 189.253906 272.121094 C 192.605469 272.121094 195.921875 272.273438 199.175781 272.570312 C 217.375 274.214844 234.261719 280.332031 248.742188 289.828125 C 261.765625 298.359375 272.835938 309.609375 281.148438 322.761719 C 290.90625 338.199219 296.863281 356.265625 297.75 375.640625 " fill-opacity="1" fill-rule="nonzero"/><path fill="#fbd5c0" d="M 248.742188 289.828125 C 247.085938 302.355469 241.554688 313.679688 233.371094 322.527344 C 222.410156 334.390625 206.707031 341.832031 189.253906 341.832031 C 161.300781 341.832031 137.808594 322.726562 131.140625 296.867188 C 130.550781 294.574219 130.085938 292.21875 129.765625 289.828125 C 146.855469 278.628906 167.289062 272.121094 189.253906 272.121094 C 192.605469 272.121094 195.921875 272.261719 199.1875 272.570312 C 199.757812 272.617188 200.324219 272.675781 200.882812 272.734375 C 201.238281 272.773438 201.59375 272.808594 201.9375 272.855469 C 202.328125 272.890625 202.71875 272.949219 203.097656 272.996094 C 203.332031 273.019531 203.582031 273.054688 203.820312 273.089844 C 204.164062 273.125 204.515625 273.1875 204.871094 273.234375 C 205.144531 273.269531 205.417969 273.316406 205.703125 273.351562 C 205.9375 273.386719 206.175781 273.421875 206.410156 273.46875 C 206.8125 273.527344 207.207031 273.601562 207.609375 273.660156 C 209.335938 273.953125 211.054688 274.285156 212.746094 274.664062 L 213.882812 274.914062 C 214.097656 274.972656 214.320312 275.019531 214.535156 275.078125 C 214.9375 275.171875 215.351562 275.269531 215.742188 275.375 C 215.8125 275.386719 215.871094 275.398438 215.917969 275.410156 C 216.429688 275.539062 216.9375 275.667969 217.433594 275.8125 C 217.980469 275.941406 218.511719 276.09375 219.035156 276.25 C 219.636719 276.414062 220.230469 276.59375 220.832031 276.769531 C 221.296875 276.910156 221.757812 277.054688 222.21875 277.207031 C 222.515625 277.300781 222.824219 277.398438 223.105469 277.492188 C 223.59375 277.644531 224.078125 277.8125 224.550781 277.976562 C 225.144531 278.175781 225.722656 278.378906 226.304688 278.589844 C 226.351562 278.617188 226.386719 278.628906 226.421875 278.640625 C 227.027344 278.851562 227.617188 279.078125 228.210938 279.300781 C 228.648438 279.480469 229.097656 279.644531 229.546875 279.832031 C 230.71875 280.296875 231.871094 280.78125 233.007812 281.277344 L 234.496094 281.953125 C 234.949219 282.152344 235.398438 282.367188 235.847656 282.578125 C 236.261719 282.78125 236.664062 282.96875 237.066406 283.167969 C 237.445312 283.347656 237.8125 283.535156 238.179688 283.726562 C 238.417969 283.84375 238.664062 283.960938 238.902344 284.09375 C 239.886719 284.589844 240.84375 285.109375 241.792969 285.628906 C 242.136719 285.820312 242.488281 286.019531 242.820312 286.210938 C 243.046875 286.339844 243.261719 286.457031 243.472656 286.578125 L 244.277344 287.050781 L 245.09375 287.546875 L 245.628906 287.867188 C 246.136719 288.160156 246.632812 288.46875 247.132812 288.789062 C 247.675781 289.132812 248.210938 289.476562 248.742188 289.828125 " fill-opacity="1" fill-rule="nonzero"/><path fill="#fbd5c0" d="M 210.164062 247.8125 L 210.164062 288.90625 C 210.164062 299.304688 201.652344 307.824219 191.257812 307.824219 L 187.253906 307.824219 C 176.859375 307.824219 168.355469 299.304688 168.355469 288.90625 L 168.355469 247.8125 C 168.355469 237.414062 176.859375 228.90625 187.253906 228.90625 L 191.257812 228.90625 C 201.652344 228.90625 210.164062 237.414062 210.164062 247.8125 " fill-opacity="1" fill-rule="nonzero"/><path fill="#f8a29e" d="M 210.164062 247.8125 L 210.164062 269.554688 C 203.949219 273.007812 197.355469 275.019531 190.664062 275.019531 C 182.765625 275.019531 175.234375 272.820312 168.355469 268.996094 L 168.355469 247.8125 C 168.355469 237.414062 176.859375 228.90625 187.253906 228.90625 L 191.257812 228.90625 C 201.652344 228.90625 210.164062 237.414062 210.164062 247.8125 " fill-opacity="1" fill-rule="nonzero"/><path fill="#fbd5c0" d="M 253.726562 222.332031 C 253.726562 222.332031 266.113281 218.121094 274.023438 204.324219 C 282.617188 189.351562 277.21875 180.015625 275.515625 177.992188 C 270.859375 172.46875 263.671875 176.019531 262.488281 177.992188 C 261.304688 179.96875 244.160156 211.082031 253.726562 222.332031 " fill-opacity="1" fill-rule="nonzero"/><path fill="#f8a29e" d="M 265.863281 182.902344 C 265.863281 182.902344 273.726562 183.910156 270.96875 194.945312 C 268.195312 205.992188 260.9375 210.359375 251.0625 216 C 241.199219 221.644531 256 185.148438 265.863281 182.902344 " fill-opacity="1" fill-rule="nonzero"/><path fill="#fbd5c0" d="M 128.003906 222.332031 C 128.003906 222.332031 115.617188 218.121094 107.707031 204.324219 C 99.101562 189.351562 104.5 180.015625 106.203125 177.992188 C 110.859375 172.46875 118.046875 176.019531 119.230469 177.992188 C 120.414062 179.96875 137.570312 211.082031 128.003906 222.332031 " fill-opacity="1" fill-rule="nonzero"/><path fill="#f8a29e" d="M 115.855469 182.902344 C 115.855469 182.902344 108.003906 183.910156 110.761719 194.945312 C 113.523438 205.992188 120.792969 210.359375 130.65625 216 C 140.53125 221.644531 125.730469 185.148438 115.855469 182.902344 " fill-opacity="1" fill-rule="nonzero"/><path fill="#fbd5c0" d="M 265.863281 175.617188 C 265.863281 130.273438 232.367188 93.507812 191.03125 93.507812 C 149.707031 93.507812 116.1875 130.273438 116.1875 175.617188 C 116.1875 220.957031 149.707031 268.359375 191.03125 268.359375 C 229.867188 268.359375 265.863281 220.578125 265.863281 175.617188 " fill-opacity="1" fill-rule="nonzero"/><path fill="#ed451d" d="M 285.1875 160.191406 C 288.667969 151.96875 286.3125 141.972656 284.59375 133.90625 C 280.960938 116.777344 269.734375 100.511719 251.300781 96.785156 C 242.503906 95.007812 233.726562 93.199219 225.867188 87.746094 C 218.691406 82.765625 211.882812 76.082031 203.808594 72.664062 C 188.011719 66.003906 167.386719 70.605469 163.230469 89.214844 C 163.050781 89.992188 162.886719 90.820312 162.742188 91.683594 L 162.507812 89.082031 C 161.179688 99.304688 161.214844 106.320312 167.386719 115.074219 C 173.730469 124.074219 182.136719 125.8125 192.109375 126.902344 C 213.433594 129.230469 218.097656 142.941406 223.617188 160.652344 C 227.144531 171.984375 235.765625 184.570312 248.945312 181.980469 C 255.125 180.761719 260.546875 177.175781 266.5625 175.886719 C 273.203125 174.457031 275.5 178.632812 280.203125 182.476562 C 280.167969 178.609375 278.214844 173.792969 279.253906 170.257812 C 280.285156 166.71875 283.742188 163.609375 285.1875 160.191406 " fill-opacity="1" fill-rule="nonzero"/><path fill="#ed451d" d="M 171.992188 103.242188 C 170.710938 99.585938 168.167969 95.601562 165.492188 92.644531 C 162.007812 88.8125 163.230469 89.214844 158.953125 87.898438 C 151.304688 85.039062 145.644531 83.355469 137.628906 88.042969 C 130.988281 91.933594 127.46875 98.355469 125.671875 105.515625 C 123.351562 114.730469 121.066406 119.199219 113.367188 125.753906 C 107.257812 130.949219 103.042969 137.242188 100.179688 144.679688 C 96.851562 153.316406 94.660156 163.597656 95.015625 173.074219 C 95.253906 179.390625 96.851562 193.136719 101.410156 197.265625 C 102.476562 187.148438 105.46875 181.542969 115.59375 178.855469 C 124.238281 176.574219 131.648438 175.402344 134.101562 165.394531 C 136.316406 156.382812 136.871094 148.871094 145.339844 142.457031 C 152.324219 137.167969 162.070312 135.324219 167.964844 128.746094 C 174.085938 121.886719 174.953125 111.652344 171.992188 103.242188 " fill-opacity="1" fill-rule="nonzero"/></svg>