<svg xmlns="http://www.w3.org/2000/svg" xmlns:xlink="http://www.w3.org/1999/xlink" width="500" zoomAndPan="magnify" viewBox="0 0 375 374.999991" height="500" preserveAspectRatio="xMidYMid meet" version="1.0"><defs><clipPath id="f3136db3ff"><path d="M 2.855469 0 L 374.855469 0 L 374.855469 373 L 2.855469 373 Z M 2.855469 0 " clip-rule="nonzero"/></clipPath></defs><g clip-path="url(#f3136db3ff)"><path fill="#f2546b" d="M 374.871094 186.183594 C 374.871094 288.980469 291.617188 372.308594 188.914062 372.308594 C 86.207031 372.308594 2.957031 288.980469 2.957031 186.183594 C 2.953125 83.386719 86.207031 0.0585938 188.914062 0.0585938 C 291.617188 0.0546875 374.871094 83.386719 374.871094 186.183594 " fill-opacity="1" fill-rule="nonzero"/></g><path fill="#ffffff" d="M 297.398438 372.816406 C 288.207031 379.691406 278.332031 385.710938 267.902344 390.746094 C 266.316406 391.519531 264.71875 392.253906 263.117188 392.976562 C 240.457031 403.144531 215.351562 408.796875 188.914062 408.796875 C 162.472656 408.796875 137.371094 403.144531 114.71875 392.976562 C 113.097656 392.253906 111.5 391.519531 109.925781 390.746094 C 99.492188 385.699219 89.617188 379.691406 80.429688 372.816406 C 82.039062 336.835938 101.136719 305.40625 129.425781 286.847656 C 146.511719 275.625 166.949219 269.105469 188.914062 269.105469 C 192.265625 269.105469 195.578125 269.261719 198.835938 269.558594 C 217.035156 271.203125 233.917969 277.332031 248.402344 286.847656 C 261.425781 295.394531 272.496094 306.664062 280.808594 319.839844 C 290.566406 335.308594 296.519531 353.40625 297.398438 372.816406 " fill-opacity="1" fill-rule="nonzero"/><path fill="#fbd5c0" d="M 248.402344 286.847656 C 246.742188 299.398438 241.214844 310.738281 233.03125 319.605469 C 222.066406 331.492188 206.367188 338.945312 188.914062 338.945312 C 160.957031 338.945312 137.464844 319.804688 130.800781 293.898438 C 130.207031 291.601562 129.746094 289.242188 129.425781 286.847656 C 146.511719 275.625 166.949219 269.105469 188.914062 269.105469 C 192.265625 269.105469 195.578125 269.25 198.847656 269.558594 C 199.414062 269.605469 199.984375 269.664062 200.539062 269.722656 C 200.894531 269.757812 201.25 269.792969 201.59375 269.839844 C 201.984375 269.875 202.375 269.9375 202.753906 269.984375 C 202.992188 270.007812 203.238281 270.042969 203.476562 270.078125 C 203.820312 270.113281 204.175781 270.171875 204.53125 270.21875 C 204.804688 270.257812 205.074219 270.304688 205.359375 270.339844 C 205.597656 270.375 205.832031 270.410156 206.070312 270.457031 C 206.472656 270.515625 206.863281 270.589844 207.265625 270.648438 C 208.996094 270.945312 210.710938 271.273438 212.40625 271.65625 L 213.542969 271.902344 C 213.753906 271.960938 213.980469 272.011719 214.191406 272.070312 C 214.59375 272.164062 215.011719 272.257812 215.402344 272.367188 C 215.472656 272.378906 215.53125 272.390625 215.578125 272.402344 C 216.085938 272.53125 216.597656 272.660156 217.09375 272.804688 C 217.636719 272.933594 218.171875 273.089844 218.691406 273.242188 C 219.296875 273.410156 219.886719 273.585938 220.492188 273.765625 C 220.953125 273.90625 221.414062 274.046875 221.878906 274.203125 C 222.171875 274.296875 222.480469 274.390625 222.765625 274.488281 C 223.25 274.640625 223.738281 274.808594 224.210938 274.972656 C 224.800781 275.175781 225.382812 275.375 225.960938 275.589844 C 226.007812 275.613281 226.046875 275.625 226.082031 275.636719 C 226.683594 275.851562 227.277344 276.074219 227.867188 276.300781 C 228.308594 276.476562 228.757812 276.644531 229.207031 276.832031 C 230.378906 277.296875 231.527344 277.78125 232.664062 278.28125 L 234.15625 278.953125 C 234.605469 279.15625 235.054688 279.371094 235.507812 279.582031 C 235.921875 279.785156 236.324219 279.972656 236.726562 280.175781 C 237.105469 280.351562 237.472656 280.542969 237.839844 280.734375 C 238.074219 280.851562 238.324219 280.96875 238.5625 281.101562 C 239.542969 281.597656 240.503906 282.121094 241.449219 282.640625 C 241.792969 282.832031 242.148438 283.03125 242.480469 283.222656 C 242.707031 283.351562 242.917969 283.46875 243.132812 283.589844 L 243.9375 284.0625 L 244.753906 284.5625 L 245.285156 284.878906 C 245.796875 285.175781 246.292969 285.484375 246.789062 285.804688 C 247.335938 286.148438 247.867188 286.492188 248.402344 286.847656 " fill-opacity="1" fill-rule="nonzero"/><path fill="#fbd5c0" d="M 215.351562 239.300781 L 215.351562 291.363281 C 215.351562 304.53125 204.589844 315.316406 191.433594 315.316406 L 186.390625 315.316406 C 173.234375 315.316406 162.484375 304.53125 162.484375 291.363281 L 162.484375 239.300781 C 162.484375 226.132812 173.234375 215.371094 186.390625 215.371094 L 191.433594 215.371094 C 204.589844 215.371094 215.351562 226.132812 215.351562 239.300781 " fill-opacity="1" fill-rule="nonzero"/><path fill="#f8a29e" d="M 215.351562 239.300781 L 215.351562 266.855469 C 207.492188 271.226562 199.15625 273.765625 190.6875 273.765625 C 180.707031 273.765625 171.1875 270.992188 162.484375 266.144531 L 162.484375 239.300781 C 162.484375 226.132812 173.234375 215.371094 186.390625 215.371094 L 191.433594 215.371094 C 204.589844 215.371094 215.351562 226.132812 215.351562 239.300781 " fill-opacity="1" fill-rule="nonzero"/><path fill="#fbd5c0" d="M 253.386719 219.226562 C 253.386719 219.226562 265.769531 215.003906 273.679688 201.1875 C 282.277344 186.183594 276.878906 176.832031 275.171875 174.804688 C 270.519531 169.273438 263.332031 172.828125 262.148438 174.804688 C 260.964844 176.785156 243.816406 207.953125 253.386719 219.226562 " fill-opacity="1" fill-rule="nonzero"/><path fill="#f8a29e" d="M 265.523438 179.722656 C 265.523438 179.722656 273.382812 180.730469 270.625 191.789062 C 267.855469 202.859375 260.597656 207.230469 250.722656 212.882812 C 240.859375 218.539062 255.660156 181.976562 265.523438 179.722656 " fill-opacity="1" fill-rule="nonzero"/><path fill="#fbd5c0" d="M 127.660156 219.226562 C 127.660156 219.226562 115.277344 215.003906 107.367188 201.1875 C 98.757812 186.183594 104.15625 176.832031 105.863281 174.804688 C 110.515625 169.273438 117.703125 172.828125 118.886719 174.804688 C 120.070312 176.785156 137.226562 207.953125 127.660156 219.226562 " fill-opacity="1" fill-rule="nonzero"/><path fill="#f8a29e" d="M 115.511719 179.722656 C 115.511719 179.722656 107.664062 180.730469 110.421875 191.789062 C 113.179688 202.859375 120.449219 207.230469 130.3125 212.882812 C 140.1875 218.539062 125.386719 181.976562 115.511719 179.722656 " fill-opacity="1" fill-rule="nonzero"/><path fill="#fbd5c0" d="M 265.523438 172.425781 C 265.523438 127 232.023438 90.164062 190.6875 90.164062 C 149.363281 90.164062 115.84375 127 115.84375 172.425781 C 115.84375 217.851562 149.363281 265.335938 190.6875 265.335938 C 229.527344 265.335938 265.523438 217.46875 265.523438 172.425781 " fill-opacity="1" fill-rule="nonzero"/><path fill="#23255d" d="M 197.425781 139.253906 C 197.425781 139.253906 211.503906 184.582031 264.457031 180.089844 C 264.457031 180.089844 273.703125 166.710938 270.578125 137.617188 C 267.050781 104.824219 238.027344 77.234375 190.6875 87.105469 C 190.6875 87.105469 186.367188 110.417969 197.425781 139.253906 " fill-opacity="1" fill-rule="nonzero"/><path fill="#23255d" d="M 199.792969 90.164062 C 199.792969 90.164062 201.761719 81.585938 194.65625 74.863281 C 187.550781 68.144531 93.476562 81.941406 115.84375 172.425781 C 115.84375 172.425781 137.773438 118.3125 195.839844 113.570312 L 199.792969 90.164062 " fill-opacity="1" fill-rule="nonzero"/></svg>