<svg xmlns="http://www.w3.org/2000/svg" xmlns:xlink="http://www.w3.org/1999/xlink" width="500" zoomAndPan="magnify" viewBox="0 0 375 374.999991" height="500" preserveAspectRatio="xMidYMid meet" version="1.0"><path fill="#ffffff" d="M 187.5 0 C 184.429688 0 181.363281 0.0742188 178.300781 0.226562 C 175.234375 0.375 172.175781 0.601562 169.121094 0.902344 C 166.066406 1.203125 163.023438 1.578125 159.988281 2.03125 C 156.953125 2.480469 153.929688 3.003906 150.921875 3.601562 C 147.910156 4.203125 144.917969 4.875 141.941406 5.621094 C 138.964844 6.363281 136.007812 7.183594 133.070312 8.074219 C 130.136719 8.964844 127.222656 9.925781 124.332031 10.960938 C 121.445312 11.996094 118.582031 13.097656 115.746094 14.273438 C 112.910156 15.445312 110.105469 16.691406 107.332031 18.003906 C 104.558594 19.3125 101.820312 20.691406 99.113281 22.140625 C 96.40625 23.585938 93.738281 25.097656 91.105469 26.675781 C 88.472656 28.253906 85.882812 29.894531 83.332031 31.597656 C 80.777344 33.304688 78.269531 35.070312 75.804688 36.898438 C 73.339844 38.726562 70.921875 40.613281 68.550781 42.558594 C 66.179688 44.507812 63.855469 46.511719 61.582031 48.570312 C 59.308594 50.632812 57.085938 52.746094 54.917969 54.917969 C 52.746094 57.085938 50.632812 59.308594 48.570312 61.582031 C 46.511719 63.855469 44.507812 66.179688 42.558594 68.550781 C 40.613281 70.921875 38.726562 73.339844 36.898438 75.804688 C 35.070312 78.269531 33.304688 80.777344 31.597656 83.332031 C 29.894531 85.882812 28.253906 88.472656 26.675781 91.105469 C 25.097656 93.738281 23.585938 96.40625 22.140625 99.113281 C 20.691406 101.820312 19.3125 104.558594 18.003906 107.332031 C 16.691406 110.105469 15.445312 112.910156 14.273438 115.746094 C 13.097656 118.582031 11.996094 121.445312 10.960938 124.332031 C 9.925781 127.222656 8.964844 130.136719 8.074219 133.070312 C 7.183594 136.007812 6.363281 138.964844 5.621094 141.941406 C 4.875 144.917969 4.203125 147.910156 3.601562 150.921875 C 3.003906 153.929688 2.480469 156.953125 2.03125 159.988281 C 1.578125 163.023438 1.203125 166.066406 0.902344 169.121094 C 0.601562 172.175781 0.375 175.234375 0.226562 178.300781 C 0.0742188 181.363281 0 184.429688 0 187.5 C 0 190.570312 0.0742188 193.636719 0.226562 196.699219 C 0.375 199.765625 0.601562 202.824219 0.902344 205.878906 C 1.203125 208.933594 1.578125 211.976562 2.03125 215.011719 C 2.480469 218.046875 3.003906 221.070312 3.601562 224.078125 C 4.203125 227.089844 4.875 230.082031 5.621094 233.058594 C 6.363281 236.035156 7.183594 238.992188 8.074219 241.929688 C 8.964844 244.863281 9.925781 247.777344 10.960938 250.667969 C 11.996094 253.554688 13.097656 256.417969 14.273438 259.253906 C 15.445312 262.089844 16.691406 264.890625 18.003906 267.667969 C 19.3125 270.441406 20.691406 273.179688 22.140625 275.886719 C 23.585938 278.59375 25.097656 281.261719 26.675781 283.894531 C 28.253906 286.527344 29.894531 289.117188 31.597656 291.667969 C 33.304688 294.222656 35.070312 296.730469 36.898438 299.195312 C 38.726562 301.660156 40.613281 304.078125 42.558594 306.449219 C 44.507812 308.820312 46.511719 311.144531 48.570312 313.417969 C 50.632812 315.691406 52.746094 317.914062 54.917969 320.082031 C 57.085938 322.253906 59.308594 324.367188 61.582031 326.429688 C 63.855469 328.488281 66.179688 330.492188 68.550781 332.4375 C 70.921875 334.386719 73.339844 336.273438 75.804688 338.101562 C 78.269531 339.929688 80.777344 341.695312 83.332031 343.402344 C 85.882812 345.105469 88.472656 346.746094 91.105469 348.324219 C 93.738281 349.902344 96.40625 351.414062 99.113281 352.859375 C 101.820312 354.308594 104.558594 355.6875 107.332031 356.996094 C 110.105469 358.308594 112.910156 359.554688 115.746094 360.726562 C 118.582031 361.902344 121.445312 363.003906 124.332031 364.039062 C 127.222656 365.074219 130.136719 366.035156 133.070312 366.925781 C 136.007812 367.816406 138.964844 368.636719 141.941406 369.378906 C 144.917969 370.125 147.910156 370.796875 150.921875 371.398438 C 153.929688 371.996094 156.953125 372.519531 159.988281 372.96875 C 163.023438 373.421875 166.066406 373.796875 169.121094 374.097656 C 172.175781 374.398438 175.234375 374.625 178.300781 374.773438 C 181.363281 374.925781 184.429688 375 187.5 375 C 190.570312 375 193.636719 374.925781 196.699219 374.773438 C 199.765625 374.625 202.824219 374.398438 205.878906 374.097656 C 208.933594 373.796875 211.976562 373.421875 215.011719 372.96875 C 218.046875 372.519531 221.070312 371.996094 224.078125 371.398438 C 227.089844 370.796875 230.082031 370.125 233.058594 369.378906 C 236.035156 368.636719 238.992188 367.816406 241.929688 366.925781 C 244.863281 366.035156 247.777344 365.074219 250.667969 364.039062 C 253.554688 363.003906 256.417969 361.902344 259.253906 360.726562 C 262.089844 359.554688 264.890625 358.308594 267.667969 356.996094 C 270.441406 355.6875 273.179688 354.308594 275.886719 352.859375 C 278.59375 351.414062 281.261719 349.902344 283.894531 348.324219 C 286.527344 346.746094 289.117188 345.105469 291.667969 343.402344 C 294.222656 341.695312 296.730469 339.929688 299.195312 338.101562 C 301.660156 336.273438 304.078125 334.386719 306.449219 332.4375 C 308.820312 330.492188 311.144531 328.488281 313.417969 326.429688 C 315.691406 324.367188 317.914062 322.253906 320.082031 320.082031 C 322.253906 317.914062 324.367188 315.691406 326.429688 313.417969 C 328.488281 311.144531 330.492188 308.820312 332.4375 306.449219 C 334.386719 304.078125 336.273438 301.660156 338.101562 299.195312 C 339.929688 296.730469 341.695312 294.222656 343.402344 291.667969 C 345.105469 289.117188 346.746094 286.527344 348.324219 283.894531 C 349.902344 281.261719 351.414062 278.59375 352.859375 275.886719 C 354.308594 273.179688 355.6875 270.441406 356.996094 267.667969 C 358.308594 264.890625 359.554688 262.089844 360.726562 259.253906 C 361.902344 256.417969 363.003906 253.554688 364.039062 250.667969 C 365.074219 247.777344 366.035156 244.863281 366.925781 241.929688 C 367.816406 238.992188 368.636719 236.035156 369.378906 233.058594 C 370.125 230.082031 370.796875 227.089844 371.398438 224.078125 C 371.996094 221.070312 372.519531 218.046875 372.96875 215.011719 C 373.421875 211.976562 373.796875 208.933594 374.097656 205.878906 C 374.398438 202.824219 374.625 199.765625 374.773438 196.699219 C 374.925781 193.636719 375 190.570312 375 187.5 C 375 184.429688 374.925781 181.363281 374.773438 178.300781 C 374.625 175.234375 374.398438 172.175781 374.097656 169.121094 C 373.796875 166.066406 373.421875 163.023438 372.96875 159.988281 C 372.519531 156.953125 371.996094 153.929688 371.398438 150.921875 C 370.796875 147.910156 370.125 144.917969 369.378906 141.941406 C 368.636719 138.964844 367.816406 136.007812 366.925781 133.070312 C 366.035156 130.136719 365.074219 127.222656 364.039062 124.332031 C 363.003906 121.445312 361.902344 118.582031 360.726562 115.746094 C 359.554688 112.910156 358.308594 110.105469 356.996094 107.332031 C 355.6875 104.558594 354.308594 101.820312 352.859375 99.113281 C 351.414062 96.40625 349.902344 93.738281 348.324219 91.105469 C 346.746094 88.472656 345.105469 85.882812 343.402344 83.332031 C 341.695312 80.777344 339.929688 78.269531 338.101562 75.804688 C 336.273438 73.339844 334.386719 70.921875 332.4375 68.550781 C 330.492188 66.179688 328.488281 63.855469 326.429688 61.582031 C 324.367188 59.308594 322.253906 57.085938 320.082031 54.917969 C 317.914062 52.746094 315.691406 50.632812 313.417969 48.570312 C 311.144531 46.511719 308.820312 44.507812 306.449219 42.558594 C 304.078125 40.613281 301.660156 38.726562 299.195312 36.898438 C 296.730469 35.070312 294.222656 33.304688 291.667969 31.597656 C 289.117188 29.894531 286.527344 28.253906 283.894531 26.675781 C 281.261719 25.097656 278.59375 23.585938 275.886719 22.140625 C 273.179688 20.691406 270.441406 19.3125 267.667969 18.003906 C 264.890625 16.691406 262.089844 15.445312 259.253906 14.273438 C 256.417969 13.097656 253.554688 11.996094 250.667969 10.960938 C 247.777344 9.925781 244.863281 8.964844 241.929688 8.074219 C 238.992188 7.183594 236.035156 6.363281 233.058594 5.621094 C 230.082031 4.875 227.089844 4.203125 224.078125 3.601562 C 221.070312 3.003906 218.046875 2.480469 215.011719 2.03125 C 211.976562 1.578125 208.933594 1.203125 205.878906 0.902344 C 202.824219 0.601562 199.765625 0.375 196.699219 0.226562 C 193.636719 0.0742188 190.570312 0 187.5 0 Z M 294.5625 200.8125 L 219.5625 275.8125 C 219.128906 276.25 218.671875 276.667969 218.195312 277.058594 C 217.722656 277.453125 217.226562 277.820312 216.714844 278.167969 C 216.203125 278.511719 215.675781 278.828125 215.132812 279.121094 C 214.585938 279.414062 214.03125 279.679688 213.460938 279.917969 C 212.890625 280.152344 212.3125 280.363281 211.71875 280.542969 C 211.128906 280.722656 210.53125 280.875 209.925781 280.996094 C 209.320312 281.117188 208.710938 281.207031 208.097656 281.265625 C 207.484375 281.328125 206.867188 281.359375 206.25 281.359375 C 205.632812 281.359375 205.015625 281.328125 204.402344 281.265625 C 203.789062 281.207031 203.179688 281.117188 202.574219 280.996094 C 201.96875 280.875 201.371094 280.722656 200.78125 280.542969 C 200.1875 280.363281 199.609375 280.152344 199.039062 279.917969 C 198.46875 279.679688 197.914062 279.414062 197.367188 279.121094 C 196.824219 278.828125 196.296875 278.511719 195.785156 278.167969 C 195.273438 277.820312 194.777344 277.453125 194.304688 277.058594 C 193.828125 276.667969 193.371094 276.25 192.9375 275.8125 C 192.5 275.378906 192.082031 274.921875 191.691406 274.445312 C 191.296875 273.972656 190.929688 273.476562 190.582031 272.964844 C 190.238281 272.453125 189.921875 271.925781 189.628906 271.382812 C 189.335938 270.835938 189.070312 270.28125 188.832031 269.710938 C 188.597656 269.140625 188.386719 268.5625 188.207031 267.96875 C 188.027344 267.378906 187.875 266.78125 187.753906 266.175781 C 187.632812 265.570312 187.542969 264.960938 187.484375 264.347656 C 187.421875 263.734375 187.390625 263.117188 187.390625 262.5 C 187.390625 261.882812 187.421875 261.265625 187.484375 260.652344 C 187.542969 260.039062 187.632812 259.429688 187.753906 258.824219 C 187.875 258.21875 188.027344 257.621094 188.207031 257.03125 C 188.386719 256.4375 188.597656 255.859375 188.832031 255.289062 C 189.070312 254.71875 189.335938 254.164062 189.628906 253.617188 C 189.921875 253.074219 190.238281 252.546875 190.582031 252.035156 C 190.929688 251.523438 191.296875 251.027344 191.691406 250.554688 C 192.082031 250.078125 192.5 249.621094 192.9375 249.1875 L 236.0625 206.25 L 93.75 206.25 C 93.136719 206.25 92.523438 206.21875 91.914062 206.160156 C 91.300781 206.097656 90.695312 206.007812 90.09375 205.890625 C 89.488281 205.769531 88.894531 205.621094 88.308594 205.441406 C 87.71875 205.265625 87.140625 205.058594 86.574219 204.824219 C 86.007812 204.585938 85.453125 204.324219 84.910156 204.035156 C 84.371094 203.746094 83.84375 203.429688 83.332031 203.089844 C 82.824219 202.75 82.328125 202.382812 81.855469 201.992188 C 81.378906 201.605469 80.925781 201.191406 80.492188 200.757812 C 80.058594 200.324219 79.644531 199.871094 79.257812 199.394531 C 78.867188 198.921875 78.5 198.425781 78.160156 197.917969 C 77.820312 197.40625 77.503906 196.878906 77.214844 196.339844 C 76.925781 195.796875 76.664062 195.242188 76.425781 194.675781 C 76.191406 194.109375 75.984375 193.53125 75.808594 192.941406 C 75.628906 192.355469 75.480469 191.761719 75.359375 191.15625 C 75.242188 190.554688 75.152344 189.949219 75.089844 189.335938 C 75.03125 188.726562 75 188.113281 75 187.5 C 75 186.886719 75.03125 186.273438 75.089844 185.664062 C 75.152344 185.050781 75.242188 184.445312 75.359375 183.84375 C 75.480469 183.238281 75.628906 182.644531 75.808594 182.058594 C 75.984375 181.46875 76.191406 180.890625 76.425781 180.324219 C 76.664062 179.757812 76.925781 179.203125 77.214844 178.660156 C 77.503906 178.121094 77.820312 177.59375 78.160156 177.082031 C 78.5 176.574219 78.867188 176.078125 79.257812 175.605469 C 79.644531 175.128906 80.058594 174.675781 80.492188 174.242188 C 80.925781 173.808594 81.378906 173.394531 81.855469 173.007812 C 82.328125 172.617188 82.824219 172.25 83.332031 171.910156 C 83.84375 171.570312 84.371094 171.253906 84.910156 170.964844 C 85.453125 170.675781 86.007812 170.414062 86.574219 170.175781 C 87.140625 169.941406 87.71875 169.734375 88.308594 169.558594 C 88.894531 169.378906 89.488281 169.230469 90.09375 169.109375 C 90.695312 168.992188 91.300781 168.902344 91.914062 168.839844 C 92.523438 168.78125 93.136719 168.75 93.75 168.75 L 236.0625 168.75 L 192.9375 125.8125 C 192.5 125.375 192.089844 124.921875 191.695312 124.445312 C 191.304688 123.96875 190.9375 123.472656 190.597656 122.960938 C 190.253906 122.445312 189.9375 121.917969 189.644531 121.375 C 189.355469 120.832031 189.09375 120.273438 188.855469 119.703125 C 188.621094 119.136719 188.414062 118.554688 188.234375 117.964844 C 188.054688 117.375 187.90625 116.777344 187.785156 116.171875 C 187.664062 115.566406 187.574219 114.960938 187.515625 114.34375 C 187.453125 113.730469 187.421875 113.117188 187.421875 112.5 C 187.421875 111.882812 187.453125 111.269531 187.515625 110.65625 C 187.574219 110.042969 187.664062 109.433594 187.785156 108.828125 C 187.90625 108.222656 188.054688 107.625 188.234375 107.035156 C 188.414062 106.445312 188.621094 105.863281 188.855469 105.296875 C 189.09375 104.726562 189.355469 104.167969 189.644531 103.625 C 189.9375 103.082031 190.253906 102.554688 190.597656 102.039062 C 190.9375 101.527344 191.304688 101.03125 191.695312 100.554688 C 192.089844 100.078125 192.5 99.625 192.9375 99.1875 C 193.375 98.75 193.828125 98.339844 194.304688 97.945312 C 194.78125 97.554688 195.277344 97.1875 195.789062 96.847656 C 196.304688 96.503906 196.832031 96.1875 197.375 95.894531 C 197.917969 95.605469 198.476562 95.34375 199.046875 95.105469 C 199.613281 94.871094 200.195312 94.664062 200.785156 94.484375 C 201.375 94.304688 201.972656 94.15625 202.578125 94.035156 C 203.183594 93.914062 203.792969 93.824219 204.40625 93.765625 C 205.019531 93.703125 205.632812 93.671875 206.25 93.671875 C 206.867188 93.671875 207.480469 93.703125 208.09375 93.765625 C 208.710938 93.824219 209.316406 93.914062 209.921875 94.035156 C 210.527344 94.15625 211.125 94.304688 211.714844 94.484375 C 212.304688 94.664062 212.886719 94.871094 213.453125 95.105469 C 214.023438 95.34375 214.582031 95.605469 215.125 95.894531 C 215.667969 96.1875 216.195312 96.503906 216.710938 96.847656 C 217.222656 97.1875 217.71875 97.554688 218.195312 97.945312 C 218.671875 98.339844 219.125 98.75 219.5625 99.1875 L 294.5625 174.1875 C 296.285156 175.988281 297.597656 178.050781 298.5 180.375 C 299.4375 182.65625 299.90625 185.03125 299.90625 187.5 C 299.90625 189.96875 299.4375 192.34375 298.5 194.625 C 297.597656 196.949219 296.285156 199.011719 294.5625 200.8125 Z M 294.5625 200.8125 " fill-opacity="1" fill-rule="nonzero"/></svg>