<svg xmlns="http://www.w3.org/2000/svg" xmlns:xlink="http://www.w3.org/1999/xlink" width="1587" zoomAndPan="magnify" viewBox="0 0 1190.25 1683.749949" height="2245" preserveAspectRatio="xMidYMid meet" version="1.0"><defs><clipPath id="f0e6c25619"><path d="M 0 0.40625 L 1189.5 0.40625 L 1189.5 1683.09375 L 0 1683.09375 Z M 0 0.40625 " clip-rule="nonzero"/></clipPath><clipPath id="583cc3f784"><path d="M 248 578 L 1189.5 578 L 1189.5 938 L 248 938 Z M 248 578 " clip-rule="nonzero"/></clipPath><clipPath id="66d582958f"><path d="M 223.679688 742.652344 L 1240.910156 539.367188 L 1287.328125 771.625 L 270.09375 974.910156 Z M 223.679688 742.652344 " clip-rule="nonzero"/></clipPath><clipPath id="38ba8ce4a8"><path d="M 223.679688 742.652344 L 1240.910156 539.367188 L 1287.328125 771.625 L 270.09375 974.910156 Z M 223.679688 742.652344 " clip-rule="nonzero"/></clipPath></defs><g clip-path="url(#f0e6c25619)"><path fill="#ffffff" d="M 0 0.40625 L 1189.5 0.40625 L 1189.5 1683.09375 L 0 1683.09375 Z M 0 0.40625 " fill-opacity="1" fill-rule="nonzero"/><path fill="#ffffff" d="M 0 0.40625 L 1189.5 0.40625 L 1189.5 1683.09375 L 0 1683.09375 Z M 0 0.40625 " fill-opacity="1" fill-rule="nonzero"/></g><g clip-path="url(#583cc3f784)"><g clip-path="url(#66d582958f)"><g clip-path="url(#38ba8ce4a8)"><path fill="#245261" d="M 592.851562 793.8125 C 623.660156 711.703125 569.519531 695.375 561.746094 737.882812 C 558.003906 760.65625 571.027344 785.480469 592.851562 793.8125 Z M 403.222656 936.992188 C 355.34375 938.359375 306.054688 922.675781 270.328125 890.242188 C 261.929688 882.386719 254.066406 874.25 249.164062 863.957031 C 247.316406 857.53125 254.769531 855.324219 258.488281 860.21875 C 260.800781 862.785156 262.53125 865.800781 264.578125 868.570312 C 270.917969 876.855469 278.507812 884.101562 286.523438 890.742188 C 311.847656 910.488281 342.640625 922.796875 374.464844 926.734375 C 402.707031 930.804688 430.980469 926.84375 457.878906 918.078125 C 515.71875 899.6875 565.972656 856.511719 590.15625 800.535156 C 563.484375 790.457031 548.132812 758.894531 555.292969 731.539062 C 557.90625 721.5 564.703125 711.707031 575.023438 708.660156 C 585.679688 705.007812 596.761719 711.574219 602.449219 720.53125 C 605.902344 725.847656 607.617188 732.089844 608.675781 738.289062 C 611.226562 757.882812 605.886719 777.621094 599.21875 795.914062 C 619 800.921875 639.777344 795.003906 657.851562 786.734375 C 714.0625 759.773438 740.3125 698.59375 786.242188 659.398438 C 815.867188 633.964844 858 615.945312 896.867188 628.730469 C 928.417969 639.730469 940.222656 663.097656 954.566406 690.808594 C 966.320312 713.160156 986.75 730.582031 1010.5 738.949219 C 1090.863281 766.988281 1170.324219 717.617188 1211.296875 649.125 C 1220.738281 633.695312 1228.300781 617.339844 1234.597656 600.558594 C 1237.175781 594.109375 1239.777344 587.671875 1241.851562 581.042969 C 1242.441406 579.230469 1244.621094 578.332031 1246.355469 578.976562 C 1248.199219 579.664062 1249.011719 581.667969 1248.421875 583.484375 C 1239.617188 611.96875 1227.644531 639.589844 1210.714844 664.230469 C 1183.59375 704.1875 1143.222656 736.695312 1096.242188 749.539062 C 1065.511719 757.597656 1031.953125 756.234375 1002.378906 744.378906 C 980.777344 735.648438 962.15625 719.917969 950.371094 699.773438 C 941.84375 685.746094 935.707031 670.164062 924.894531 657.605469 C 913.355469 643.851562 895.808594 634.761719 877.996094 633.320312 C 841.75 630.664062 807.695312 649.402344 782.332031 673.910156 C 755.34375 699.929688 734.882812 731.808594 708.378906 758.292969 C 690.214844 776.824219 668.40625 792.367188 643.402344 800.019531 C 628.308594 804.699219 611.917969 806.925781 596.472656 802.664062 C 563.648438 878.566406 485.621094 932.238281 403.222656 936.992188 Z M 403.222656 936.992188 " fill-opacity="1" fill-rule="nonzero"/></g></g></g></svg>