<svg xmlns="http://www.w3.org/2000/svg" xmlns:xlink="http://www.w3.org/1999/xlink" width="500" zoomAndPan="magnify" viewBox="0 0 375 374.999991" height="500" preserveAspectRatio="xMidYMid meet" version="1.0"><defs><clipPath id="7170442232"><path d="M 9.800781 32 L 365.71875 32 L 365.71875 342.988281 L 9.800781 342.988281 Z M 9.800781 32 " clip-rule="nonzero"/></clipPath><clipPath id="f782ebdafb"><path d="M 23.890625 81.667969 C -4.925781 129.140625 15.375 175.347656 40.886719 199.871094 L 190.058594 342.988281 L 336.078125 200.382812 C 359.804688 174.003906 368.902344 146.019531 363.847656 114.855469 C 356.871094 71.75 321.351562 38.308594 277.46875 33.53125 C 250.558594 30.636719 224.558594 38.25 204.269531 55.113281 C 198.808594 59.648438 193.925781 64.722656 189.671875 70.234375 C 184.625 63.957031 178.707031 58.214844 172.011719 53.125 C 148.679688 35.394531 118.976562 28.351562 90.445312 33.828125 C 63.425781 39.050781 39.171875 56.480469 23.890625 81.667969 Z M 23.890625 81.667969 " clip-rule="nonzero"/></clipPath></defs><g clip-path="url(#7170442232)"><g clip-path="url(#f782ebdafb)"><path fill="#ffffff" d="M 9.800781 32.011719 L 365.71875 32.011719 L 365.71875 342.988281 L 9.800781 342.988281 Z M 9.800781 32.011719 " fill-opacity="1" fill-rule="nonzero"/></g></g></svg>