<svg xmlns="http://www.w3.org/2000/svg" xmlns:xlink="http://www.w3.org/1999/xlink" width="1587" zoomAndPan="magnify" viewBox="0 0 1190.25 1683.749949" height="2245" preserveAspectRatio="xMidYMid meet" version="1.0"><path fill="#6093af" d="M 230.4375 473.632812 C 230.4375 473.632812 -11.175781 520.671875 -53.9375 529.222656 C -96.703125 537.777344 -119.507812 582.675781 -119.507812 642.546875 C -119.507812 702.417969 -119.507812 919.789062 -119.507812 949.722656 C -119.507812 979.660156 -115.234375 1009.59375 -86.726562 1016.722656 C -58.21875 1023.847656 -24.71875 1028.125 -34.695312 1074.453125 C -44.675781 1120.777344 -46.101562 1125.054688 -18.304688 1139.308594 C 9.492188 1153.566406 11.628906 1163.542969 10.203125 1189.914062 C 8.777344 1216.285156 13.054688 1214.855469 103.570312 1254.054688 C 194.085938 1293.257812 211.191406 1288.265625 236.136719 1235.523438 C 261.082031 1182.785156 281.039062 1218.417969 290.304688 1239.089844 C 299.566406 1259.757812 311.683594 1253.34375 327.363281 1235.523438 C 343.042969 1217.707031 371.554688 1203.453125 371.554688 1203.453125 L 499.84375 1203.453125 C 499.84375 1203.453125 511.105469 924.207031 518.644531 751.40625 C 497.730469 770.089844 474.625 763.695312 465.964844 785.761719 C 454.917969 813.914062 336.460938 1129.53125 336.460938 1129.53125 C 301.796875 1056.429688 267.066406 985.542969 232.085938 922.589844 C 266.609375 885.210938 404.386719 741.980469 411.085938 707.363281 C 415.363281 685.269531 428.191406 624.332031 453.847656 632.882812 C 453.847656 632.882812 488.058594 623.617188 502.3125 638.230469 C 502.3125 638.230469 512.777344 646.445312 522.796875 659.527344 C 523.671875 641.222656 524.363281 628.042969 524.792969 621.867188 C 528.355469 570.550781 509.113281 559.144531 449.957031 535.628906 C 406.890625 518.503906 354.761719 484.386719 297.136719 473.699219 C 292.042969 484.652344 280.351562 500.394531 264.992188 502.28125 C 250.277344 504.089844 240.707031 483.828125 236.546875 472.523438 C 234.515625 472.855469 232.480469 473.214844 230.4375 473.628906 Z M 230.4375 473.632812 " fill-opacity="1" fill-rule="evenodd"/><path fill="#1f1f1f" d="M 48.949219 579.949219 C 48.875 578.515625 49.972656 577.292969 51.40625 577.210938 C 52.839844 577.132812 54.0625 578.234375 54.144531 579.664062 C 54.179688 580.285156 66.191406 795.6875 103.503906 818.492188 C 121.210938 829.3125 144.425781 845.351562 165.992188 861.027344 C 191.519531 879.585938 214.832031 897.710938 224.007812 906.105469 C 241.148438 921.785156 367.507812 1188.378906 367.871094 1189.144531 C 368.484375 1190.445312 367.929688 1191.992188 366.628906 1192.605469 C 365.332031 1193.21875 363.78125 1192.664062 363.167969 1191.363281 C 362.804688 1190.597656 236.863281 924.898438 220.507812 909.929688 C 211.523438 901.714844 188.394531 883.746094 162.9375 865.242188 C 141.433594 849.609375 118.335938 833.644531 100.796875 822.925781 C 61.132812 798.6875 48.988281 580.578125 48.953125 579.949219 Z M 48.949219 579.949219 " fill-opacity="1" fill-rule="nonzero"/><path fill="#1f1f1f" d="M 293.964844 431.695312 C 293.59375 430.308594 294.417969 428.882812 295.804688 428.511719 C 297.195312 428.140625 298.621094 428.964844 298.992188 430.351562 C 299.015625 430.445312 307.351562 463.003906 327.792969 438.105469 C 332.910156 431.871094 337.496094 426.449219 341.707031 421.472656 C 357.5625 402.722656 368.054688 390.320312 366.964844 383.3125 C 366.308594 379.082031 364.070312 377.273438 361.886719 375.511719 C 358.96875 373.160156 356.125 370.863281 355.375 365.066406 C 355.351562 364.898438 355.3125 364.691406 355.257812 364.449219 L 355.242188 364.367188 C 354.304688 360.417969 350.125 355.757812 345.023438 352.15625 C 339.886719 348.535156 333.972656 346.097656 329.660156 346.65625 C 329.4375 346.683594 329.195312 346.726562 328.941406 346.785156 C 324.796875 347.730469 321.777344 352.230469 318.960938 356.421875 C 315.578125 361.464844 312.433594 366.148438 307.046875 366.265625 C 304.296875 366.324219 302.253906 370.671875 300.308594 374.808594 C 297.988281 379.75 295.769531 384.472656 291.234375 384.964844 C 287.886719 385.324219 286.601562 383.359375 286.234375 379.980469 C 286.070312 378.453125 286.140625 376.570312 286.222656 374.460938 C 286.480469 367.582031 286.851562 357.792969 277.363281 356.257812 C 273.066406 355.5625 269.367188 358.023438 266.933594 362.023438 C 265.539062 364.3125 264.546875 367.09375 264.066406 370.097656 C 263.582031 373.140625 263.617188 376.398438 264.285156 379.609375 C 265.996094 387.863281 271.9375 395.8125 283.953125 398.929688 C 285.339844 399.289062 286.171875 400.707031 285.8125 402.097656 C 285.453125 403.484375 284.035156 404.320312 282.648438 403.960938 C 268.359375 400.253906 261.269531 390.65625 259.195312 380.667969 L 259.195312 380.660156 C 258.398438 376.820312 258.355469 372.921875 258.9375 369.285156 C 259.527344 365.605469 260.757812 362.175781 262.496094 359.316406 C 266.003906 353.558594 271.539062 350.050781 278.179688 351.128906 C 292.21875 353.398438 291.746094 365.875 291.414062 374.644531 C 291.339844 376.542969 291.277344 378.238281 291.40625 379.429688 C 291.425781 379.605469 290.113281 379.855469 290.683594 379.792969 C 292.3125 379.617188 293.921875 376.191406 295.605469 372.613281 C 298.21875 367.050781 300.964844 361.203125 306.945312 361.074219 C 309.621094 361.015625 312.042969 357.414062 314.648438 353.53125 C 318.015625 348.511719 321.632812 343.121094 327.800781 341.714844 C 328.175781 341.632812 328.578125 341.5625 329.007812 341.503906 C 334.675781 340.773438 341.941406 343.617188 348.015625 347.902344 C 354.035156 352.152344 359.039062 357.9375 360.292969 363.15625 L 360.328125 363.289062 C 360.40625 363.628906 360.472656 364.007812 360.523438 364.414062 C 361.003906 368.121094 363.046875 369.769531 365.144531 371.460938 C 368.097656 373.84375 371.128906 376.292969 372.097656 382.519531 C 373.546875 391.875 362.449219 405 345.675781 424.832031 C 341.308594 429.996094 336.546875 435.621094 331.800781 441.402344 C 304.847656 474.234375 293.996094 431.816406 293.964844 431.695312 Z M 293.964844 431.695312 " fill-opacity="1" fill-rule="nonzero"/><path fill="#1f1f1f" d="M 241.078125 473.359375 C 240.425781 474.640625 238.855469 475.152344 237.574219 474.5 C 236.292969 473.847656 235.78125 472.28125 236.433594 471 L 273.808594 397.582031 C 274.460938 396.300781 276.027344 395.789062 277.308594 396.441406 C 278.589844 397.09375 279.101562 398.664062 278.449219 399.945312 Z M 241.078125 473.359375 " fill-opacity="1" fill-rule="nonzero"/><path fill="#1f1f1f" d="M 291.28125 477.433594 C 290.742188 478.765625 289.222656 479.40625 287.890625 478.867188 C 286.558594 478.328125 285.917969 476.8125 286.457031 475.480469 L 299.808594 442.707031 C 300.351562 441.375 301.867188 440.734375 303.199219 441.273438 C 304.53125 441.8125 305.175781 443.328125 304.636719 444.660156 Z M 291.28125 477.433594 " fill-opacity="1" fill-rule="nonzero"/><path fill="#1f1f1f" d="M 271.1875 368.519531 C 269.984375 367.730469 269.644531 366.117188 270.433594 364.914062 C 271.21875 363.710938 272.832031 363.375 274.035156 364.164062 C 274.066406 364.179688 284.222656 370.683594 283.222656 385.042969 C 283.128906 386.476562 281.890625 387.5625 280.457031 387.46875 C 279.617188 387.410156 278.898438 386.964844 278.464844 386.3125 C 278.453125 386.304688 275.585938 381.914062 269.71875 382.644531 C 268.289062 382.820312 266.992188 381.804688 266.816406 380.375 C 266.644531 378.949219 267.660156 377.648438 269.085938 377.472656 C 272.640625 377.03125 275.511719 377.84375 277.691406 379 C 276.226562 371.742188 271.203125 368.53125 271.183594 368.519531 Z M 271.1875 368.519531 " fill-opacity="1" fill-rule="nonzero"/><path fill="#1f1f1f" d="M 341.3125 387.078125 C 341.863281 385.753906 343.382812 385.125 344.710938 385.675781 C 346.039062 386.226562 346.667969 387.746094 346.117188 389.074219 C 346.101562 389.109375 341.324219 400.449219 338.824219 405.753906 C 340.582031 408.941406 344.0625 417.113281 336.742188 421.800781 C 335.59375 422.539062 334.453125 423.046875 333.347656 423.359375 C 330.503906 424.15625 327.921875 423.675781 325.734375 422.496094 C 323.675781 421.386719 322 419.652344 320.824219 417.8125 C 320.035156 416.585938 319.453125 415.285156 319.113281 414.082031 C 318.726562 412.699219 319.535156 411.261719 320.917969 410.875 C 322.300781 410.488281 323.734375 411.292969 324.121094 412.675781 C 324.328125 413.40625 324.695312 414.21875 325.199219 415.003906 C 325.949219 416.175781 326.976562 417.257812 328.195312 417.917969 C 329.28125 418.5 330.550781 418.738281 331.941406 418.351562 C 332.570312 418.175781 333.234375 417.875 333.933594 417.425781 C 338.613281 414.425781 333.738281 407.378906 333.726562 407.359375 L 333.730469 407.355469 C 333.21875 406.605469 333.117188 405.605469 333.550781 404.734375 C 335.617188 400.601562 341.296875 387.117188 341.3125 387.078125 Z M 341.3125 387.078125 " fill-opacity="1" fill-rule="nonzero"/><path fill="#1f1f1f" d="M 301.0625 414.960938 C 300.484375 413.644531 301.078125 412.109375 302.394531 411.53125 C 303.710938 410.953125 305.246094 411.550781 305.824219 412.863281 C 305.851562 412.925781 315.027344 434.140625 323.640625 432.898438 C 325.0625 432.699219 326.378906 433.6875 326.582031 435.109375 C 326.785156 436.53125 325.792969 437.847656 324.375 438.050781 C 311.785156 439.867188 301.09375 415.03125 301.0625 414.960938 Z M 301.0625 414.960938 " fill-opacity="1" fill-rule="nonzero"/><path fill="#1f1f1f" d="M 325.828125 383.777344 L 325.890625 383.808594 L 325.890625 383.804688 C 327.339844 384.640625 327.984375 386.222656 327.855469 388.097656 C 327.773438 389.34375 327.316406 390.816406 326.507812 392.21875 L 326.496094 392.234375 L 326.5 392.238281 C 325.695312 393.628906 324.644531 394.761719 323.597656 395.46875 C 322.140625 396.445312 320.574219 396.714844 319.191406 396.070312 C 318.992188 395.984375 318.804688 395.878906 318.632812 395.75 C 317.367188 394.882812 316.804688 393.378906 316.925781 391.617188 C 317.011719 390.371094 317.46875 388.898438 318.277344 387.496094 L 318.289062 387.476562 L 318.285156 387.472656 L 318.328125 387.402344 C 319.128906 386.042969 320.15625 384.941406 321.183594 384.25 C 322.726562 383.214844 324.394531 382.976562 325.828125 383.777344 Z M 325.828125 383.777344 " fill-opacity="1" fill-rule="nonzero"/><path fill="#1f1f1f" d="M 352.789062 397.585938 C 354.03125 398.433594 354.582031 399.890625 354.464844 401.589844 C 354.386719 402.757812 353.964844 404.132812 353.21875 405.445312 C 353.230469 405.453125 353.152344 405.574219 353.140625 405.589844 L 352.789062 397.582031 Z M 353.097656 405.667969 L 353.078125 405.699219 C 352.328125 406.941406 351.371094 407.957031 350.417969 408.597656 C 348.902344 409.617188 347.257812 409.839844 345.839844 409.019531 C 345.757812 408.972656 345.675781 408.917969 345.597656 408.859375 C 344.355469 408.011719 343.804688 406.554688 343.921875 404.851562 C 344.003906 403.667969 344.433594 402.28125 345.191406 400.953125 L 345.214844 400.917969 L 345.210938 400.914062 L 345.308594 400.746094 C 346.058594 399.5 347.015625 398.488281 347.972656 397.847656 C 349.484375 396.828125 351.132812 396.605469 352.546875 397.425781 C 352.632812 397.472656 352.710938 397.527344 352.789062 397.585938 Z M 353.097656 405.667969 " fill-opacity="1" fill-rule="nonzero"/><path fill="#1f1f1f" d="M 315.898438 369.648438 C 314.464844 369.6875 313.273438 368.554688 313.234375 367.121094 C 313.191406 365.6875 314.324219 364.496094 315.757812 364.457031 C 315.792969 364.453125 329.203125 364.066406 337.667969 372.921875 C 338.65625 373.960938 338.613281 375.605469 337.574219 376.597656 C 336.535156 377.585938 334.890625 377.542969 333.898438 376.503906 C 327.039062 369.324219 315.929688 369.648438 315.898438 369.648438 Z M 315.898438 369.648438 " fill-opacity="1" fill-rule="nonzero"/><path fill="#1f1f1f" d="M 349.355469 386.484375 C 347.972656 386.105469 347.15625 384.679688 347.535156 383.296875 C 347.910156 381.914062 349.335938 381.097656 350.71875 381.472656 C 350.75 381.484375 361.820312 384.398438 362.949219 392.53125 C 363.144531 393.953125 362.152344 395.265625 360.730469 395.460938 C 359.308594 395.660156 357.996094 394.664062 357.796875 393.242188 C 357.148438 388.546875 349.378906 386.488281 349.355469 386.484375 Z M 349.355469 386.484375 " fill-opacity="1" fill-rule="nonzero"/><path fill="#1f1f1f" d="M 267.152344 415.820312 C 268.488281 416.335938 269.152344 417.839844 268.636719 419.175781 C 268.121094 420.515625 266.617188 421.179688 265.277344 420.664062 C 265.042969 420.574219 264.832031 420.484375 264.636719 420.398438 C 259.121094 417.980469 253.378906 411.730469 249.59375 404.761719 C 245.730469 397.648438 243.816406 389.617188 246.066406 383.804688 L 246.273438 383.296875 C 248.574219 378.050781 247.664062 377.007812 245.96875 375.074219 C 244.65625 373.574219 243.035156 371.722656 241.503906 368.527344 C 239.355469 364.042969 237.429688 354.773438 238.175781 346.714844 C 238.472656 343.527344 239.171875 340.492188 240.417969 337.941406 C 241.769531 335.171875 243.75 332.945312 246.523438 331.613281 C 248.621094 330.609375 251.113281 330.160156 254.058594 330.433594 C 262.457031 331.210938 269.144531 331.605469 274.277344 330.496094 C 278.957031 329.484375 282.394531 327.117188 284.835938 322.382812 C 285.878906 320.363281 286.828125 318.128906 287.792969 315.855469 C 292.574219 304.578125 297.773438 292.328125 313.914062 297.203125 C 318.757812 298.667969 322.800781 300.4375 326.382812 302.003906 C 334.617188 305.605469 340.105469 308.007812 348.289062 301.730469 C 349.542969 300.769531 350.785156 299.945312 352.015625 299.25 C 357.878906 295.925781 363.246094 295.585938 367.65625 296.726562 C 372.101562 297.875 375.5625 300.554688 377.601562 303.21875 C 378.011719 303.746094 378.371094 304.289062 378.675781 304.832031 C 380.070312 307.292969 379.398438 312.550781 378.585938 318.90625 C 377.128906 330.300781 375.136719 345.894531 383.707031 347.011719 C 388.179688 347.59375 391.828125 350.046875 394.675781 353.566406 C 397.710938 357.324219 399.820312 362.324219 401.007812 367.511719 C 402.183594 372.632812 402.46875 377.996094 401.878906 382.539062 C 401.253906 387.324219 399.609375 391.324219 396.9375 393.484375 C 395.378906 394.746094 393.628906 396.066406 391.742188 397.492188 C 383.328125 403.847656 371.972656 412.425781 373.402344 417.484375 C 373.863281 419.117188 373.75 420.683594 373.167969 422.144531 C 372.207031 424.558594 369.960938 426.53125 366.992188 427.914062 C 364.328125 429.160156 360.992188 429.964844 357.488281 430.191406 C 351.972656 430.542969 345.949219 429.445312 341.367188 426.316406 C 340.179688 425.507812 339.875 423.890625 340.683594 422.703125 C 341.492188 421.519531 343.109375 421.210938 344.296875 422.023438 C 347.847656 424.445312 352.671875 425.285156 357.164062 425 C 360.007812 424.816406 362.6875 424.175781 364.796875 423.195312 L 364.808594 423.195312 C 366.609375 422.355469 367.90625 421.332031 368.34375 420.230469 C 368.503906 419.824219 368.53125 419.375 368.394531 418.890625 C 366 410.417969 378.984375 400.609375 388.605469 393.339844 C 390.53125 391.886719 392.3125 390.539062 393.679688 389.433594 C 395.246094 388.167969 396.269531 385.378906 396.726562 381.871094 C 397.242188 377.921875 396.980469 373.214844 395.9375 368.671875 C 394.914062 364.195312 393.140625 359.9375 390.625 356.824219 C 388.585938 354.300781 386.046875 352.554688 383.035156 352.164062 C 369.332031 350.375 371.703125 331.816406 373.4375 318.257812 C 374.128906 312.839844 374.703125 308.359375 374.15625 307.398438 C 373.972656 307.074219 373.742188 306.730469 373.46875 306.375 C 372.023438 304.488281 369.550781 302.582031 366.351562 301.753906 C 363.113281 300.917969 359.097656 301.210938 354.578125 303.773438 C 353.566406 304.34375 352.519531 305.039062 351.445312 305.863281 C 340.839844 314 334.226562 311.109375 324.304688 306.769531 C 320.90625 305.28125 317.066406 303.601562 312.410156 302.195312 C 300.722656 298.664062 296.480469 308.664062 292.578125 317.871094 C 291.546875 320.292969 290.542969 322.667969 289.457031 324.765625 C 286.199219 331.078125 281.617188 334.238281 275.378906 335.585938 C 269.601562 336.835938 262.476562 336.429688 253.59375 335.605469 C 251.628906 335.421875 250.035156 335.6875 248.765625 336.296875 C 247.15625 337.066406 245.960938 338.457031 245.101562 340.222656 C 244.136719 342.203125 243.585938 344.617188 243.347656 347.183594 C 242.683594 354.328125 244.335938 362.421875 246.1875 366.289062 C 247.402344 368.824219 248.769531 370.386719 249.878906 371.652344 C 252.988281 375.207031 254.660156 377.117188 251.039062 385.375 L 250.914062 385.679688 C 249.257812 389.949219 250.945312 396.371094 254.15625 402.277344 C 257.441406 408.328125 262.246094 413.675781 266.714844 415.636719 Z M 267.152344 415.820312 " fill-opacity="1" fill-rule="nonzero"/><path fill="#1f1f1f" d="M 242.09375 915.65625 C 241.121094 916.710938 239.472656 916.78125 238.417969 915.808594 C 237.359375 914.835938 237.292969 913.191406 238.265625 912.132812 C 242.414062 907.640625 248.132812 901.539062 254.890625 894.328125 C 302.621094 843.398438 402.796875 736.503906 408.53125 706.875 C 410.6875 695.742188 415 674.8125 422.046875 657.644531 C 429.367188 639.816406 439.691406 626.035156 453.910156 630.183594 C 459 628.929688 489.878906 622.054688 504.015625 636.257812 C 506.335938 638.105469 561.425781 682.628906 537.421875 730.273438 C 523.851562 757.210938 506.785156 763.277344 492.351562 768.410156 C 481.839844 772.148438 472.847656 775.347656 468.390625 786.710938 C 457.214844 815.179688 342.652344 1120.421875 342.324219 1121.300781 C 341.824219 1122.644531 340.328125 1123.328125 338.984375 1122.824219 C 337.640625 1122.324219 336.957031 1120.832031 337.457031 1119.488281 C 337.789062 1118.605469 452.621094 812.648438 463.542969 784.816406 C 468.871094 771.242188 478.898438 767.675781 490.621094 763.507812 C 504.152344 758.695312 520.148438 753.003906 532.78125 727.929688 C 555.339844 683.15625 500.855469 640.390625 500.699219 640.265625 C 500.613281 640.195312 500.53125 640.121094 500.453125 640.039062 C 487.273438 626.53125 454.605469 635.371094 454.511719 635.398438 L 454.511719 635.390625 C 454.039062 635.515625 453.53125 635.511719 453.035156 635.347656 C 441.984375 631.664062 433.304688 643.90625 426.851562 659.617188 C 420.003906 676.304688 415.761719 696.894531 413.640625 707.851562 C 407.621094 738.957031 306.742188 846.605469 258.679688 897.890625 C 252.039062 904.976562 246.414062 910.976562 242.09375 915.65625 Z M 242.09375 915.65625 " fill-opacity="1" fill-rule="nonzero"/><path fill="#1f1f1f" d="M 294.945312 470.597656 C 296.351562 470.894531 297.25 472.277344 296.953125 473.683594 C 296.652344 475.085938 295.273438 475.984375 293.867188 475.6875 L 290.015625 474.863281 C 288.613281 474.5625 287.714844 473.183594 288.011719 471.777344 C 288.308594 470.371094 289.691406 469.476562 291.097656 469.773438 Z M 294.945312 470.597656 " fill-opacity="1" fill-rule="nonzero"/><path fill="#1f1f1f" d="M 92.042969 510.613281 C 91.863281 509.191406 92.867188 507.894531 94.289062 507.714844 C 95.710938 507.535156 97.011719 508.542969 97.191406 509.964844 L 119.96875 687.191406 L 173.363281 859.476562 C 173.785156 860.847656 173.011719 862.300781 171.640625 862.722656 C 170.269531 863.144531 168.816406 862.371094 168.394531 861 L 114.941406 688.523438 C 114.898438 688.378906 114.867188 688.234375 114.847656 688.082031 Z M 92.042969 510.613281 " fill-opacity="1" fill-rule="nonzero"/><path fill="#1f1f1f" d="M 147.625 499.121094 C 147.496094 497.691406 148.546875 496.429688 149.976562 496.300781 C 151.402344 496.171875 152.664062 497.222656 152.792969 498.652344 L 169.683594 678.792969 L 383.023438 682.976562 L 397.066406 521.46875 C 397.191406 520.035156 398.453125 518.976562 399.886719 519.097656 C 401.320312 519.222656 402.382812 520.484375 402.257812 521.917969 L 388.003906 685.84375 L 387.996094 685.84375 C 387.878906 687.195312 386.734375 688.242188 385.359375 688.21875 L 167.265625 683.941406 C 165.957031 683.917969 164.847656 682.910156 164.730469 681.578125 Z M 147.625 499.121094 " fill-opacity="1" fill-rule="nonzero"/><path fill="#1f1f1f" d="M 446.957031 547.464844 C 446.894531 546.03125 448.007812 544.816406 449.441406 544.753906 C 450.875 544.695312 452.085938 545.804688 452.148438 547.238281 L 455.710938 623.5 C 455.773438 624.933594 454.660156 626.148438 453.226562 626.207031 C 451.792969 626.269531 450.582031 625.160156 450.519531 623.726562 Z M 446.957031 547.464844 " fill-opacity="1" fill-rule="nonzero"/><path fill="#1f1f1f" d="M 471.265625 788.15625 C 470.921875 786.761719 471.773438 785.355469 473.167969 785.011719 C 474.5625 784.667969 475.96875 785.519531 476.3125 786.914062 L 509.097656 920.195312 C 509.441406 921.589844 508.589844 922.996094 507.195312 923.339844 C 505.800781 923.683594 504.394531 922.832031 504.050781 921.4375 L 471.261719 788.15625 Z M 471.265625 788.15625 " fill-opacity="1" fill-rule="nonzero"/></svg>