<svg xmlns="http://www.w3.org/2000/svg" xmlns:xlink="http://www.w3.org/1999/xlink" width="500" zoomAndPan="magnify" viewBox="0 0 375 374.999991" height="500" preserveAspectRatio="xMidYMid meet" version="1.0"><defs><clipPath id="54629af34b"><path d="M 8.867188 117 L 365 117 L 365 289 L 8.867188 289 Z M 8.867188 117 " clip-rule="nonzero"/></clipPath><clipPath id="671a7cbf74"><path d="M 9 10 L 365.867188 10 L 365.867188 365.867188 L 9 365.867188 Z M 9 10 " clip-rule="nonzero"/></clipPath></defs><g clip-path="url(#54629af34b)"><path fill="#245261" d="M 17.371094 288.039062 C 16.246094 288.050781 15.160156 287.835938 14.125 287.390625 C 13.089844 286.949219 12.1875 286.3125 11.417969 285.484375 C 11.019531 285.089844 10.664062 284.660156 10.351562 284.195312 C 10.035156 283.726562 9.773438 283.234375 9.554688 282.71875 C 9.339844 282.199219 9.175781 281.664062 9.066406 281.113281 C 8.957031 280.5625 8.902344 280.007812 8.902344 279.445312 C 8.902344 278.886719 8.957031 278.328125 9.066406 277.777344 C 9.175781 277.226562 9.339844 276.695312 9.554688 276.175781 C 9.773438 275.65625 10.035156 275.164062 10.351562 274.699219 C 10.664062 274.234375 11.019531 273.800781 11.417969 273.40625 L 116.042969 171.332031 C 116.4375 170.949219 116.863281 170.601562 117.324219 170.300781 C 117.785156 169.996094 118.273438 169.742188 118.78125 169.535156 C 119.292969 169.324219 119.816406 169.167969 120.359375 169.0625 C 120.898438 168.957031 121.445312 168.902344 121.996094 168.902344 C 122.550781 168.902344 123.09375 168.957031 123.636719 169.0625 C 124.175781 169.167969 124.703125 169.324219 125.214844 169.535156 C 125.722656 169.742188 126.210938 169.996094 126.671875 170.300781 C 127.132812 170.601562 127.558594 170.949219 127.953125 171.332031 L 168.269531 210.972656 L 267.792969 119.445312 C 268.1875 119.09375 268.609375 118.78125 269.0625 118.503906 C 269.515625 118.230469 269.988281 117.996094 270.480469 117.808594 C 270.976562 117.617188 271.484375 117.476562 272.003906 117.378906 C 272.523438 117.285156 273.046875 117.238281 273.578125 117.238281 C 274.105469 117.238281 274.632812 117.285156 275.152344 117.378906 C 275.671875 117.476562 276.179688 117.617188 276.671875 117.808594 C 277.167969 117.996094 277.640625 118.230469 278.09375 118.503906 C 278.542969 118.78125 278.96875 119.09375 279.363281 119.445312 L 362.382812 196.511719 C 362.746094 196.902344 363.070312 197.320312 363.355469 197.773438 C 363.644531 198.222656 363.882812 198.699219 364.082031 199.195312 C 364.277344 199.691406 364.425781 200.203125 364.523438 200.726562 C 364.625 201.25 364.675781 201.78125 364.675781 202.3125 C 364.675781 202.847656 364.628906 203.378906 364.527344 203.902344 C 364.429688 204.425781 364.28125 204.9375 364.085938 205.433594 C 363.890625 205.929688 363.652344 206.40625 363.367188 206.859375 C 363.082031 207.308594 362.757812 207.730469 362.394531 208.121094 C 362.03125 208.511719 361.632812 208.867188 361.203125 209.179688 C 360.773438 209.496094 360.316406 209.769531 359.835938 210 C 359.351562 210.230469 358.851562 210.414062 358.335938 210.550781 C 357.820312 210.683594 357.296875 210.773438 356.761719 210.808594 C 356.230469 210.847656 355.699219 210.832031 355.167969 210.769531 C 354.636719 210.707031 354.117188 210.597656 353.609375 210.433594 C 353.101562 210.273438 352.609375 210.066406 352.140625 209.816406 C 351.671875 209.5625 351.226562 209.265625 350.8125 208.929688 L 274.085938 137.308594 L 174.394531 229.003906 C 174 229.371094 173.570312 229.695312 173.113281 229.980469 C 172.65625 230.265625 172.179688 230.503906 171.675781 230.699219 C 171.175781 230.894531 170.660156 231.042969 170.128906 231.140625 C 169.597656 231.242188 169.066406 231.292969 168.527344 231.292969 C 167.988281 231.292969 167.453125 231.242188 166.925781 231.140625 C 166.394531 231.042969 165.878906 230.894531 165.378906 230.699219 C 164.875 230.503906 164.394531 230.265625 163.9375 229.980469 C 163.480469 229.695312 163.054688 229.371094 162.65625 229.003906 L 122.507812 188.347656 L 23.835938 284.976562 C 23.035156 285.9375 22.070312 286.683594 20.941406 287.21875 C 19.8125 287.753906 18.621094 288.027344 17.371094 288.039062 Z M 17.371094 288.039062 " fill-opacity="1" fill-rule="nonzero"/></g><path fill="#245261" d="M 102.433594 133.738281 C 101.222656 133.742188 100.011719 133.6875 98.808594 133.574219 C 97.601562 133.460938 96.402344 133.289062 95.214844 133.058594 C 94.027344 132.824219 92.851562 132.535156 91.691406 132.191406 C 90.527344 131.84375 89.386719 131.441406 88.265625 130.980469 C 87.144531 130.519531 86.050781 130.007812 84.980469 129.441406 C 83.910156 128.875 82.871094 128.253906 81.859375 127.585938 C 80.851562 126.917969 79.875 126.199219 78.9375 125.433594 C 78 124.667969 77.097656 123.859375 76.238281 123.003906 C 75.382812 122.148438 74.566406 121.257812 73.792969 120.320312 C 73.023438 119.386719 72.300781 118.417969 71.625 117.414062 C 70.949219 116.40625 70.324219 115.371094 69.75 114.304688 C 69.175781 113.238281 68.65625 112.144531 68.191406 111.027344 C 67.722656 109.90625 67.3125 108.769531 66.960938 107.609375 C 66.605469 106.453125 66.308594 105.277344 66.070312 104.089844 C 65.832031 102.902344 65.652344 101.707031 65.53125 100.503906 C 65.410156 99.296875 65.347656 98.089844 65.347656 96.875 C 65.34375 95.664062 65.402344 94.457031 65.519531 93.25 C 65.636719 92.046875 65.8125 90.847656 66.046875 89.660156 C 66.285156 88.472656 66.578125 87.296875 66.925781 86.136719 C 67.277344 84.976562 67.683594 83.839844 68.148438 82.71875 C 68.609375 81.597656 69.125 80.503906 69.695312 79.4375 C 70.265625 78.367188 70.886719 77.328125 71.5625 76.320312 C 72.234375 75.316406 72.953125 74.34375 73.722656 73.40625 C 74.492188 72.46875 75.304688 71.574219 76.160156 70.714844 C 77.015625 69.859375 77.914062 69.046875 78.851562 68.277344 C 79.785156 67.511719 80.757812 66.789062 81.765625 66.117188 C 82.773438 65.445312 83.8125 64.824219 84.878906 64.253906 C 85.949219 63.683594 87.042969 63.164062 88.164062 62.703125 C 89.28125 62.238281 90.421875 61.832031 91.582031 61.484375 C 92.742188 61.132812 93.914062 60.839844 95.105469 60.605469 C 96.292969 60.371094 97.488281 60.195312 98.695312 60.078125 C 99.902344 59.960938 101.109375 59.902344 102.320312 59.902344 C 103.53125 59.90625 104.742188 59.964844 105.945312 60.085938 C 107.152344 60.207031 108.347656 60.386719 109.535156 60.625 C 110.722656 60.867188 111.894531 61.160156 113.054688 61.515625 C 114.214844 61.871094 115.351562 62.28125 116.46875 62.746094 C 117.589844 63.210938 118.679688 63.730469 119.746094 64.304688 C 120.8125 64.878906 121.851562 65.503906 122.855469 66.179688 C 123.863281 66.855469 124.832031 67.578125 125.765625 68.351562 C 126.699219 69.121094 127.59375 69.9375 128.449219 70.796875 C 129.300781 71.65625 130.113281 72.554688 130.878906 73.492188 C 131.640625 74.433594 132.359375 75.40625 133.03125 76.417969 C 133.699219 77.425781 134.316406 78.464844 134.882812 79.535156 C 135.453125 80.605469 135.964844 81.703125 136.425781 82.824219 C 136.882812 83.945312 137.285156 85.085938 137.632812 86.246094 C 137.980469 87.40625 138.269531 88.582031 138.5 89.769531 C 138.734375 90.960938 138.90625 92.15625 139.019531 93.363281 C 139.132812 94.570312 139.1875 95.777344 139.179688 96.988281 C 139.175781 98.191406 139.109375 99.390625 138.988281 100.585938 C 138.867188 101.78125 138.683594 102.96875 138.445312 104.148438 C 138.207031 105.324219 137.914062 106.488281 137.558594 107.636719 C 137.207031 108.789062 136.800781 109.917969 136.339844 111.027344 C 135.875 112.136719 135.359375 113.21875 134.792969 114.277344 C 134.222656 115.335938 133.605469 116.367188 132.933594 117.363281 C 132.265625 118.363281 131.550781 119.328125 130.789062 120.257812 C 130.023438 121.183594 129.21875 122.074219 128.367188 122.925781 C 127.519531 123.773438 126.628906 124.582031 125.699219 125.34375 C 124.769531 126.105469 123.808594 126.824219 122.808594 127.492188 C 121.808594 128.160156 120.78125 128.777344 119.722656 129.347656 C 118.664062 129.917969 117.578125 130.429688 116.46875 130.894531 C 115.359375 131.355469 114.230469 131.765625 113.082031 132.117188 C 111.933594 132.46875 110.769531 132.765625 109.589844 133.003906 C 108.414062 133.242188 107.226562 133.421875 106.03125 133.542969 C 104.835938 133.667969 103.636719 133.730469 102.433594 133.738281 Z M 102.433594 77.085938 C 101.78125 77.078125 101.128906 77.105469 100.480469 77.164062 C 99.828125 77.222656 99.183594 77.3125 98.539062 77.4375 C 97.898438 77.558594 97.265625 77.710938 96.636719 77.894531 C 96.011719 78.082031 95.394531 78.296875 94.789062 78.539062 C 94.1875 78.785156 93.59375 79.058594 93.015625 79.363281 C 92.4375 79.667969 91.875 80 91.328125 80.355469 C 90.785156 80.714844 90.257812 81.101562 89.75 81.511719 C 89.242188 81.921875 88.753906 82.355469 88.289062 82.816406 C 87.824219 83.273438 87.382812 83.753906 86.964844 84.253906 C 86.546875 84.757812 86.15625 85.277344 85.789062 85.820312 C 85.421875 86.359375 85.082031 86.917969 84.773438 87.492188 C 84.460938 88.066406 84.175781 88.652344 83.921875 89.253906 C 83.671875 89.855469 83.445312 90.46875 83.253906 91.09375 C 83.058594 91.714844 82.898438 92.347656 82.765625 92.988281 C 82.632812 93.628906 82.535156 94.273438 82.46875 94.921875 C 82.398438 95.570312 82.363281 96.222656 82.359375 96.875 C 82.355469 97.527344 82.382812 98.179688 82.445312 98.832031 C 82.503906 99.480469 82.597656 100.125 82.722656 100.769531 C 82.84375 101.410156 83 102.042969 83.1875 102.667969 C 83.371094 103.292969 83.589844 103.910156 83.835938 104.515625 C 84.082031 105.117188 84.359375 105.710938 84.664062 106.289062 C 84.96875 106.863281 85.300781 107.425781 85.664062 107.96875 C 86.023438 108.515625 86.410156 109.039062 86.820312 109.546875 C 87.234375 110.054688 87.667969 110.539062 88.128906 111.003906 C 88.589844 111.46875 89.070312 111.90625 89.574219 112.324219 C 90.078125 112.738281 90.597656 113.128906 91.140625 113.496094 C 91.683594 113.859375 92.238281 114.199219 92.816406 114.507812 C 93.390625 114.816406 93.976562 115.097656 94.582031 115.351562 C 95.183594 115.601562 95.796875 115.824219 96.421875 116.015625 C 97.046875 116.207031 97.675781 116.367188 98.316406 116.5 C 98.957031 116.628906 99.601562 116.726562 100.253906 116.792969 C 100.902344 116.859375 101.554688 116.890625 102.207031 116.894531 C 102.859375 116.894531 103.511719 116.863281 104.160156 116.804688 C 104.8125 116.742188 105.457031 116.648438 106.097656 116.519531 C 106.738281 116.394531 107.371094 116.238281 107.996094 116.050781 C 108.621094 115.863281 109.238281 115.644531 109.839844 115.394531 C 110.445312 115.144531 111.035156 114.867188 111.613281 114.5625 C 112.1875 114.253906 112.75 113.921875 113.292969 113.558594 C 113.835938 113.195312 114.359375 112.808594 114.867188 112.394531 C 115.371094 111.984375 115.855469 111.546875 116.316406 111.085938 C 116.78125 110.621094 117.21875 110.140625 117.632812 109.636719 C 118.046875 109.132812 118.4375 108.609375 118.800781 108.066406 C 119.164062 107.523438 119.5 106.964844 119.808594 106.386719 C 120.117188 105.8125 120.398438 105.222656 120.648438 104.621094 C 120.898438 104.015625 121.117188 103.402344 121.308594 102.777344 C 121.496094 102.152344 121.65625 101.519531 121.785156 100.878906 C 121.910156 100.238281 122.007812 99.59375 122.070312 98.945312 C 122.136719 98.292969 122.167969 97.644531 122.167969 96.988281 C 122.167969 96.339844 122.136719 95.695312 122.074219 95.050781 C 122.011719 94.402344 121.914062 93.761719 121.789062 93.128906 C 121.664062 92.492188 121.507812 91.863281 121.320312 91.242188 C 121.132812 90.621094 120.917969 90.011719 120.667969 89.410156 C 120.421875 88.8125 120.148438 88.226562 119.84375 87.652344 C 119.539062 87.082031 119.207031 86.523438 118.847656 85.984375 C 118.492188 85.445312 118.105469 84.921875 117.699219 84.417969 C 117.289062 83.917969 116.855469 83.433594 116.398438 82.976562 C 115.941406 82.515625 115.464844 82.078125 114.964844 81.664062 C 114.464844 81.25 113.949219 80.863281 113.410156 80.5 C 112.875 80.136719 112.320312 79.800781 111.75 79.492188 C 111.179688 79.179688 110.597656 78.902344 110 78.648438 C 109.402344 78.398438 108.792969 78.175781 108.175781 77.984375 C 107.554688 77.789062 106.925781 77.628906 106.292969 77.496094 C 105.65625 77.367188 105.019531 77.265625 104.375 77.195312 C 103.730469 77.128906 103.082031 77.089844 102.433594 77.085938 Z M 102.433594 77.085938 " fill-opacity="1" fill-rule="nonzero"/><g clip-path="url(#671a7cbf74)"><path fill="#245261" d="M 306.582031 366.464844 L 68.410156 366.464844 C 66.480469 366.449219 64.558594 366.335938 62.640625 366.132812 C 60.722656 365.929688 58.816406 365.636719 56.925781 365.246094 C 55.039062 364.859375 53.171875 364.378906 51.328125 363.808594 C 49.488281 363.238281 47.675781 362.582031 45.898438 361.835938 C 44.117188 361.089844 42.378906 360.261719 40.679688 359.34375 C 38.984375 358.429688 37.332031 357.4375 35.730469 356.359375 C 34.128906 355.285156 32.585938 354.136719 31.09375 352.910156 C 29.605469 351.683594 28.179688 350.390625 26.8125 349.027344 C 25.449219 347.664062 24.15625 346.234375 22.929688 344.746094 C 21.707031 343.257812 20.554688 341.710938 19.480469 340.109375 C 18.40625 338.507812 17.410156 336.859375 16.496094 335.160156 C 15.582031 333.460938 14.75 331.722656 14.003906 329.945312 C 13.257812 328.164062 12.601562 326.355469 12.03125 324.511719 C 11.460938 322.667969 10.984375 320.800781 10.59375 318.914062 C 10.207031 317.023438 9.910156 315.121094 9.707031 313.203125 C 9.503906 311.285156 9.394531 309.359375 9.375 307.433594 L 9.375 69.261719 C 9.394531 67.332031 9.503906 65.40625 9.707031 63.488281 C 9.910156 61.570312 10.207031 59.667969 10.59375 57.777344 C 10.984375 55.890625 11.460938 54.023438 12.03125 52.179688 C 12.601562 50.335938 13.257812 48.527344 14.003906 46.746094 C 14.75 44.96875 15.582031 43.230469 16.496094 41.53125 C 17.410156 39.832031 18.40625 38.183594 19.480469 36.582031 C 20.554688 34.980469 21.707031 33.433594 22.929688 31.945312 C 24.15625 30.457031 25.449219 29.027344 26.8125 27.664062 C 28.179688 26.300781 29.605469 25.007812 31.09375 23.78125 C 32.585938 22.554688 34.128906 21.40625 35.730469 20.332031 C 37.332031 19.253906 38.984375 18.261719 40.679688 17.347656 C 42.378906 16.429688 44.117188 15.601562 45.898438 14.855469 C 47.675781 14.109375 49.488281 13.453125 51.328125 12.882812 C 53.171875 12.3125 55.039062 11.832031 56.925781 11.445312 C 58.816406 11.054688 60.722656 10.761719 62.640625 10.558594 C 64.558594 10.355469 66.480469 10.242188 68.410156 10.226562 L 306.582031 10.226562 C 308.53125 10.226562 310.476562 10.324219 312.417969 10.515625 C 314.359375 10.707031 316.285156 10.992188 318.199219 11.371094 C 320.109375 11.75 322 12.226562 323.867188 12.792969 C 325.730469 13.355469 327.566406 14.011719 329.367188 14.757812 C 331.167969 15.507812 332.929688 16.339844 334.648438 17.257812 C 336.371094 18.175781 338.039062 19.179688 339.660156 20.261719 C 341.28125 21.34375 342.847656 22.503906 344.355469 23.742188 C 345.863281 24.980469 347.304688 26.289062 348.683594 27.667969 C 350.0625 29.046875 351.371094 30.488281 352.609375 31.996094 C 353.84375 33.503906 355.003906 35.070312 356.089844 36.691406 C 357.171875 38.3125 358.175781 39.980469 359.09375 41.703125 C 360.011719 43.421875 360.84375 45.183594 361.589844 46.984375 C 362.335938 48.785156 362.992188 50.621094 363.558594 52.484375 C 364.125 54.351562 364.597656 56.242188 364.980469 58.152344 C 365.359375 60.066406 365.644531 61.992188 365.835938 63.933594 C 366.027344 65.875 366.125 67.820312 366.125 69.769531 L 366.125 307.433594 C 366.105469 309.371094 365.996094 311.304688 365.789062 313.234375 C 365.585938 315.164062 365.285156 317.078125 364.894531 318.976562 C 364.5 320.875 364.015625 322.75 363.441406 324.601562 C 362.863281 326.453125 362.199219 328.273438 361.445312 330.0625 C 360.691406 331.847656 359.851562 333.59375 358.929688 335.300781 C 358.003906 337.003906 357 338.660156 355.914062 340.265625 C 354.828125 341.875 353.664062 343.425781 352.425781 344.917969 C 351.191406 346.410156 349.882812 347.839844 348.503906 349.207031 C 347.128906 350.570312 345.6875 351.867188 344.183594 353.089844 C 342.679688 354.316406 341.121094 355.464844 339.503906 356.535156 C 337.886719 357.609375 336.222656 358.597656 334.507812 359.507812 C 332.796875 360.417969 331.042969 361.242188 329.25 361.980469 C 327.457031 362.71875 325.632812 363.367188 323.773438 363.929688 C 321.917969 364.488281 320.039062 364.957031 318.136719 365.332031 C 316.230469 365.710938 314.316406 365.992188 312.386719 366.179688 C 310.457031 366.371094 308.519531 366.464844 306.582031 366.464844 Z M 68.410156 27.238281 C 67.015625 27.238281 65.625 27.308594 64.242188 27.445312 C 62.855469 27.582031 61.476562 27.785156 60.113281 28.058594 C 58.746094 28.328125 57.394531 28.667969 56.0625 29.070312 C 54.730469 29.476562 53.421875 29.945312 52.132812 30.476562 C 50.847656 31.011719 49.589844 31.605469 48.359375 32.261719 C 47.132812 32.917969 45.9375 33.632812 44.78125 34.40625 C 43.621094 35.179688 42.503906 36.011719 41.429688 36.894531 C 40.351562 37.777344 39.320312 38.710938 38.335938 39.695312 C 37.351562 40.679688 36.417969 41.710938 35.53125 42.789062 C 34.648438 43.867188 33.820312 44.984375 33.046875 46.140625 C 32.273438 47.300781 31.558594 48.492188 30.902344 49.722656 C 30.242188 50.949219 29.648438 52.207031 29.117188 53.496094 C 28.582031 54.78125 28.113281 56.089844 27.710938 57.425781 C 27.304688 58.757812 26.96875 60.105469 26.695312 61.472656 C 26.425781 62.839844 26.21875 64.214844 26.082031 65.601562 C 25.945312 66.988281 25.878906 68.378906 25.878906 69.769531 L 25.878906 307.433594 C 25.878906 308.824219 25.945312 310.214844 26.082031 311.601562 C 26.21875 312.988281 26.425781 314.363281 26.695312 315.730469 C 26.96875 317.09375 27.304688 318.445312 27.710938 319.777344 C 28.113281 321.109375 28.582031 322.421875 29.117188 323.707031 C 29.648438 324.996094 30.242188 326.253906 30.902344 327.480469 C 31.558594 328.707031 32.273438 329.902344 33.046875 331.058594 C 33.820312 332.21875 34.648438 333.335938 35.53125 334.414062 C 36.417969 335.488281 37.351562 336.519531 38.335938 337.503906 C 39.320312 338.492188 40.351562 339.425781 41.429688 340.308594 C 42.503906 341.191406 43.621094 342.019531 44.78125 342.792969 C 45.9375 343.570312 47.132812 344.285156 48.359375 344.941406 C 49.589844 345.597656 50.847656 346.191406 52.132812 346.726562 C 53.421875 347.257812 54.730469 347.726562 56.0625 348.132812 C 57.394531 348.535156 58.746094 348.875 60.113281 349.144531 C 61.476562 349.417969 62.855469 349.621094 64.242188 349.757812 C 65.625 349.894531 67.015625 349.960938 68.410156 349.960938 L 306.582031 349.960938 C 307.972656 349.960938 309.363281 349.894531 310.75 349.757812 C 312.136719 349.621094 313.511719 349.417969 314.878906 349.144531 C 316.246094 348.875 317.59375 348.535156 318.925781 348.132812 C 320.261719 347.726562 321.570312 347.257812 322.855469 346.726562 C 324.144531 346.191406 325.402344 345.597656 326.628906 344.941406 C 327.859375 344.285156 329.050781 343.570312 330.210938 342.792969 C 331.367188 342.019531 332.484375 341.191406 333.5625 340.308594 C 334.640625 339.425781 335.667969 338.492188 336.65625 337.503906 C 337.640625 336.519531 338.574219 335.488281 339.457031 334.414062 C 340.339844 333.335938 341.171875 332.21875 341.945312 331.058594 C 342.71875 329.902344 343.433594 328.707031 344.089844 327.480469 C 344.746094 326.253906 345.339844 324.996094 345.875 323.707031 C 346.40625 322.421875 346.875 321.109375 347.28125 319.777344 C 347.683594 318.445312 348.023438 317.09375 348.292969 315.730469 C 348.566406 314.363281 348.769531 312.988281 348.90625 311.601562 C 349.042969 310.214844 349.113281 308.824219 349.113281 307.433594 L 349.113281 69.261719 C 349.113281 67.867188 349.042969 66.476562 348.90625 65.089844 C 348.769531 63.703125 348.566406 62.328125 348.292969 60.960938 C 348.023438 59.597656 347.683594 58.246094 347.28125 56.914062 C 346.875 55.582031 346.40625 54.269531 345.875 52.984375 C 345.339844 51.695312 344.746094 50.441406 344.089844 49.210938 C 343.433594 47.984375 342.71875 46.789062 341.945312 45.632812 C 341.171875 44.472656 340.339844 43.355469 339.457031 42.277344 C 338.574219 41.203125 337.640625 40.171875 336.65625 39.1875 C 335.667969 38.199219 334.640625 37.265625 333.5625 36.382812 C 332.484375 35.5 331.367188 34.671875 330.210938 33.898438 C 329.050781 33.121094 327.859375 32.40625 326.628906 31.75 C 325.402344 31.09375 324.144531 30.5 322.855469 29.964844 C 321.570312 29.433594 320.261719 28.964844 318.925781 28.558594 C 317.59375 28.15625 316.246094 27.816406 314.878906 27.546875 C 313.511719 27.273438 312.136719 27.070312 310.75 26.933594 C 309.363281 26.796875 307.972656 26.730469 306.582031 26.730469 Z M 68.410156 27.238281 " fill-opacity="1" fill-rule="nonzero"/></g></svg>