<svg xmlns="http://www.w3.org/2000/svg" xmlns:xlink="http://www.w3.org/1999/xlink" width="500" zoomAndPan="magnify" viewBox="0 0 375 374.999991" height="500" preserveAspectRatio="xMidYMid meet" version="1.0"><defs><clipPath id="fbfc0503c7"><path d="M 16 46.09375 L 363.796875 46.09375 L 363.796875 325 L 16 325 Z M 16 46.09375 " clip-rule="nonzero"/></clipPath></defs><g clip-path="url(#fbfc0503c7)"><path fill="#ffffff" d="M 231.046875 81.816406 L 339.398438 187.914062 L 226.765625 289.996094 L 226.765625 250.746094 C 226.765625 250.121094 226.734375 249.496094 226.675781 248.871094 C 226.613281 248.25 226.519531 247.632812 226.398438 247.019531 C 226.277344 246.402344 226.125 245.796875 225.945312 245.199219 C 225.761719 244.601562 225.550781 244.011719 225.3125 243.433594 C 225.070312 242.855469 224.804688 242.289062 224.511719 241.738281 C 224.214844 241.1875 223.894531 240.648438 223.546875 240.128906 C 223.199219 239.609375 222.824219 239.105469 222.429688 238.621094 C 222.03125 238.140625 221.613281 237.675781 221.167969 237.234375 C 220.726562 236.789062 220.261719 236.371094 219.78125 235.972656 C 219.296875 235.578125 218.792969 235.203125 218.273438 234.855469 C 217.753906 234.507812 217.21875 234.1875 216.664062 233.894531 C 216.113281 233.597656 215.546875 233.332031 214.96875 233.089844 C 214.390625 232.851562 213.804688 232.640625 213.203125 232.460938 C 212.605469 232.277344 212 232.125 211.386719 232.003906 C 210.769531 231.882812 210.152344 231.789062 209.53125 231.726562 C 208.90625 231.667969 208.28125 231.636719 207.65625 231.636719 C 104.464844 231.636719 57.800781 256.59375 36.894531 279.179688 C 53.097656 143.351562 168.367188 132.265625 204.675781 132.265625 C 208.496094 132.265625 210.5625 132.265625 210.5625 132.265625 L 211.9375 132.265625 C 212.5625 132.265625 213.1875 132.234375 213.808594 132.175781 C 214.433594 132.113281 215.050781 132.023438 215.664062 131.898438 C 216.277344 131.777344 216.886719 131.625 217.484375 131.445312 C 218.082031 131.261719 218.671875 131.050781 219.25 130.8125 C 219.828125 130.574219 220.394531 130.304688 220.945312 130.011719 C 221.496094 129.714844 222.035156 129.394531 222.554688 129.046875 C 223.074219 128.699219 223.578125 128.324219 224.058594 127.929688 C 224.542969 127.53125 225.007812 127.113281 225.449219 126.667969 C 225.890625 126.226562 226.3125 125.765625 226.710938 125.28125 C 227.105469 124.796875 227.480469 124.292969 227.828125 123.773438 C 228.175781 123.253906 228.496094 122.71875 228.789062 122.164062 C 229.085938 121.613281 229.351562 121.046875 229.59375 120.46875 C 229.832031 119.890625 230.042969 119.304688 230.222656 118.703125 C 230.40625 118.105469 230.558594 117.5 230.679688 116.886719 C 230.800781 116.269531 230.894531 115.652344 230.953125 115.03125 C 231.015625 114.40625 231.046875 113.78125 231.046875 113.15625 L 231.046875 81.816406 M 219.121094 46.195312 C 218.648438 46.195312 218.183594 46.238281 217.71875 46.328125 C 217.253906 46.417969 216.804688 46.554688 216.367188 46.734375 C 215.929688 46.914062 215.515625 47.132812 215.121094 47.394531 C 214.726562 47.660156 214.363281 47.957031 214.03125 48.289062 C 213.695312 48.625 213.398438 48.988281 213.136719 49.382812 C 212.875 49.773438 212.652344 50.191406 212.472656 50.625 C 212.292969 51.0625 212.160156 51.515625 212.070312 51.976562 C 211.980469 52.441406 211.933594 52.910156 211.9375 53.382812 L 211.9375 113.460938 C 211.9375 113.460938 209.300781 113.460938 204.675781 113.460938 C 170.164062 113.15625 23.824219 123.589844 16.179688 298.328125 C 16.128906 299.253906 16.175781 300.171875 16.3125 301.085938 C 16.449219 302 16.675781 302.890625 16.996094 303.761719 C 17.3125 304.628906 17.714844 305.457031 18.199219 306.246094 C 18.6875 307.03125 19.246094 307.761719 19.882812 308.433594 C 20.515625 309.109375 21.210938 309.710938 21.96875 310.242188 C 22.722656 310.777344 23.527344 311.226562 24.375 311.597656 C 25.222656 311.964844 26.097656 312.246094 27.003906 312.4375 C 27.90625 312.632812 28.820312 312.730469 29.746094 312.738281 C 31.019531 312.75 32.269531 312.585938 33.492188 312.238281 C 34.71875 311.890625 35.871094 311.378906 36.949219 310.703125 C 38.023438 310.023438 38.984375 309.207031 39.828125 308.253906 C 40.671875 307.300781 41.363281 306.246094 41.902344 305.09375 C 49.621094 288.621094 81.152344 250.746094 207.65625 250.746094 L 207.65625 316.941406 C 207.65625 317.632812 207.757812 318.3125 207.953125 318.976562 C 208.152344 319.640625 208.441406 320.261719 208.820312 320.839844 C 209.195312 321.421875 209.648438 321.933594 210.179688 322.382812 C 210.707031 322.832031 211.285156 323.195312 211.921875 323.472656 C 212.554688 323.753906 213.214844 323.9375 213.902344 324.023438 C 214.589844 324.113281 215.273438 324.097656 215.957031 323.988281 C 216.640625 323.875 217.292969 323.667969 217.917969 323.367188 C 218.539062 323.066406 219.109375 322.683594 219.621094 322.214844 L 361.601562 193.417969 C 361.964844 193.089844 362.289062 192.726562 362.578125 192.335938 C 362.867188 191.941406 363.113281 191.519531 363.316406 191.078125 C 363.519531 190.632812 363.675781 190.171875 363.785156 189.695312 C 363.890625 189.21875 363.953125 188.738281 363.964844 188.25 C 363.972656 187.761719 363.933594 187.277344 363.847656 186.796875 C 363.757812 186.316406 363.625 185.851562 363.441406 185.398438 C 363.257812 184.945312 363.03125 184.515625 362.757812 184.109375 C 362.488281 183.703125 362.179688 183.328125 361.832031 182.984375 L 224.089844 48.183594 C 223.433594 47.523438 222.671875 47.015625 221.8125 46.660156 C 220.949219 46.300781 220.054688 46.121094 219.121094 46.121094 Z M 219.121094 46.195312 " fill-opacity="1" fill-rule="nonzero"/></g></svg>